<svg width="47" height="54" viewBox="0 0 47 54" fill="none" xmlns="http://www.w3.org/2000/svg">
<g clip-path="url(#clip0_43_1059)">
<path fill-rule="evenodd" clip-rule="evenodd" d="M19.1197 9.73803C18.8487 9.74665 18.6433 9.80273 18.5034 9.89762C18.4247 9.94937 18.3635 10.0184 18.3286 10.1003C18.2849 10.1909 18.2674 10.2987 18.2718 10.4238C18.2805 10.7904 18.4772 11.2692 18.8531 11.8213L18.8575 11.8299L20.077 13.7449C20.5665 14.5127 21.0779 15.2977 21.7161 15.8713C22.328 16.4234 23.0754 16.7987 24.0589 16.803C25.1254 16.8073 25.9035 16.4148 26.5372 15.8325C27.1929 15.2244 27.713 14.3919 28.2244 13.5595L29.6013 11.3253C29.8592 10.7473 29.951 10.3634 29.8941 10.1348C29.8592 10.0011 29.7106 9.93212 29.4527 9.91918C29.3959 9.91487 29.3434 9.91487 29.2866 9.91918C29.2254 9.91918 29.1598 9.92349 29.0943 9.93212C29.0593 9.93643 29.0199 9.93212 28.9893 9.92349C28.867 9.93212 28.7402 9.92349 28.6134 9.90193L29.0855 7.84456C25.5931 8.38801 22.9793 5.826 19.2858 7.33129L19.5524 9.75528C19.3951 9.75959 19.2508 9.75528 19.1197 9.73803ZM23.4426 40.0164C25.2697 40.0164 26.7514 41.4785 26.7514 43.2814C26.7514 45.0843 25.2697 46.5465 23.4426 46.5465C21.6155 46.5465 20.1338 45.0843 20.1338 43.2814C20.1338 41.4785 21.6155 40.0164 23.4426 40.0164ZM5.34682 28.1638C5.29 28.1724 5.2288 28.1767 5.17198 28.1767C5.11079 28.1767 5.05396 28.1724 4.99714 28.1638H2.58C2.5494 28.1638 2.52318 28.1724 2.50132 28.1854L2.48384 28.2069C2.45761 28.2328 2.44013 28.2673 2.44013 28.3018V33.6415C2.44013 33.6717 2.44887 33.6976 2.46198 33.7192L2.47947 33.7364C2.50569 33.7623 2.54066 33.7795 2.57563 33.7795H5.57411C5.62219 33.7709 5.67464 33.7709 5.72709 33.7709C5.77954 33.7709 5.82762 33.7752 5.88008 33.7795H41.0838C41.1319 33.7709 41.1843 33.7709 41.2368 33.7709C41.2892 33.7709 41.3373 33.7752 41.3898 33.7795H43.8375C43.8768 33.7795 43.9118 33.7666 43.938 33.7407C43.9643 33.7148 43.9774 33.6803 43.9774 33.6415V28.3018C43.9774 28.2673 43.9599 28.2328 43.9337 28.2069C43.9074 28.1811 43.8725 28.1638 43.8375 28.1638H5.34682ZM11.0247 25.9641C10.9897 25.852 10.9679 25.7355 10.9548 25.6061C10.9985 22.2375 10.474 21.6078 14.0713 19.6281C15.3869 18.9035 18.7832 18.6576 20.2649 17.7001C20.4922 17.2817 20.7413 16.5269 20.8943 16.0784L20.9074 16.0352C20.3654 15.4573 19.9196 14.7758 19.4913 14.1073L18.2718 12.1922C17.8259 11.5366 17.5943 10.9328 17.5811 10.4411C17.5724 10.2082 17.6161 9.99682 17.6992 9.81567C17.7909 9.62157 17.9308 9.46199 18.1188 9.33691C18.2062 9.27652 18.3067 9.22908 18.416 9.18595C18.3373 8.14648 18.3067 6.83959 18.3592 5.74405C18.3854 5.48526 18.4378 5.22216 18.5078 4.96337C18.9536 3.38907 20.3261 2.25471 21.8953 1.71988C22.6558 1.46109 22.363 0.844311 23.1323 0.883129C24.955 0.982332 27.7655 2.13826 28.8451 3.3675C30.3575 5.08845 29.9684 7.21052 29.916 9.31103C30.2526 9.41454 30.4711 9.62589 30.5585 9.96663C30.6547 10.3462 30.5498 10.881 30.222 11.6099C30.2176 11.6229 30.2088 11.6358 30.2001 11.6488L28.8101 13.9088C28.2725 14.7801 27.7305 15.6557 27.0049 16.3242L26.97 16.3587C27.0399 16.4579 27.1142 16.5657 27.1929 16.6822C27.4333 17.0316 27.7087 17.4284 27.9622 17.7389C29.4745 18.6663 32.8008 18.9164 34.099 19.6324C37.4078 21.4525 36.5905 22.4273 36.8265 25.6104C36.8134 25.7398 36.7915 25.8606 36.7565 25.9684H43.8331C44.4844 25.9684 45.0789 26.2315 45.5072 26.6542C45.9356 27.0769 46.2022 27.6635 46.2022 28.3061V33.6458C46.2022 34.2885 45.9356 34.8708 45.5072 35.2935L45.5028 35.2978C45.0745 35.7205 44.4844 35.9836 43.8331 35.9836H42.347V52.1018C42.347 52.5892 42.1459 53.0334 41.8181 53.3569C41.4947 53.6761 41.0445 53.8788 40.5462 53.8788H6.40896C5.91067 53.8788 5.46046 53.6804 5.13264 53.3569C5.10204 53.3267 5.07145 53.2965 5.04522 53.262C4.76985 52.9515 4.60375 52.5417 4.60375 52.0975V35.9792H2.58C1.92873 35.9792 1.33427 35.7161 0.90592 35.2935C0.879695 35.2676 0.853469 35.2417 0.831614 35.2115C0.446969 34.7974 0.210938 34.2454 0.210938 33.6415V28.3018C0.210938 27.6592 0.477566 27.0726 0.90592 26.6499C0.932146 26.624 0.962743 26.5981 0.99334 26.5723C1.41732 26.1927 1.97244 25.9641 2.58 25.9641C5.3949 25.9641 8.2098 25.9641 11.0247 25.9641ZM6.84606 35.9792V51.6705H40.1222V35.9792H6.84606ZM21.5762 19.8351C20.9599 19.145 20.9074 18.4204 21.5762 17.6527C22.3499 17.8468 23.0536 18.1746 23.7049 18.6188C23.8447 18.5584 24.0065 18.5325 24.1682 18.5455C24.8457 18.071 25.7111 17.8813 26.4629 17.5233C27.3634 18.3902 27.2672 19.1881 26.3799 19.93C25.886 19.8179 25.4139 19.6453 24.9637 19.4211C24.9506 19.5332 24.92 19.6583 24.8675 19.7963L25.851 24.4071C26.6028 22.8543 27.3808 20.3829 27.5775 18.3773C27.2497 18.015 26.9 17.5103 26.6028 17.0747C26.5372 16.9755 26.4717 16.8849 26.4105 16.7943C25.7723 17.217 25.0118 17.4801 24.0589 17.4758C22.9968 17.4715 22.175 17.1135 21.4888 16.5657C21.2965 17.1351 21.0123 17.9114 20.7413 18.2867C20.7195 18.3126 20.6976 18.3385 20.6714 18.36C21.0298 20.5425 21.8035 22.9104 22.5072 24.4114L23.4907 19.8006C23.3464 19.5634 23.2896 19.3564 23.2984 19.1838C22.7651 19.4987 22.1838 19.7014 21.5762 19.8351Z" fill="#696969"/>
</g>
<defs>
<clipPath id="clip0_43_1059">
<rect width="46" height="53" fill="white" transform="translate(0.210938 0.874512)"/>
</clipPath>
</defs>
</svg>
