<svg width="63" height="63" viewBox="0 0 63 63" fill="none" xmlns="http://www.w3.org/2000/svg">
<path d="M21.389 14.9317C11.9464 14.9689 4.46924 22.5143 4.48164 32.0003C4.49404 41.2135 12.1696 48.8023 21.4324 48.7527C30.906 48.7837 38.4452 40.9221 38.3336 31.6159C38.222 22.4151 30.6456 14.8883 21.389 14.9317ZM21.4138 43.1045C15.127 43.0983 10.167 38.1073 10.167 31.7895C10.167 25.5523 15.1766 20.5737 21.4448 20.5799C27.6758 20.5861 32.6916 25.6205 32.6792 31.8577C32.6668 38.0825 27.6386 43.1107 21.4138 43.1045ZM58.7192 20.2203C58.6386 18.0069 57.0328 16.3701 54.931 16.3267C52.8354 16.2833 51.149 17.7899 51.0064 19.9723C50.9072 21.5285 50.9382 23.0909 50.963 24.6533C50.9878 26.0049 51.5396 27.1271 52.7052 27.8587C53.0958 28.1005 53.164 28.3733 53.164 28.7763C53.1516 32.5025 53.1578 36.2287 53.1578 39.9549V45.5101C53.1578 46.2293 53.4058 46.8245 54.0754 47.1655C55.2658 47.7793 56.4996 46.9361 56.4996 45.4915C56.5058 39.9115 56.5058 34.3377 56.4934 28.7577C56.4934 28.3423 56.5926 28.0819 56.9708 27.8463C57.9938 27.2015 58.589 26.2529 58.6572 25.0377C58.7068 24.1697 58.6696 23.3017 58.6696 22.4337H58.7192C58.7254 21.6897 58.744 20.9519 58.7192 20.2203ZM48.39 16.3453C47.9436 16.3267 47.801 16.6429 47.801 17.0645C47.8072 18.6021 47.801 20.1459 47.801 21.6835V22.9359H46.716V17.2691C46.716 16.8475 46.6912 16.3763 46.1704 16.3577C45.5752 16.3391 45.5876 16.8475 45.5876 17.2815V22.2353C45.5876 22.4709 45.5566 22.7065 45.5442 22.9235H44.4778C44.4778 20.9643 44.4716 19.0733 44.4778 17.1761C44.4778 16.7669 44.4406 16.3577 43.9322 16.3453C43.4238 16.3329 43.3742 16.7359 43.3804 17.1513C43.3866 18.8501 43.3866 20.5427 43.3866 22.2415V22.9545H42.252V17.2009C42.252 16.8041 42.2334 16.3577 41.7312 16.3515C41.2042 16.3391 41.1236 16.7793 41.1236 17.2133C41.1236 19.6251 41.105 22.0369 41.1298 24.4425C41.1422 25.8871 41.6878 27.1023 42.9464 27.8897C43.306 28.1129 43.3928 28.3485 43.3928 28.7391C43.3804 32.3351 43.3866 35.9249 43.3866 39.5209C43.3866 41.5731 43.3804 43.6253 43.3866 45.6775C43.3928 46.5703 44.0314 47.2709 44.887 47.3515C45.693 47.4321 46.4618 46.8679 46.6416 46.0247C46.7098 45.7209 46.716 45.4047 46.716 45.0947C46.7222 39.6697 46.7222 34.2509 46.7098 28.8259C46.7098 28.3609 46.809 28.0695 47.2244 27.7967C48.2784 27.1085 48.8612 26.0917 48.8798 24.8269C48.9108 22.2415 48.8922 19.6499 48.8984 17.0583C48.8984 16.6925 48.8054 16.3639 48.39 16.3453ZM21.4014 21.2619C15.5796 21.2619 10.849 25.9863 10.849 31.7957C10.849 37.6733 15.5362 42.4039 21.389 42.4163C27.1674 42.4287 31.9848 37.6857 31.991 31.9817C31.9972 26.0049 27.31 21.2619 21.4014 21.2619Z" fill="#313131"/>
</svg>
