<svg width="57" height="45" viewBox="0 0 57 45" fill="none" xmlns="http://www.w3.org/2000/svg">
<g clip-path="url(#clip0_43_1045)">
<path d="M29.882 7.96168C36.0254 8.30683 41.5673 10.7456 45.6675 14.515C50.1304 18.616 52.8899 24.2838 52.8899 30.551C52.8899 30.601 52.8853 30.6555 52.8807 30.7054C52.8669 31.5229 52.1966 32.1769 51.3701 32.1769V32.1814H5.36355C4.52791 32.1814 3.84837 31.5093 3.84837 30.6827L3.85296 30.551H3.84378C3.84378 24.2838 6.60325 18.6115 11.0662 14.515C15.1663 10.7501 20.7037 8.31137 26.847 7.96622V3.89251H23.5687C22.7331 3.89251 22.0535 3.22037 22.0535 2.39382C22.0535 1.56727 22.7331 0.895126 23.5687 0.895126H28.3668H33.3394C34.175 0.895126 34.8546 1.56727 34.8546 2.39382C34.8546 3.22037 34.175 3.89251 33.3394 3.89251H29.882V7.96168ZM1.80516 34.0162H55.1902C56.0258 34.0162 56.7054 34.6883 56.7054 35.5149V43.0719C56.7054 43.8984 56.0258 44.5706 55.1902 44.5706H1.80516C0.969516 44.5706 0.289978 43.8984 0.289978 43.0719V35.5149C0.289978 34.6883 0.969516 34.0162 1.80516 34.0162ZM53.675 37.0135H3.32494V41.5687H53.6796V37.0135H53.675ZM43.6059 16.704C39.7123 13.1299 34.3266 10.9182 28.3668 10.9182C22.4071 10.9182 17.0213 13.1299 13.1277 16.704C9.5923 19.9512 7.29197 24.3246 6.92465 29.1795H49.7998C49.4371 24.3246 47.1368 19.9512 43.6059 16.704Z" fill="#696969"/>
</g>
<defs>
<clipPath id="clip0_43_1045">
<rect width="56.42" height="43.68" fill="white" transform="translate(0.289978 0.890137)"/>
</clipPath>
</defs>
</svg>
