<svg width="48" height="55" viewBox="0 0 48 55" fill="none" xmlns="http://www.w3.org/2000/svg">
<path d="M13.6779 9.66147C14.4534 9.35908 15.2344 9.07829 16.0319 8.8299C20.3713 7.46913 24.7877 6.97774 29.3086 7.77152C31.58 8.17111 33.791 8.7597 35.9194 9.62367C36.3594 9.80187 36.4474 9.71007 36.4254 9.27268C36.3924 8.5437 36.4144 7.81472 36.4144 7.08574C36.4144 6.37296 36.4199 5.66558 36.4144 4.9528C36.4034 3.69463 35.7434 2.76046 34.539 2.32307C33.67 2.00447 32.7735 1.76688 31.8825 1.52929C26.2616 0.0227275 20.7288 0.422317 15.2619 2.27987C14.0299 2.70106 13.2985 3.64063 13.2875 4.8448C13.271 6.35676 13.2875 7.86872 13.2765 9.38068C13.2765 9.70467 13.3315 9.79647 13.6779 9.66147ZM14.5744 24.8567C14.8054 24.9809 14.9594 25.1159 15.0474 25.3697C15.9329 27.886 17.5829 29.7975 19.9093 31.1367C22.3347 32.5353 24.9142 32.8863 27.5761 31.9251C30.7385 30.7803 32.911 28.6096 34.1155 25.5101C34.1925 25.3049 34.2255 25.0835 34.462 24.9485C35.9414 24.1007 36.7664 22.7939 37.0579 21.174C37.2834 19.9266 37.1294 18.7494 35.9579 17.9395C35.7544 17.7991 35.8039 17.6263 35.8369 17.4589C35.9359 16.9891 36.0129 16.5139 36.0844 16.0441L36.0899 15.9901C36.1559 15.5257 36.2109 15.0613 36.2549 14.5915C36.2604 14.5483 36.2659 14.5159 36.2714 14.4781C36.4034 13.2038 36.5189 11.4812 36.3154 10.6172C34.242 10.0125 32.2345 9.25648 30.1061 8.87849C25.3267 8.03612 20.6628 8.5599 16.0759 9.99626C15.2399 10.2609 14.0409 10.5632 13.227 10.8926L13.2215 10.925C12.919 13.0526 12.9905 15.1747 13.3754 17.2861C13.4359 17.6101 13.4139 17.8423 13.0895 18.0475C12.633 18.3336 12.3745 18.7872 12.215 19.2894C11.6265 21.1308 12.809 23.9225 14.5744 24.8567ZM14.5799 18.7494C14.8659 18.6738 14.9099 18.5928 14.8989 18.2958C14.8109 16.3249 15.0639 14.4349 16.4279 12.8582C16.5269 12.7448 16.6424 12.6422 16.7579 12.545C17.6489 11.789 17.7973 11.7782 18.7708 12.4208C20.3273 13.4468 21.8783 14.4889 23.6437 15.1423C25.5302 15.8389 27.4881 16.0495 29.4901 15.9469C31.0465 15.8713 32.581 15.6877 34.0715 15.2125C34.363 15.1207 34.363 15.2827 34.3795 15.4825C34.4675 16.4329 34.396 17.3833 34.319 18.3282C34.308 18.501 34.253 18.663 34.5005 18.7062C35.8094 18.9384 35.9469 19.8132 35.8204 20.8068C35.6774 21.9299 35.0944 22.8425 34.2365 23.5877C34.11 23.6957 33.956 23.8253 33.8075 23.8361C33.208 23.8793 33.1365 24.3221 32.977 24.7541C31.7065 28.2478 29.2371 30.4077 25.5082 31.1367C25.1947 31.1961 24.8647 31.1799 24.4467 31.2069C21.5813 31.0719 19.3263 29.6841 17.5499 27.4432C16.8129 26.5144 16.3179 25.4669 16.0044 24.3329C15.9659 24.1871 15.9604 24.0035 15.7294 23.9711C15.0364 23.8631 14.5909 23.4095 14.2059 22.8803C13.6504 22.1189 13.249 21.2982 13.2875 20.3316C13.337 19.4244 13.6834 18.9762 14.5799 18.7494ZM47.9312 44.4906C47.8817 43.092 47.2987 41.9256 46.1877 41.0292C45.6377 40.5865 45.0327 40.2409 44.3837 39.9493C42.7008 39.1933 40.9023 38.7883 39.1259 38.3239C37.1404 37.8055 35.1439 37.3087 33.307 36.3638C32.988 36.2018 32.8615 36.0074 32.8725 35.6456C32.9 34.7924 32.8835 33.9338 32.8835 33.0807C32.6745 33.0699 32.6085 33.1725 32.526 33.248C31.294 34.3226 29.9026 35.1596 28.3516 35.6726C27.5321 35.9426 27.2131 36.2828 27.2406 37.1737C27.2846 38.5399 26.1517 39.6469 24.7657 39.8197C23.4072 39.9925 22.1092 39.1393 21.6968 37.8217C21.5483 37.3465 21.5868 36.866 21.5868 36.3908C21.5868 36.1748 21.5428 36.0452 21.3063 35.975C19.3538 35.3702 17.6104 34.3982 15.9714 32.9565C15.9714 33.6368 15.8834 34.1876 15.9879 34.7006C16.2464 35.9534 15.5699 36.4556 14.5084 36.866C12.4955 37.6381 10.4 38.1349 8.32107 38.6857C6.6546 39.1285 4.99364 39.5821 3.49218 40.4515C1.75422 41.4558 0.879738 42.9408 0.896238 44.9279C0.907237 45.9485 0.923737 46.9691 0.890738 47.9897C0.874238 48.5674 1.09973 48.9832 1.52872 49.3396C2.19421 49.8958 2.94219 50.3116 3.72867 50.6626C8.67856 52.8819 13.9364 53.8593 19.3043 54.3615C23.0827 54.7179 26.8666 54.6585 30.6395 54.2535C35.0999 53.7783 39.4613 52.9035 43.6522 51.2998C44.9117 50.8192 46.1492 50.2684 47.2107 49.4206C47.5957 49.1182 47.9531 48.7834 47.9531 48.238C47.9421 46.9961 47.9751 45.7433 47.9312 44.4906ZM24.6062 50.9758C23.5172 50.9758 22.6317 50.1064 22.6317 49.0372C22.6317 47.9681 23.5172 47.0987 24.6062 47.0987C25.6952 47.0987 26.5806 47.9681 26.5806 49.0372C26.5806 50.1064 25.6952 50.9758 24.6062 50.9758ZM24.6062 45.7271C23.5172 45.7271 22.6317 44.8577 22.6317 43.7886C22.6317 42.7194 23.5172 41.85 24.6062 41.85C25.6952 41.85 26.5806 42.7194 26.5806 43.7886C26.5806 44.8577 25.6952 45.7271 24.6062 45.7271ZM29.0886 21.309C30.1061 21.336 30.9805 20.5152 30.9915 19.5216C31.008 18.5064 30.1996 17.6803 29.1656 17.6533C28.1426 17.6263 27.2791 18.4416 27.2626 19.4406C27.2571 20.4558 28.0601 21.282 29.0886 21.309ZM19.7168 21.309C20.7123 21.3144 21.5593 20.499 21.5758 19.5216C21.5923 18.501 20.7728 17.6749 19.7388 17.6533C18.7378 17.6371 17.8798 18.4308 17.8523 19.4082C17.8193 20.4504 18.6553 21.3036 19.7168 21.309ZM21.2788 26.6278C21.2073 26.7574 21.2403 26.8924 21.3393 27.0004C22.1642 27.9184 23.1102 28.6366 24.4247 28.7068C25.6457 28.642 26.5531 28.0102 27.3506 27.1678C27.4991 27.0166 27.6971 26.8546 27.5651 26.6224C27.4221 26.3686 27.1691 26.509 26.9821 26.5576C25.9317 26.8276 24.8647 26.941 23.7812 26.8708C23.0772 26.8222 22.3842 26.6872 21.7023 26.5198C21.5373 26.4874 21.3723 26.455 21.2788 26.6278Z" fill="#696969"/>
</svg>
