<svg width="50" height="50" viewBox="0 0 50 50" fill="none" xmlns="http://www.w3.org/2000/svg">
<g clip-path="url(#clip0_43_1118)">
<path d="M25.0437 1.52311H25.6828L22.3852 6.91838C18.52 7.45045 14.9128 9.12572 12.0459 11.7202C9.179 14.3146 7.18912 17.7045 6.34236 21.4366C5.49559 25.1687 5.83229 29.0651 7.30744 32.6047C8.78259 36.1443 11.3259 39.1584 14.5972 41.2439L13.1316 46.4757C8.39746 43.8878 4.6734 39.8349 2.54271 34.9519C0.412022 30.0689 -0.00495335 24.6316 1.3571 19.4917C2.71915 14.3517 5.7833 9.79942 10.0696 6.54785C14.3559 3.29628 19.6222 1.5291 25.0437 1.52311ZM29.1148 20.5481H34.6026C34.7919 20.5481 34.9793 20.5846 35.1542 20.6555C35.329 20.7265 35.4879 20.8305 35.6217 20.9615C35.7555 21.0926 35.8617 21.2482 35.9341 21.4195C36.0065 21.5908 36.0438 21.7743 36.0438 21.9597C36.0462 22.2442 35.9595 22.5225 35.7955 22.7572L19.511 49.578L16.8688 48.5692L22.0107 30.1822L15.4969 30.2899C15.2421 30.2941 14.9908 30.2317 14.7688 30.1091C14.5468 29.9865 14.3623 29.8081 14.2341 29.5924C14.1059 29.3767 14.0388 29.1314 14.0397 28.8818C14.0405 28.6322 14.1093 28.3873 14.2389 28.1724L31.1259 0.570068L33.7884 1.48324L29.1107 20.5481H29.1148ZM37.257 4.72119C41.9305 7.35923 45.5847 11.434 47.653 16.3135C49.7213 21.1931 50.088 26.6047 48.6963 31.7092C47.3047 36.8137 44.2323 41.3258 39.9558 44.5457C35.6793 47.7657 30.4376 49.5135 25.0437 49.5182H24.3963L27.6532 44.123C31.4794 43.6093 35.058 41.9756 37.92 39.4357C40.7819 36.8959 42.7938 33.5684 43.692 29.8894C44.5902 26.2104 44.3328 22.3514 42.9535 18.8181C41.5743 15.2848 39.1374 12.2421 35.9624 10.0885L37.2814 4.72119H37.257Z" fill="#696969"/>
</g>
<defs>
<clipPath id="clip0_43_1118">
<rect width="49" height="49" fill="white" transform="translate(0.543701 0.570068)"/>
</clipPath>
</defs>
</svg>
