<svg width="42" height="60" viewBox="0 0 42 60" fill="none" xmlns="http://www.w3.org/2000/svg">
<g clip-path="url(#clip0_43_1134)">
<path fill-rule="evenodd" clip-rule="evenodd" d="M19.9045 17.5645C21.6972 18.3519 23.2391 19.6627 24.3475 21.3144C25.529 23.0718 26.2224 25.2036 26.2224 27.4987V57.3636C26.2224 57.983 25.9806 58.5495 25.5883 58.9625C25.196 59.3706 24.6623 59.6251 24.0738 59.6251H7.93932C7.35087 59.6251 6.81259 59.3706 6.42029 58.9625C6.03255 58.5495 5.79079 57.9878 5.79079 57.3684V27.5035C5.79079 25.2084 6.48416 23.0718 7.66562 21.3192C8.7741 19.6675 10.3159 18.3567 12.1087 17.5693V13.5457C12.1087 13.5265 12.1087 13.5025 12.1132 13.4833C12.0767 13.4257 12.0402 13.3681 12.0037 13.3056H3.08574C2.04112 13.3056 1.37512 12.7487 1.07862 12.0333C0.960014 11.7548 0.900712 11.4475 0.905274 11.1402C0.909836 10.8377 0.969137 10.5304 1.08774 10.2519C1.39337 9.53171 2.05937 8.96994 3.05837 8.96994C3.07661 8.96994 3.09486 8.96994 3.10854 8.96994C4.63669 9.03236 6.08729 9.08518 7.54246 9.13319C8.19477 9.1572 8.84252 9.17641 9.49484 9.20041L2.77098 4.76389C2.74361 4.74949 2.71624 4.73028 2.68887 4.71107C1.87234 4.07729 1.54846 3.33306 1.55759 2.65606C1.56215 2.28155 1.66707 1.93585 1.84953 1.64296C2.02288 1.35967 2.2692 1.1196 2.56115 0.94195C3.17241 0.577041 3.99806 0.495417 4.81004 0.893935C4.82828 0.903538 4.85109 0.917943 4.8739 0.932347L13.8193 6.23313C14.4716 5.87302 15.2151 5.67136 16.0043 5.67136C17.3135 5.67136 18.4949 6.22833 19.3525 7.131C19.6901 7.4863 19.9775 7.89442 20.201 8.34576H22.0485C22.678 8.34576 23.2482 8.61464 23.6633 9.05157C23.8047 9.20041 23.9324 9.37326 24.0328 9.55572L24.083 11.846C23.9735 12.0717 23.8321 12.2781 23.6633 12.4558C23.2482 12.8927 22.678 13.1616 22.0485 13.1616H20.1006C20.0368 13.2768 19.9684 13.3921 19.8954 13.4977C19.8954 13.5169 19.8954 13.5361 19.8954 13.5553H19.8999L19.9045 17.5645ZM40.7968 45.8593C40.6599 45.9074 40.514 45.9362 40.3634 45.941C40.295 45.9458 40.2996 45.9458 40.2859 45.9458H35.6695C35.6558 45.9458 35.6604 45.9458 35.592 45.941C35.446 45.9362 35.3 45.9074 35.1632 45.8593H40.7968Z" fill="#696969"/>
<path fill-rule="evenodd" clip-rule="evenodd" d="M24.0328 9.55573H24.042C25.6248 9.54133 27.1348 9.72858 28.5534 10.1511C29.9949 10.5784 31.3451 11.2362 32.5905 12.1629C34.6295 13.6754 36.2124 15.6007 37.289 17.7998C38.3792 20.0277 38.9494 22.5196 38.9494 25.1268V29.7986C39.1136 29.8466 39.2733 29.9138 39.4329 29.9858C40.4912 30.4948 41.3214 31.5655 41.3944 33.1884L41.8916 44.1453C41.8962 44.1885 41.9008 44.2269 41.9008 44.2701C41.9008 44.731 41.7183 45.144 41.4264 45.4512C41.253 45.6337 41.0341 45.7777 40.7969 45.8594H35.1678C34.926 45.7777 34.7071 45.6337 34.5337 45.4512C34.2418 45.1488 34.0593 44.731 34.0593 44.2701C34.0593 44.2509 34.0593 44.2653 34.0639 44.2077V44.1933L34.5657 33.1884C34.6386 31.5655 35.4689 30.4948 36.5272 29.9858C36.6412 29.933 36.7552 29.885 36.8693 29.8418V25.1268C36.8693 22.8653 36.3812 20.7143 35.4415 18.8033C34.5155 16.9211 33.1561 15.2598 31.3953 13.9586C30.3461 13.1808 29.2057 12.6238 27.9923 12.2637C26.7789 11.9036 25.4424 11.8364 24.0876 11.8412L24.0328 9.55573Z" fill="#262626"/>
<path fill-rule="evenodd" clip-rule="evenodd" d="M20.9537 30.9653H11.0549V48.9947H20.9537V30.9653Z" fill="#696969"/>
<path fill-rule="evenodd" clip-rule="evenodd" d="M10.6764 29.5489H21.3369C21.6015 29.5489 21.8387 29.6641 22.012 29.8466L22.0166 29.8514C22.1899 30.0338 22.2994 30.2883 22.2994 30.562V49.3932C22.2994 49.6717 22.1899 49.9262 22.0166 50.1086C21.9938 50.1326 21.9755 50.1518 21.9527 50.171C21.784 50.3199 21.5741 50.4063 21.3415 50.4063H10.6764C10.4118 50.4063 10.17 50.2911 9.99669 50.1086C9.97388 50.0846 9.95563 50.0606 9.93739 50.0366C9.80054 49.8589 9.71387 49.6381 9.71387 49.3932V30.5668C9.71387 30.2883 9.82335 30.0386 9.99669 29.8562L10.0013 29.8514C10.17 29.6689 10.4118 29.5489 10.6764 29.5489Z" fill="#EDEDED"/>
<path fill-rule="evenodd" clip-rule="evenodd" d="M13.1214 46.69C12.7519 46.69 12.4508 46.3731 12.4508 45.9842C12.4508 45.5953 12.7519 45.2784 13.1214 45.2784H18.8918C19.2613 45.2784 19.5624 45.5953 19.5624 45.9842C19.5624 46.3731 19.2613 46.69 18.8918 46.69H13.1214ZM13.1214 38.4652C12.7519 38.4652 12.4508 38.1483 12.4508 37.7594C12.4508 37.3704 12.7519 37.0535 13.1214 37.0535H18.8918C19.2613 37.0535 19.5624 37.3704 19.5624 37.7594C19.5624 38.1483 19.2613 38.4652 18.8918 38.4652H13.1214ZM13.1214 42.5752C12.7519 42.5752 12.4508 42.2583 12.4508 41.8694C12.4508 41.4805 12.7519 41.1636 13.1214 41.1636H18.8918C19.2613 41.1636 19.5624 41.4805 19.5624 41.8694C19.5624 42.2583 19.2613 42.5752 18.8918 42.5752H13.1214ZM14.8958 34.3503C14.5264 34.3503 14.2253 34.0334 14.2253 33.6445C14.2253 33.2556 14.5264 32.9387 14.8958 32.9387H17.1082C17.4777 32.9387 17.7788 33.2556 17.7788 33.6445C17.7788 34.0334 17.4777 34.3503 17.1082 34.3503H14.8958Z" fill="#696969"/>
<path fill-rule="evenodd" clip-rule="evenodd" d="M19.3115 9.75259C19.3297 9.86783 19.348 9.97826 19.3571 10.0935C19.3206 9.84862 19.2613 9.61335 19.1792 9.38769C19.1518 9.33967 19.1336 9.28205 19.1153 9.22924C18.9465 8.81151 18.7048 8.4418 18.4037 8.12491C17.7879 7.47672 16.9394 7.0782 16.0043 7.0782C15.0691 7.0782 14.2207 7.47672 13.6049 8.12491C12.989 8.7731 12.6104 9.66617 12.6104 10.6505C12.6104 11.6348 12.989 12.5278 13.6049 13.176C14.2207 13.8242 15.0691 14.2227 16.0043 14.2227C16.9394 14.2227 17.7879 13.8242 18.4037 13.176C18.6592 12.9071 18.869 12.5998 19.0332 12.2589C19.0515 12.1821 19.088 12.1053 19.129 12.0429C19.2339 11.7836 19.3115 11.5051 19.3571 11.217C19.3388 11.3899 19.3115 11.5627 19.275 11.7356H22.053C22.313 11.7356 22.5457 11.6252 22.719 11.4427C22.8924 11.2602 22.9973 11.0154 22.9973 10.7417C22.9973 10.468 22.8924 10.2231 22.719 10.0407C22.5502 9.86303 22.313 9.75259 22.053 9.75259H19.3115ZM12.6378 7.14542L4.2307 2.16633C3.84752 1.97908 3.47803 2.00788 3.21801 2.16633C3.11309 2.22875 3.03098 2.31037 2.97168 2.4016C2.92151 2.48323 2.89414 2.57925 2.89414 2.67528C2.88957 2.92976 3.05835 3.24665 3.47803 3.57795L11.5658 8.91234C11.803 8.24494 12.1725 7.64477 12.6378 7.14542ZM11.2693 10.6745C9.98292 10.6217 8.74216 10.5832 7.50139 10.54C6.01886 10.4872 4.53176 10.4392 3.05835 10.3768C2.66605 10.3816 2.41516 10.5736 2.31025 10.8233C2.26463 10.9241 2.24182 11.0394 2.24182 11.1498C2.24182 11.2554 2.26007 11.3659 2.30112 11.4667C2.40148 11.7068 2.65693 11.894 3.08116 11.894H11.4153C11.324 11.5051 11.2739 11.097 11.2693 10.6745Z" fill="#696969"/>
</g>
<defs>
<clipPath id="clip0_43_1134">
<rect width="41" height="59" fill="white" transform="translate(0.905273 0.629883)"/>
</clipPath>
</defs>
</svg>
