<svg width="60" height="56" viewBox="0 0 60 56" fill="none" xmlns="http://www.w3.org/2000/svg">
<g clip-path="url(#clip0_43_1107)">
<path d="M57.6266 6.565V25.695C57.6266 26.0745 57.5503 26.4502 57.4019 26.8006C57.2536 27.1509 57.0362 27.4691 56.7623 27.7368C56.4883 28.0044 56.1632 28.2163 55.8056 28.3602C55.4481 28.5041 55.065 28.5772 54.6786 28.5754H54.6161C54.7633 27.994 54.8375 27.3972 54.837 26.7981C54.837 26.6897 54.837 26.586 54.837 26.4776C55.0244 26.4446 55.1942 26.3483 55.3169 26.2054C55.4397 26.0625 55.5077 25.882 55.5092 25.695V6.565H4.34033V25.695C4.34183 25.882 4.40983 26.0625 4.53259 26.2054C4.65534 26.3483 4.82512 26.4446 5.01253 26.4776C5.01253 26.586 5.01253 26.6897 5.01253 26.7981C5.00887 27.3968 5.07982 27.9936 5.2238 28.5754H5.15177C4.37563 28.573 3.63186 28.2697 3.08236 27.7315C2.81007 27.465 2.59401 27.1483 2.44653 26.7997C2.29906 26.451 2.22306 26.0773 2.2229 25.6997V6.565H1.91561C1.51913 6.56375 1.13933 6.40824 0.859432 6.13254C0.579531 5.85685 0.422361 5.48345 0.422363 5.09418L0.422363 2.09598C0.423629 1.70753 0.58136 1.33535 0.861123 1.06067C1.14089 0.785989 1.51996 0.631126 1.91561 0.629883L57.9291 0.629883C58.3248 0.631126 58.7038 0.785989 58.9836 1.06067C59.2634 1.33535 59.4211 1.70753 59.4224 2.09598V5.09418C59.4224 5.48345 59.2652 5.85685 58.9853 6.13254C58.7054 6.40824 58.3256 6.56375 57.9291 6.565H57.6266ZM38.0272 36.9666H21.8175C21.7708 36.9677 21.7263 36.9865 21.6933 37.019C21.6602 37.0514 21.6411 37.0951 21.6399 37.141V40.158C21.6399 40.2043 21.6586 40.2487 21.6919 40.2814C21.7252 40.3141 21.7704 40.3325 21.8175 40.3325H28.4579V51.3117C28.4592 51.3739 28.4848 51.4331 28.5296 51.4771C28.5744 51.521 28.6347 51.5462 28.698 51.5474H31.4108C31.4741 51.5462 31.5344 51.521 31.5792 51.4771C31.624 51.4331 31.6497 51.3739 31.6509 51.3117V40.3372H38.0272C38.0739 40.336 38.1184 40.3172 38.1515 40.2848C38.1845 40.2523 38.2036 40.2086 38.2048 40.1628V37.1457C38.2049 37.099 38.1863 37.0541 38.1531 37.0207C38.1199 36.9872 38.0747 36.9678 38.0272 36.9666ZM29.8984 14.7441C30.6918 14.7468 31.4667 14.9805 32.125 15.4154C32.7833 15.8504 33.2955 16.4671 33.597 17.1878C33.8984 17.9084 33.9756 18.7006 33.8187 19.4643C33.6618 20.228 33.2779 20.9289 32.7155 21.4784C32.1531 22.028 31.4374 22.4016 30.6588 22.552C29.8803 22.7023 29.0738 22.6228 28.3412 22.3234C27.6087 22.024 26.983 21.5181 26.5431 20.8697C26.1033 20.2213 25.869 19.4594 25.87 18.6804C25.87 17.6364 26.2924 16.6352 27.0442 15.897C27.7961 15.1588 28.8158 14.7441 29.8792 14.7441H29.8984ZM23.6565 26.223C22.4884 27.8084 21.8175 29.6943 21.7263 31.649C21.5817 32.3212 21.4775 33.0012 21.4142 33.6855C21.3758 34.6708 21.5871 35.755 22.9603 35.7503C24.636 35.7503 24.7512 34.7226 24.8809 33.5818L25.1305 31.5123C25.1435 30.9135 25.2688 30.3222 25.5002 29.768C25.6194 29.4922 25.7814 29.2362 25.9804 29.0091L26.0044 30.1876V35.3732H33.8115L33.8451 30.1876V29.0091C34.0442 29.2362 34.2061 29.4922 34.3253 29.768C34.5567 30.3222 34.682 30.9135 34.695 31.5123L34.9447 33.5818C35.0839 34.7226 35.1991 35.7503 36.8652 35.7503C38.2336 35.7503 38.4449 34.6708 38.4065 33.6855C38.3432 33.0012 38.239 32.3212 38.0944 31.649C38.0115 29.5734 37.2619 27.5768 35.953 25.9449C33.2834 22.9231 26.3501 22.9278 23.6997 26.223H23.6565ZM54.2512 53.6641C54.235 53.5395 54.1776 53.4236 54.088 53.3341C53.3521 52.6173 52.4724 52.0587 51.5048 51.6936C50.7748 51.4191 50.0112 51.24 49.2337 51.1609L49.3826 50.2982H54.8706C55.1453 50.2969 55.4083 50.1893 55.6026 49.9986C55.7968 49.8079 55.9065 49.5496 55.9077 49.2799C55.9077 45.0655 54.8994 41.4026 55.9077 36.6083C56.2054 35.194 53.2237 34.9819 53.2237 36.6837V47.4791H42.8862C41.9596 47.4791 41.8491 49.3648 41.8491 50.0766C41.8504 50.1358 41.8752 50.1922 41.9183 50.2336C41.9614 50.275 42.0193 50.2982 42.0796 50.2982H47.5628L47.7741 51.142C46.9553 51.1879 46.1472 51.3466 45.3734 51.6134C44.4481 51.9383 43.5966 52.438 42.867 53.0842C42.7876 53.1546 42.7291 53.2448 42.6978 53.3453C42.6665 53.4458 42.6636 53.5527 42.6894 53.6547C42.5426 53.7464 42.424 53.8755 42.3462 54.0283C42.2684 54.1811 42.2343 54.3517 42.2476 54.5221C42.2661 54.7966 42.3902 55.0541 42.5949 55.2421C42.7995 55.4302 43.0693 55.5349 43.3496 55.5349C43.6299 55.5349 43.8997 55.4302 44.1043 55.2421C44.3089 55.0541 44.433 54.7966 44.4515 54.5221C44.4647 54.3501 44.4296 54.1778 44.35 54.024C44.2705 53.8703 44.1494 53.7409 44.0002 53.6499C44.5367 53.2464 45.1346 52.9282 45.7719 52.7071C46.513 52.4416 47.2928 52.2951 48.0814 52.2734L48.2062 53.4425V53.4944C47.9712 53.5515 47.7633 53.6862 47.6173 53.8758C47.4714 54.0655 47.3962 54.2986 47.4044 54.5362C47.4044 54.8225 47.5202 55.0971 47.7264 55.2995C47.9326 55.502 48.2123 55.6157 48.5039 55.6157C48.7955 55.6157 49.0752 55.502 49.2814 55.2995C49.4876 55.0971 49.6034 54.8225 49.6034 54.5362C49.6117 54.2998 49.537 54.0679 49.3919 53.8791C49.2468 53.6903 49.0401 53.5562 48.8064 53.4991V53.4425L48.8928 52.2828C49.6476 52.3288 50.3908 52.4877 51.0967 52.7542C51.7342 52.9959 52.3289 53.3347 52.8588 53.7584C52.7415 53.8492 52.6496 53.9678 52.5917 54.103C52.5337 54.2382 52.5116 54.3856 52.5275 54.5315C52.5533 54.8093 52.6774 55.0694 52.8783 55.2666C53.0792 55.4638 53.3441 55.5857 53.627 55.611C53.9125 55.5914 54.1812 55.4715 54.384 55.2733C54.5868 55.075 54.7101 54.8117 54.7314 54.5315C54.7445 54.3544 54.7064 54.1772 54.6214 54.0204C54.5365 53.8636 54.4081 53.7336 54.2512 53.6452V53.6641ZM5.54549 53.6641C5.56371 53.5401 5.62076 53.4248 5.70874 53.3341C6.44464 52.6173 7.32432 52.0587 8.29191 51.6936C9.02191 51.4191 9.78547 51.24 10.563 51.1609L10.4141 50.2982H4.97412C4.69945 50.2969 4.43639 50.1893 4.24217 49.9986C4.04795 49.8079 3.93827 49.5496 3.93701 49.2799C3.93701 45.0655 4.94531 41.4026 3.93701 36.6083C3.63932 35.194 6.62101 34.9819 6.62101 36.6837V47.4791H16.9585C17.8852 47.4791 17.9956 49.3648 17.9956 50.0766C17.9943 50.1358 17.9695 50.1922 17.9264 50.2336C17.8833 50.275 17.8254 50.2982 17.7651 50.2982H12.2819L12.0706 51.142C12.8894 51.1879 13.6976 51.3466 14.4714 51.6134C15.3966 51.9383 16.2481 52.438 16.9777 53.0842C17.0572 53.1546 17.1157 53.2448 17.147 53.3453C17.1783 53.4458 17.1812 53.5527 17.1554 53.6547C17.3021 53.7464 17.4207 53.8755 17.4985 54.0283C17.5763 54.1811 17.6104 54.3517 17.5971 54.5221C17.5759 54.8023 17.4526 55.0656 17.2498 55.2638C17.047 55.4621 16.7782 55.582 16.4928 55.6016C16.2081 55.5809 15.9406 55.4605 15.7387 55.2624C15.5369 55.0642 15.4143 54.8015 15.3932 54.5221C15.38 54.3501 15.4151 54.1778 15.4947 54.024C15.5743 53.8703 15.6953 53.7409 15.8446 53.6499C15.308 53.2464 14.7101 52.9282 14.0728 52.7071C13.3318 52.4416 12.5519 52.2951 11.7633 52.2734L11.6385 53.4425V53.4944C11.8735 53.5515 12.0814 53.6862 12.2274 53.8758C12.3734 54.0655 12.4485 54.2986 12.4403 54.5362C12.4403 54.8225 12.3245 55.0971 12.1183 55.2995C11.9121 55.502 11.6324 55.6157 11.3408 55.6157C11.0492 55.6157 10.7695 55.502 10.5633 55.2995C10.3571 55.0971 10.2413 54.8225 10.2413 54.5362C10.2331 54.2998 10.3077 54.0679 10.4528 53.8791C10.5979 53.6903 10.8046 53.5562 11.0383 53.4991V53.4425L10.9519 52.2828C10.1971 52.3288 9.4539 52.4877 8.74805 52.7542C8.11109 52.997 7.51657 53.3358 6.98592 53.7584C7.10322 53.8492 7.19514 53.9678 7.25308 54.103C7.31102 54.2382 7.33308 54.3856 7.31722 54.5315C7.29144 54.8093 7.16732 55.0694 6.96644 55.2666C6.76555 55.4638 6.50061 55.5857 6.21769 55.611C5.93221 55.5914 5.66348 55.4715 5.46068 55.2733C5.25789 55.075 5.13459 54.8117 5.11336 54.5315C5.10026 54.3544 5.13837 54.1772 5.22331 54.0204C5.30826 53.8636 5.43658 53.7336 5.59351 53.6452L5.54549 53.6641ZM16.5696 41.8457H21.8031C22.3371 41.8457 22.8494 42.0537 23.2274 42.4239C23.6054 42.7942 23.8185 43.2966 23.8197 43.8209V46.3006V53.0418H19.7673V46.8663C19.7673 45.9942 19.4312 46.3006 18.4373 46.3006C16.0654 46.3006 13.7223 46.3006 11.3552 46.3006C10.5521 46.2993 9.78221 45.9855 9.2143 45.4279C8.6464 44.8704 8.32679 44.1145 8.32552 43.3259V34.4775C8.32932 33.6764 8.65545 32.9092 9.23285 32.3432C9.81025 31.7772 10.5921 31.4582 11.408 31.4557C18.7734 31.4557 16.6512 36.8393 16.5696 41.8268V41.8457ZM43.2751 41.8457H38.0416C37.5076 41.8457 36.9954 42.0537 36.6173 42.4239C36.2393 42.7942 36.0263 43.2966 36.025 43.8209C36.025 47.0596 36.025 49.7843 36.025 53.0418H40.0534V46.8663C40.0534 45.9942 40.3895 46.3006 41.3834 46.3006C43.7553 46.3006 46.1032 46.3006 48.4655 46.3006C49.2686 46.2993 50.0385 45.9855 50.6064 45.4279C51.1743 44.8704 51.4939 44.1145 51.4952 43.3259V34.4775C51.4915 33.6804 51.1686 32.9168 50.5964 32.3515C50.0242 31.7861 49.2484 31.4644 48.4367 31.4557C41.0713 31.4557 43.1935 36.8393 43.2751 41.8268V41.8457ZM47.4764 22.8194C46.6749 22.8194 45.8914 23.0527 45.225 23.4899C44.5586 23.9271 44.0392 24.5485 43.7325 25.2755C43.4257 26.0026 43.3455 26.8025 43.5019 27.5743C43.6582 28.3461 44.0442 29.0551 44.6109 29.6115C45.1777 30.168 45.8997 30.5469 46.6858 30.7004C47.4719 30.8539 48.2867 30.7752 49.0272 30.474C49.7677 30.1729 50.4006 29.6629 50.8459 29.0086C51.2911 28.3543 51.5288 27.5851 51.5288 26.7981C51.5288 25.7429 51.1019 24.7309 50.3419 23.9847C49.5819 23.2386 48.5512 22.8194 47.4764 22.8194ZM12.3587 22.8194C13.1602 22.8194 13.9437 23.0527 14.6101 23.4899C15.2765 23.9271 15.7959 24.5485 16.1027 25.2755C16.4094 26.0026 16.4896 26.8025 16.3333 27.5743C16.1769 28.3461 15.791 29.0551 15.2242 29.6115C14.6575 30.168 13.9354 30.5469 13.1493 30.7004C12.3632 30.8539 11.5484 30.7752 10.8079 30.474C10.0675 30.1729 9.43455 29.6629 8.98927 29.0086C8.54398 28.3543 8.30632 27.5851 8.30632 26.7981C8.30632 25.7429 8.73326 24.7309 9.49324 23.9847C10.2532 23.2386 11.284 22.8194 12.3587 22.8194Z" fill="#696969"/>
</g>
<defs>
<clipPath id="clip0_43_1107">
<rect width="59" height="55" fill="white" transform="translate(0.422363 0.629883)"/>
</clipPath>
</defs>
</svg>
