<svg width="43" height="63" viewBox="0 0 43 63" fill="none" xmlns="http://www.w3.org/2000/svg">
<g clip-path="url(#clip0_43_1037)">
<path d="M2.2709 44.5699L0.720517 49.9318C0.527389 50.6039 0.940468 51.327 1.64324 51.5307L7.05082 53.1143L1.64324 54.6979C0.940468 54.9066 0.522025 55.6246 0.720517 56.2967L2.2709 61.6586C2.46403 62.3307 3.19899 62.7177 3.90176 62.5089L21.5139 57.3508L39.1261 62.5089C39.8289 62.7177 40.5639 62.3307 40.757 61.6586L42.3074 56.2967C42.5005 55.6246 42.0874 54.9015 41.3847 54.6979L35.9771 53.1143L41.3847 51.5307C42.0874 51.3219 42.5059 50.6039 42.3074 49.9318L40.7624 44.5699C40.5692 43.8978 39.8343 43.5159 39.1315 43.7196L21.5139 48.8777L3.90176 43.7196C3.19899 43.5108 2.46403 43.8978 2.2709 44.5699ZM7.08837 11.1056C7.86088 16.3197 9.0572 20.266 11.0904 21.7274C11.128 19.9605 11.3157 18.219 11.6752 16.5183C12.85 10.9477 14.7384 10.6473 16.5516 6.52789C17.4422 4.50639 17.6889 2.34739 17.1471 0C23.6544 1.06931 29.6951 10.3774 31.2133 22.2162C32.8334 20.21 33.8044 17.8881 33.9868 15.1995C36.8569 17.9899 38.2785 21.3048 38.8096 24.9455C39.8826 31.9113 37.6294 36.4228 31.6746 38.2101C32.9997 35.3229 32.6939 33.0927 31.3045 30.1495C30.7143 28.902 29.9526 27.8123 28.9816 26.9059C28.5577 29.7676 27.8979 31.9317 26.7874 32.7362C26.7659 31.7637 26.664 30.8115 26.4655 29.8796C25.8218 26.8194 24.7864 26.6564 23.7886 24.3956C23.3004 23.2855 23.1663 22.0991 23.4613 20.8108C19.8938 21.3964 16.5785 26.5088 15.7416 33.001C14.851 31.9011 14.3199 30.6281 14.218 29.1515C12.6462 30.6791 11.8629 32.502 11.5679 34.498C11.2728 36.4177 11.4337 37.9962 12.0882 39.2183C7.51218 38.7193 4.43823 36.3006 2.49622 32.39C-0.288039 26.7888 0.210874 22.6185 2.84492 17.0224C3.92322 14.7463 5.31803 12.7605 7.08837 11.1056Z" fill="#696969"/>
</g>
<defs>
<clipPath id="clip0_43_1037">
<rect width="41.7264" height="62.57" fill="white" transform="translate(0.636841)"/>
</clipPath>
</defs>
</svg>
