<svg width="51" height="53" viewBox="0 0 51 53" fill="none" xmlns="http://www.w3.org/2000/svg">
<path d="M47.5815 19.4684C41.7765 13.3496 34.0565 9.9819 25.8465 9.9819C17.6365 9.9819 9.91647 13.3496 4.11147 19.4684C4.02147 19.5632 3.97147 19.6897 3.97147 19.8268C3.97147 19.8953 3.98647 19.9585 4.00647 20.0218C4.04647 20.1219 4.18647 20.2642 4.28147 20.3643L7.12147 23.3578C7.21647 23.458 7.35147 23.6055 7.44647 23.6477C7.50647 23.6741 7.56647 23.6846 7.63147 23.6846C7.75647 23.6846 7.88147 23.6319 7.97147 23.537C12.7565 18.4934 19.1015 15.7159 25.8515 15.7159C32.5965 15.7159 38.9465 18.4934 43.7315 23.537C43.8215 23.6319 43.9415 23.6846 44.0715 23.6846C44.1965 23.6846 44.3215 23.6319 44.4115 23.537L47.5915 20.1851C47.6815 20.0903 47.7315 19.9638 47.7315 19.8268C47.7315 19.7266 47.7015 19.6265 47.6465 19.5422C47.6215 19.5158 47.6015 19.4895 47.5815 19.4684ZM25.8465 18.8412C19.8915 18.8412 14.2865 21.2919 10.0615 25.7453C9.87147 25.9455 9.87147 26.2618 10.0615 26.462L13.2315 29.8034C13.3215 29.8982 13.4415 29.9509 13.5715 29.9509C13.6965 29.9509 13.8215 29.8982 13.9115 29.8034C17.1065 26.4357 21.3465 24.5805 25.8515 24.5805C30.3565 24.5805 34.5965 26.4357 37.7865 29.8034C37.8765 29.8982 37.9965 29.9509 38.1265 29.9509C38.2565 29.9509 38.3765 29.8982 38.4665 29.8034L41.6365 26.462C41.7265 26.3672 41.7765 26.2407 41.7765 26.1036C41.7765 25.9719 41.7265 25.8401 41.6365 25.7453C37.4065 21.2919 31.8015 18.8412 25.8465 18.8412ZM25.8465 27.7005C22.1315 27.7005 18.6365 29.2289 16.0015 32.0064C15.9115 32.1012 15.8615 32.2277 15.8615 32.3647C15.8615 32.4965 15.9115 32.6282 16.0015 32.7231L19.1715 36.0645C19.2615 36.1593 19.3815 36.212 19.5115 36.212C19.6365 36.212 19.7615 36.1593 19.8515 36.0645C21.4565 34.3727 23.5865 33.4399 25.8465 33.4399C28.1065 33.4399 30.2365 34.3727 31.8415 36.0645C31.9315 36.1593 32.0515 36.212 32.1815 36.212C32.3065 36.212 32.4315 36.1593 32.5215 36.0645L35.6915 32.7231C35.8765 32.5228 35.8765 32.2066 35.6915 32.0064C33.0565 29.2289 29.5615 27.7005 25.8465 27.7005ZM25.8465 37.0869C24.5465 37.0869 23.3315 37.6192 22.4115 38.5889C22.2265 38.7892 22.2265 39.1054 22.4115 39.3057L25.5065 42.568C25.5965 42.6628 25.7165 42.7155 25.8465 42.7155C25.9715 42.7155 26.0965 42.6628 26.1865 42.568L29.2815 39.3057C29.4665 39.1054 29.4665 38.7892 29.2815 38.5889C28.3615 37.6192 27.1465 37.0869 25.8465 37.0869Z" fill="#313131"/>
</svg>
