<svg width="73" height="44" viewBox="0 0 73 44" fill="none" xmlns="http://www.w3.org/2000/svg">
<g clip-path="url(#clip0_43_1127)">
<path fill-rule="evenodd" clip-rule="evenodd" d="M10.5885 10.8637C10.9194 10.2501 11.2738 9.69786 11.6401 9.21312C12.7329 7.78961 13.8494 7.01649 14.9718 6.88764C15.2672 6.85696 15.5626 6.83855 15.8461 6.83855C16.8799 6.83855 17.831 7.04717 18.6639 7.45827C18.6698 7.56872 18.6935 7.67303 18.723 7.78347L22.3974 21.1412H18.2445C16.8563 17.3615 15.2081 14.5574 13.3118 12.7412C12.8865 12.3301 12.4435 11.9681 11.9827 11.6552C11.5278 11.3423 11.0611 11.0784 10.5885 10.8637ZM73.006 17.7358C73.006 19.417 72.3385 20.8712 70.9798 22.1168C69.627 23.3624 68.0379 23.8778 66.2184 23.6508L65.799 23.6201C63.2529 28.9705 64.6648 32.2839 64.6648 37.9105C64.6648 39.966 63.8377 41.4324 62.2073 42.3221V43.8745H11.3565V42.3712C9.66108 41.5122 8.80451 40.0273 8.80451 37.9105C8.80451 32.3023 10.2636 28.946 7.67029 23.6201L7.26859 23.6508C5.44911 23.8778 3.8423 23.3624 2.47179 22.1168C1.10127 20.8712 0.416016 19.417 0.416016 17.7358C0.416016 16.1344 1.08355 14.7477 2.42453 13.5634C3.76551 12.3976 5.38413 11.8147 7.26859 11.8147C11.3624 11.8147 14.6469 15.484 17.1221 22.8102L33.8518 23.2397C34.9683 23.2703 35.8249 23.7428 36.4038 24.7429C36.9768 23.7428 37.8393 23.2888 38.9558 23.2397L49.152 22.8102C49.4178 23.3501 49.9613 23.7244 50.5875 23.7244H55.9278V23.7183C56.6307 23.7183 57.2746 23.2397 57.4755 22.5034C57.9363 20.7915 58.7338 19.1164 59.8503 17.4842C60.9963 15.8153 62.4909 14.1832 64.334 12.5817V12.5756C64.523 12.4099 64.6707 12.2074 64.7711 11.9804C65.2437 11.8699 65.734 11.8147 66.2361 11.8147C68.1206 11.8147 69.7215 12.3976 71.0448 13.545C72.3503 14.6924 73.006 16.1037 73.006 17.7358ZM63.2943 11.2993C59.4013 14.674 56.9438 18.2512 55.9159 22.0493H50.5757L54.2619 7.88778C55.3016 7.19443 56.5008 6.83855 57.8713 6.83855C58.1371 6.83855 58.4325 6.85696 58.7279 6.88764C60.4174 7.11467 61.9238 8.58727 63.2943 11.2993ZM48.9688 22.0493H43.0615L43.918 4.80145C44.9932 4.08969 46.2987 3.72154 47.8405 3.72154C48.2954 3.72154 48.7739 3.75222 49.2583 3.81972C51.3554 4.14492 52.6787 5.08984 53.2281 6.62993C52.9859 6.83855 52.8086 7.12694 52.72 7.46441L49.0575 21.5216C48.9984 21.6873 48.9688 21.8652 48.9688 22.0493ZM41.4546 22.0493H38.8613C38.4064 22.08 37.5853 22.3254 36.3979 22.8102C35.3582 22.3254 34.6552 22.08 34.2949 22.0493H31.5125L30.6559 4.62351C30.8922 2.12009 32.8358 0.874512 36.4924 0.874512C39.8006 0.874512 41.9213 1.75807 42.8724 3.53747C42.5475 3.82585 42.3408 4.24309 42.3171 4.71555L41.4665 21.8346C41.4546 21.9082 41.4546 21.9818 41.4546 22.0493ZM29.9057 22.0493H24.3055L20.2589 7.32328C20.5897 6.72811 20.9737 6.17588 21.3932 5.70342C22.3561 4.60511 23.3839 3.97311 24.4414 3.81358C24.9258 3.75222 25.4043 3.71541 25.8591 3.71541C27.082 3.71541 28.1512 3.94243 29.0669 4.39035C29.055 4.49466 29.0491 4.59897 29.055 4.70941L29.9057 22.0493Z" fill="#696969"/>
</g>
<defs>
<clipPath id="clip0_43_1127">
<rect width="72.59" height="43" fill="white" transform="translate(0.416016 0.874512)"/>
</clipPath>
</defs>
</svg>
