<svg width="65" height="62" viewBox="0 0 65 62" fill="none" xmlns="http://www.w3.org/2000/svg">
<g clip-path="url(#clip0_43_1084)">
<path fill-rule="evenodd" clip-rule="evenodd" d="M9.39696 56.2056V40.7466H16.2848C19.2041 41.2763 22.1234 42.8757 25.0427 44.7268H30.393C32.8136 44.8736 34.081 47.3487 31.728 48.9796C29.8528 50.3692 27.3802 50.2905 24.8401 50.0598C23.0896 49.9706 23.0168 52.3461 24.8401 52.3514C25.4738 52.4038 26.1647 52.2517 26.7621 52.2517C29.9255 52.2465 32.5331 51.6382 34.133 49.1106L34.9329 47.2228L42.8909 43.2427C46.8698 41.9213 49.706 46.1216 46.7659 49.0477C41.0001 53.2795 35.094 56.7615 29.0476 59.5775C24.6583 62.2728 20.2638 62.1784 15.8796 59.5775L9.39696 56.2056ZM33.4889 0.400146C34.4862 0.400146 35.3901 0.80917 36.0446 1.4699C36.6991 2.13063 37.1042 3.04307 37.1042 4.04989C37.1042 4.47465 37.0315 4.88367 36.8964 5.26123C36.8185 5.48672 36.7198 5.69648 36.6004 5.90099C37.4471 6.02684 38.2886 6.21038 39.1197 6.44635C40.1066 6.72428 41.0728 7.07562 42.0078 7.50037L42.0234 7.51086C45.6647 9.16793 48.8801 11.9315 51.1085 15.8067C53.1032 19.2729 54.3031 23.6253 54.3083 28.8587C54.3083 29.1472 54.194 29.4094 54.0018 29.6034C53.8252 29.7817 53.5863 29.897 53.3265 29.9128L53.2694 29.918H13.7188C13.4279 29.918 13.1681 29.8026 12.9759 29.6086L12.9552 29.5876C12.7786 29.3989 12.6695 29.1419 12.6695 28.8587C12.6695 28.8273 12.6695 28.8011 12.6747 28.7591C12.6902 23.5572 13.8954 19.231 15.8848 15.7857C18.1185 11.9157 21.3338 9.15744 24.97 7.50562C25.905 7.08086 26.8711 6.72952 27.8581 6.4516C28.6892 6.21562 29.5307 6.03733 30.3774 5.90623C30.2579 5.70696 30.1592 5.49196 30.0813 5.26648C29.9463 4.88367 29.8735 4.47465 29.8735 4.05514C29.8787 3.04831 30.2839 2.13587 30.9332 1.47514C31.5877 0.80917 32.4915 0.400146 33.4889 0.400146ZM9.97874 35.2615V33.0696C9.97874 32.8965 10.119 32.755 10.2904 32.755H56.5523C56.7237 32.755 56.864 32.8965 56.864 33.0696V35.2615C56.864 35.4346 56.7237 35.5762 56.5523 35.5762H10.2852C10.1138 35.5762 9.97874 35.4346 9.97874 35.2615ZM14.7732 27.7942H52.1993C52.0435 23.3317 50.9319 19.619 49.171 16.6562C47.1711 13.2844 44.3401 10.8722 41.1507 9.42488L41.1351 9.41964C39.9404 8.87952 38.6937 8.47049 37.4211 8.19781C36.1277 7.91989 34.8083 7.78354 33.4837 7.78354C30.8553 7.78354 28.2321 8.32891 25.8167 9.42488C22.6325 10.867 19.8015 13.2791 17.8016 16.6562C16.0459 19.619 14.9291 23.3369 14.7732 27.7942ZM20.6586 23.0485C20.5702 23.3159 20.3832 23.5309 20.1547 23.6516C19.9209 23.7774 19.6352 23.8141 19.3599 23.725C19.0846 23.6411 18.8665 23.447 18.7418 23.2111C18.6171 22.9751 18.5808 22.6867 18.6691 22.4088C19.0431 21.1974 19.5262 20.0857 20.1131 19.0789C20.7001 18.0668 21.391 17.1596 22.1805 16.3468C22.9649 15.5393 23.848 14.8313 24.8141 14.2126C25.7803 13.599 26.8348 13.0746 27.9724 12.6446C28.2425 12.5398 28.5282 12.5607 28.7723 12.6709C29.0164 12.781 29.219 12.9855 29.3229 13.2582L29.3281 13.2791C29.4216 13.5466 29.406 13.8245 29.2969 14.0657C29.1879 14.3122 28.9853 14.5167 28.7152 14.6216L28.6996 14.6268C27.7022 15.0096 26.7828 15.4606 25.9465 15.9902C25.1102 16.5199 24.3466 17.1334 23.6713 17.8256C23.0013 18.5178 22.4143 19.2886 21.9104 20.1539C21.4066 21.0191 20.991 21.9788 20.6637 23.0328L20.6586 23.0485ZM-6.97079 39.2626H7.32437V57.7578H-6.97079V39.2626Z" fill="#696969"/>
</g>
<defs>
<clipPath id="clip0_43_1084">
<rect width="63.8296" height="61.17" fill="white" transform="translate(0.585205 0.400146)"/>
</clipPath>
</defs>
</svg>
