<svg width="83" height="54" viewBox="0 0 83 54" fill="none" xmlns="http://www.w3.org/2000/svg">
<g clip-path="url(#clip0_43_1096)">
<path fill-rule="evenodd" clip-rule="evenodd" d="M3.68246 30.737C3.77527 30.1337 3.96889 29.6095 4.26973 29.1692C7.71175 26.6553 15.7335 25.7025 22.896 26.0974V46.7966C22.896 48.1729 23.3184 49.455 24.0337 50.507H3.2104C1.52379 50.0096 0.693291 49.0114 0.749298 47.3764L3.68246 30.737ZM60.5582 17.6349H66.0421C67.7479 17.6349 69.1432 19.1019 69.1432 20.8915V22.6307H67.167V20.8848C67.167 20.258 66.6773 19.7438 66.0805 19.7438H60.5198C60.443 19.7438 60.3694 19.7522 60.299 19.7673V17.6466C60.3838 17.6399 60.4702 17.6349 60.5582 17.6349ZM60.299 23.2458H74.6959V50.507H59.1628C59.8765 49.455 60.299 48.1729 60.299 46.7966V23.2458ZM76.3345 23.2458H79.9205C81.4359 23.2458 82.6761 24.5464 82.6761 26.1394V47.6133C82.6761 49.2047 81.4359 50.507 79.9205 50.507H76.3345V23.2458ZM31.6379 0.874512H51.7075C51.819 0.874954 51.9258 0.921659 52.0046 1.00444C52.0835 1.08723 52.1279 1.19938 52.1284 1.31646V4.16979C52.1279 4.28686 52.0835 4.39902 52.0046 4.4818C51.9258 4.56459 51.819 4.61129 51.7075 4.61173H48.6927V11.7837H46.9181V4.61173H36.6177V11.7837H34.8431V4.61173H31.6379C31.4058 4.61173 31.217 4.41345 31.217 4.16979V1.31646C31.217 1.0728 31.4058 0.874512 31.6379 0.874512ZM32.3099 50.9405V52.1202C32.3099 53.0847 31.5595 53.8745 30.6409 53.8745C29.7224 53.8745 28.9719 53.0847 28.9719 52.1202V50.9405C26.8181 50.9187 25.0627 49.0635 25.0627 46.7966V16.7661C25.0627 14.4858 26.8389 12.6222 29.0103 12.6222H29.9129C29.9129 12.6861 29.9209 12.7516 29.9369 12.8172L30.9274 16.7695C31.2106 17.8953 31.6891 18.9607 32.4124 19.7203C33.0716 20.4126 33.9149 20.8445 34.9679 20.8445H38.9268V23.0693C38.9268 23.4205 39.2004 23.7062 39.5348 23.7062H44.1338C44.4682 23.7062 44.7403 23.4205 44.7403 23.0693V20.8445H48.8912C49.9617 20.8445 50.8354 20.4025 51.5107 19.6951C52.2324 18.9372 52.7092 17.8735 52.9397 16.7342L53.7302 12.8306C53.7478 12.7634 53.7574 12.6945 53.7574 12.6222H54.1862C56.3561 12.6222 58.1323 14.4858 58.1323 16.7661V46.7966C58.1323 49.0635 56.3785 50.9187 54.2246 50.9405V52.1202C54.2246 53.0847 53.4725 53.8745 52.554 53.8745C51.6355 53.8745 50.885 53.0847 50.885 52.1202V50.9405H32.3099ZM52.1252 13.3902H31.5883L32.3387 16.3796C32.5612 17.2669 32.9212 18.0886 33.4413 18.6364C33.8365 19.0498 34.3406 19.3086 34.9679 19.3086H48.8912C49.536 19.3086 50.0673 19.0397 50.477 18.6095C50.989 18.0701 51.3379 17.2786 51.5123 16.4149L52.1252 13.3902ZM31.9291 29.7304C31.5242 29.7304 31.1978 29.386 31.1978 28.9625C31.1978 28.5374 31.5242 28.1946 31.9291 28.1946H51.3747C51.7779 28.1946 52.106 28.5374 52.106 28.9625C52.106 29.386 51.7779 29.7304 51.3747 29.7304H31.9291ZM31.9291 44.56C31.5242 44.56 31.1978 44.2172 31.1978 43.7921C31.1978 43.3686 31.5242 43.0241 31.9291 43.0241H51.3747C51.7779 43.0241 52.106 43.3686 52.106 43.7921C52.106 44.2172 51.7779 44.56 51.3747 44.56H31.9291ZM31.9291 37.1461C31.5242 37.1461 31.1978 36.8016 31.1978 36.3781C31.1978 35.953 31.5242 35.6102 31.9291 35.6102H51.3747C51.7779 35.6102 52.106 35.953 52.106 36.3781C52.106 36.8016 51.7779 37.1461 51.3747 37.1461H31.9291ZM15.0982 18.2533H22.896V21.2494H15.3431V24.8388L12.5155 25.5059V20.9654C12.5155 19.4732 13.6773 18.2533 15.0982 18.2533Z" fill="#696969"/>
</g>
<defs>
<clipPath id="clip0_43_1096">
<rect width="81.93" height="53" fill="white" transform="translate(0.74585 0.874512)"/>
</clipPath>
</defs>
</svg>
