<svg width="63" height="44" viewBox="0 0 63 44" fill="none" xmlns="http://www.w3.org/2000/svg">
<path d="M24.1066 24.1661C27.7646 24.6187 31.1746 25.7781 34.3366 27.2413C35.8679 27.9605 37.5109 28.8967 38.7943 29.6344C40.0839 30.3908 41.3859 31.0728 42.7065 31.7424L34.6961 15.883L33.0036 12.907L27.0206 2.42907C26.1774 0.947283 24.2988 0.432687 22.817 1.27588C21.3353 2.12527 20.8207 4.00386 21.6701 5.48564L28.2854 17.0795L26.5866 18.5799L16.2513 24.4761C18.8553 23.9243 21.5461 23.8437 24.1066 24.1661ZM49.1978 23.5213C52.3908 21.6985 53.5006 17.6313 51.684 14.4446C49.8612 11.2578 45.8002 10.1418 42.6073 11.9646C39.4205 13.7874 38.2983 17.8545 40.1211 21.0413C41.9439 24.2343 46.011 25.3441 49.1978 23.5213ZM61.8023 28.4937C60.8599 31.6246 59.3657 34.5386 57.2454 36.039C55.1808 37.5394 52.8248 37.6386 50.227 37.1178C47.6416 36.5722 44.9571 35.4624 42.3345 34.1418C41.0015 33.466 39.6933 32.784 38.3975 32.0214C37.1203 31.2898 35.4711 30.3536 33.9398 29.6344C30.7778 28.1713 27.3678 27.0057 23.7098 26.5531C20.0767 26.1005 16.1707 26.3981 12.6491 27.7993C9.10897 29.1756 6.12059 31.5936 4.04361 34.4394C2.01003 37.3162 0.596439 40.503 0.243042 43.8323C4.20481 38.5872 9.25776 34.8238 14.5029 33.9434C19.7295 32.9824 25.1792 34.5634 30.4554 37.0434C31.8318 37.6696 32.9912 38.2958 34.5039 39.108C36.0291 39.8768 37.5853 40.6208 39.1911 41.2469C42.4089 42.4869 45.8746 43.5037 49.6876 43.5347C51.5848 43.5409 53.5936 43.2743 55.4908 42.4869C57.4065 41.7243 59.1115 40.3666 60.2275 38.7422C62.3975 35.4066 62.6269 31.699 61.8023 28.4937Z" fill="#313131"/>
</svg>
