<svg width="60" height="60" viewBox="0 0 60 60" fill="none" xmlns="http://www.w3.org/2000/svg">
<g clip-path="url(#clip0_43_1100)">
<path fill-rule="evenodd" clip-rule="evenodd" d="M20.9299 27.1607C20.8147 27.1558 20.6995 27.1558 20.5842 27.1558C19.864 27.1558 19.1582 27.2104 18.4668 27.3198C17.7658 27.4291 17.084 27.5931 16.4214 27.8018C15.5283 28.09 14.6689 28.4627 13.8622 28.9199L20.445 39.6386L26.1299 28.3583L26.1395 28.3385C24.8863 27.7819 23.5419 27.4042 22.1351 27.2452C21.7366 27.2005 21.3381 27.1707 20.9299 27.1607ZM26.9461 25.0935H50.9485C51.5919 25.0935 52.1777 25.3668 52.605 25.8091C53.0275 26.2464 53.2916 26.8576 53.2916 27.5235C53.2916 28.1894 53.0275 28.7956 52.605 29.2379C52.1777 29.6752 51.5967 29.9485 50.9533 29.9485H45.8398L49.3832 43.6686C49.4649 43.7829 49.5273 43.9171 49.5609 44.0662L52.2353 53.791L58.722 52.7574C59.2934 52.668 59.8263 53.0754 59.9128 53.6668C59.9992 54.2581 59.6055 54.8097 59.0341 54.8991L51.6351 56.0769C51.1213 56.1564 50.6172 55.8334 50.4732 55.3017L47.7507 45.393H37.5141C35.8816 53.5227 28.9243 59.6299 20.5842 59.6299C11.0342 59.6299 3.29427 51.6194 3.29427 41.7356C3.29427 33.6357 8.49422 26.793 15.6292 24.5916L10.338 3.18905H9.52653V3.78536H2.44922C1.60897 3.78536 0.922363 3.07476 0.922363 2.21011C0.922363 1.34049 1.60897 0.629883 2.44922 0.629883H9.52653V1.01748H11.1542C11.6584 1.01748 12.0761 1.38521 12.1769 1.8722L17.6698 24.0947C18.6156 23.9258 19.5903 23.8413 20.5842 23.8413C22.8313 23.8413 24.9775 24.2835 26.9461 25.0935ZM34.5948 40.215V40.1901C34.59 40.1305 34.5804 40.0709 34.5756 40.0113L34.5708 39.9516C34.566 39.892 34.5564 39.8373 34.5516 39.7827L34.542 39.7181C34.5324 39.6634 34.5276 39.6087 34.518 39.5541L34.5084 39.4895C34.4988 39.4298 34.4892 39.3702 34.4796 39.3156L34.4748 39.2957C34.4412 39.087 34.4028 38.8783 34.3595 38.6696V38.6596C34.3451 38.6 34.3355 38.5403 34.3211 38.4807L34.3115 38.436C34.2971 38.3764 34.2875 38.3217 34.2731 38.2621L34.2587 38.2124C34.2443 38.1527 34.2299 38.0981 34.2155 38.0385L34.2059 37.9937C34.1915 37.9341 34.1771 37.8745 34.1579 37.8148L34.1483 37.79C34.0955 37.5912 34.0378 37.3925 33.9754 37.1937L33.9706 37.1837C33.9514 37.1291 33.937 37.0794 33.9178 37.0247L33.8938 36.9552C33.8794 36.9055 33.8602 36.8558 33.8458 36.8061L33.8218 36.7365C33.8026 36.6868 33.7882 36.6371 33.769 36.5874L33.7498 36.5278C33.7306 36.4731 33.7113 36.4234 33.6921 36.3738L33.6777 36.334C33.6105 36.1551 33.5337 35.9762 33.4617 35.7973L33.4473 35.7675C33.4233 35.7178 33.4041 35.6681 33.3801 35.6184L33.3512 35.5538C33.332 35.5091 33.308 35.4644 33.2888 35.4197L33.2552 35.3501C33.236 35.3054 33.212 35.2606 33.1928 35.2159L33.1544 35.1414C33.1304 35.0967 33.1112 35.0519 33.0872 35.0122L33.0584 34.9575C32.9767 34.7935 32.8903 34.6345 32.8039 34.4755L32.7799 34.4308C32.7559 34.386 32.7319 34.3413 32.7031 34.2966L32.6646 34.227C32.6406 34.1873 32.6166 34.1426 32.5926 34.1028L32.5542 34.0332C32.5302 33.9935 32.5062 33.9488 32.4774 33.909L32.4342 33.8394C32.4102 33.7997 32.3862 33.7599 32.3573 33.7202L32.3189 33.6556C32.2613 33.5661 32.2085 33.4816 32.1509 33.3972L32.1221 33.3574C32.0981 33.3226 32.0693 33.2829 32.0453 33.2481C32.026 33.2232 32.0116 33.1984 31.9924 33.1736C31.9684 33.1388 31.9396 33.104 31.9156 33.0642L31.8628 32.9897C31.8388 32.9549 31.81 32.9201 31.786 32.8853L31.7284 32.8058L31.6515 32.7164L31.5843 32.6319C31.5603 32.6021 31.5363 32.5673 31.5123 32.5375C31.4883 32.5027 31.4595 32.4729 31.4355 32.4431C31.3971 32.3983 31.3634 32.3536 31.325 32.3089C31.2962 32.2741 31.2674 32.2393 31.2386 32.1996L31.1666 32.1151C31.1426 32.0853 31.1138 32.0555 31.085 32.0207L31.0177 31.9461C30.9889 31.9163 30.9601 31.8815 30.9313 31.8517L30.8593 31.7722L30.7777 31.6828L30.7009 31.6033C30.672 31.5735 30.6432 31.5436 30.6144 31.5088L30.552 31.4393C30.5184 31.4045 30.48 31.3697 30.4464 31.33C30.4128 31.3001 30.384 31.2654 30.3503 31.2355C30.3119 31.1958 30.2735 31.161 30.2351 31.1212C30.2111 31.1014 30.1871 31.0765 30.1679 31.0566C30.1391 31.0268 30.1055 30.997 30.0767 30.9672L29.9998 30.8927C29.971 30.8628 29.9374 30.838 29.9086 30.8082L29.8366 30.7436C29.803 30.7138 29.7694 30.684 29.7358 30.6541L29.6637 30.5895C29.6301 30.5597 29.5917 30.5299 29.5581 30.5001L29.4909 30.4405C29.4381 30.3957 29.3805 30.351 29.3276 30.3063L29.3228 30.3013L29.3132 30.2914C29.2604 30.2467 29.2028 30.2019 29.1452 30.1572L29.0876 30.1125C29.0444 30.0777 29.0011 30.0479 28.9579 30.0131L28.8955 29.9684C28.8571 29.9386 28.8139 29.9087 28.7707 29.874L28.7035 29.8243C28.6602 29.7945 28.617 29.7597 28.5738 29.7299L28.521 29.6901C28.473 29.6553 28.425 29.6255 28.377 29.5907L28.3289 29.5559C28.2089 29.4764 28.0889 29.3969 27.9688 29.3174L27.9544 29.3423L22.2359 40.697L34.6044 40.6423H34.6236C34.6188 40.4982 34.6092 40.3591 34.5948 40.215ZM32.4246 28.6963H50.9485C51.2606 28.6963 51.5487 28.5621 51.7503 28.3534V28.3484C51.9568 28.1347 52.0816 27.8415 52.0816 27.5185C52.0816 27.1955 51.952 26.9023 51.7455 26.6887C51.5391 26.475 51.2558 26.3458 50.9437 26.3458H29.4045C30.4944 27.0117 31.5075 27.8018 32.4246 28.6963ZM34.6332 42.7791H34.6188L22.4088 42.8338L28.9387 53.468C32.1605 51.0082 34.3307 47.162 34.6332 42.7791ZM27.1862 54.6109L20.6178 43.9121L14.9762 55.1079C16.6951 55.8831 18.5916 56.3104 20.589 56.3104C22.9705 56.3104 25.2176 55.6942 27.1862 54.6109ZM13.1468 54.114L18.8269 42.8537L6.54964 42.9083C6.90975 47.6391 9.45931 51.7337 13.1468 54.114ZM6.53044 40.7715L18.6493 40.7169L12.1193 30.0827C8.94076 32.5623 6.80892 36.4036 6.53044 40.7715Z" fill="#696969"/>
</g>
<defs>
<clipPath id="clip0_43_1100">
<rect width="59" height="59" fill="white" transform="translate(0.922363 0.629883)"/>
</clipPath>
</defs>
</svg>
