<svg width="51" height="51" viewBox="0 0 51 51" fill="none" xmlns="http://www.w3.org/2000/svg">
<g clip-path="url(#clip0_43_1204)">
<path d="M15.6171 9.21123C16.3221 8.93123 17.0321 8.67123 17.7571 8.44123C21.7021 7.18123 25.7171 6.72623 29.8271 7.46123C31.8921 7.83123 33.9021 8.37623 35.8371 9.17623C36.2371 9.34123 36.3171 9.25623 36.2971 8.85123C36.2671 8.17623 36.2871 7.50123 36.2871 6.82623C36.2871 6.16623 36.2921 5.51123 36.2871 4.85123C36.2771 3.68623 35.6771 2.82123 34.5821 2.41623C33.7921 2.12123 32.9771 1.90123 32.1671 1.68123C27.0571 0.286227 22.0271 0.656227 17.0571 2.37623C15.9371 2.76623 15.2721 3.63623 15.2621 4.75123C15.2471 6.15123 15.2621 7.55123 15.2521 8.95123C15.2521 9.25123 15.3021 9.33623 15.6171 9.21123ZM16.4321 23.2812C16.6421 23.3962 16.7821 23.5212 16.8621 23.7562C17.6671 26.0862 19.1671 27.8562 21.2821 29.0962C23.4871 30.3912 25.8321 30.7162 28.2521 29.8262C31.1271 28.7662 33.1021 26.7562 34.1971 23.8862C34.2671 23.6962 34.2971 23.4912 34.5121 23.3662C35.8571 22.5812 36.6071 21.3712 36.8721 19.8712C37.0771 18.7162 36.9371 17.6262 35.8721 16.8762C35.6871 16.7462 35.7321 16.5862 35.7621 16.4312C35.8521 15.9962 35.9221 15.5562 35.9871 15.1212L35.9921 15.0712C36.0521 14.6412 36.1021 14.2112 36.1421 13.7762C36.1471 13.7362 36.1521 13.7062 36.1571 13.6712C36.2771 12.4912 36.3821 10.8962 36.1971 10.0962C34.3121 9.53623 32.4871 8.83623 30.5521 8.48623C26.2071 7.70623 21.9671 8.19123 17.7971 9.52123C17.0371 9.76623 15.9471 10.0462 15.2071 10.3512L15.2021 10.3812C14.9271 12.3512 14.9921 14.3162 15.3421 16.2712C15.3971 16.5712 15.3771 16.7862 15.0821 16.9762C14.6671 17.2412 14.4321 17.6612 14.2871 18.1262C13.7521 19.8312 14.8271 22.4162 16.4321 23.2812ZM16.4371 17.6262C16.6971 17.5562 16.7371 17.4812 16.7271 17.2062C16.6471 15.3812 16.8771 13.6312 18.1171 12.1712C18.2071 12.0662 18.3121 11.9712 18.4171 11.8812C19.2271 11.1812 19.3621 11.1712 20.2471 11.7662C21.6621 12.7162 23.0721 13.6812 24.6771 14.2862C26.3921 14.9312 28.1721 15.1262 29.9921 15.0312C31.4071 14.9612 32.8021 14.7912 34.1571 14.3512C34.4221 14.2662 34.4221 14.4162 34.4371 14.6012C34.5171 15.4812 34.4521 16.3612 34.3821 17.2362C34.3721 17.3962 34.3221 17.5462 34.5471 17.5862C35.7371 17.8012 35.8621 18.6112 35.7471 19.5312C35.6171 20.5712 35.0871 21.4162 34.3071 22.1062C34.1921 22.2062 34.0521 22.3262 33.9171 22.3362C33.3721 22.3762 33.3071 22.7862 33.1621 23.1862C32.0071 26.4212 29.7621 28.4212 26.3721 29.0962C26.0871 29.1512 25.7871 29.1362 25.4071 29.1612C22.8021 29.0362 20.7521 27.7512 19.1371 25.6762C18.4671 24.8162 18.0171 23.8462 17.7321 22.7962C17.6971 22.6612 17.6921 22.4912 17.4821 22.4612C16.8521 22.3612 16.4471 21.9412 16.0971 21.4512C15.5921 20.7462 15.2271 19.9862 15.2621 19.0912C15.3071 18.2512 15.6221 17.8362 16.4371 17.6262ZM46.7571 41.4612C46.7121 40.1662 46.1821 39.0862 45.1721 38.2562C44.6721 37.8462 44.1221 37.5262 43.5321 37.2562C42.0021 36.5562 40.3671 36.1812 38.7521 35.7512C36.9471 35.2712 35.1321 34.8112 33.4621 33.9362C33.1721 33.7862 33.0571 33.6062 33.0671 33.2712C33.0921 32.4812 33.0771 31.6862 33.0771 30.8962C32.8871 30.8862 32.8271 30.9812 32.7521 31.0512C31.6321 32.0462 30.3671 32.8212 28.9571 33.2962C28.2121 33.5462 27.9221 33.8612 27.9471 34.6862C27.9871 35.9512 26.9571 36.9762 25.6971 37.1362C24.4621 37.2962 23.2821 36.5062 22.9071 35.2862C22.7721 34.8462 22.8071 34.4012 22.8071 33.9612C22.8071 33.7612 22.7671 33.6412 22.5521 33.5762C20.7771 33.0162 19.1921 32.1162 17.7021 30.7812C17.7021 31.4112 17.6221 31.9212 17.7171 32.3962C17.9521 33.5562 17.3371 34.0212 16.3721 34.4012C14.5421 35.1162 12.6371 35.5762 10.7471 36.0862C9.23206 36.4962 7.72206 36.9162 6.35706 37.7212C4.77706 38.6512 3.98206 40.0262 3.99706 41.8662C4.00706 42.8112 4.02206 43.7562 3.99206 44.7012C3.97706 45.2362 4.18206 45.6212 4.57206 45.9512C5.17706 46.4662 5.85706 46.8512 6.57206 47.1762C11.0721 49.2312 15.8521 50.1362 20.7321 50.6012C24.1671 50.9312 27.6071 50.8762 31.0371 50.5012C35.0921 50.0612 39.0571 49.2512 42.8671 47.7662C44.0121 47.3212 45.1371 46.8112 46.1021 46.0262C46.4521 45.7462 46.7771 45.4362 46.7771 44.9312C46.7671 43.7812 46.7971 42.6212 46.7571 41.4612ZM25.5521 47.4662C24.5621 47.4662 23.7571 46.6612 23.7571 45.6712C23.7571 44.6812 24.5621 43.8762 25.5521 43.8762C26.5421 43.8762 27.3471 44.6812 27.3471 45.6712C27.3471 46.6612 26.5421 47.4662 25.5521 47.4662ZM25.5521 42.6062C24.5621 42.6062 23.7571 41.8012 23.7571 40.8112C23.7571 39.8212 24.5621 39.0162 25.5521 39.0162C26.5421 39.0162 27.3471 39.8212 27.3471 40.8112C27.3471 41.8012 26.5421 42.6062 25.5521 42.6062ZM29.6271 19.9962C30.5521 20.0212 31.3471 19.2612 31.3571 18.3412C31.3721 17.4012 30.6371 16.6362 29.6971 16.6112C28.7671 16.5862 27.9821 17.3412 27.9671 18.2662C27.9621 19.2062 28.6921 19.9712 29.6271 19.9962ZM21.1071 19.9962C22.0121 20.0012 22.7821 19.2462 22.7971 18.3412C22.8121 17.3962 22.0671 16.6312 21.1271 16.6112C20.2171 16.5962 19.4371 17.3312 19.4121 18.2362C19.3821 19.2012 20.1421 19.9912 21.1071 19.9962ZM22.5271 24.9212C22.4621 25.0412 22.4921 25.1662 22.5821 25.2662C23.3321 26.1162 24.1921 26.7812 25.3871 26.8462C26.4971 26.7862 27.3221 26.2012 28.0471 25.4212C28.1821 25.2812 28.3621 25.1312 28.2421 24.9162C28.1121 24.6812 27.8821 24.8112 27.7121 24.8562C26.7571 25.1062 25.7871 25.2112 24.8021 25.1462C24.1621 25.1012 23.5321 24.9762 22.9121 24.8212C22.7621 24.7912 22.6121 24.7612 22.5271 24.9212Z" fill="#313131"/>
</g>
<defs>
<clipPath id="clip0_43_1204">
<rect width="50" height="50" fill="white" transform="translate(0.362061 0.826233)"/>
</clipPath>
</defs>
</svg>
