<svg width="55" height="56" viewBox="0 0 55 56" fill="none" xmlns="http://www.w3.org/2000/svg">
<g clip-path="url(#clip0_43_1052)">
<path d="M1.75663 17.1961C1.52094 15.1585 1.91227 13.4181 2.72161 12.0173C3.30861 10.9938 4.11351 10.1637 5.05626 9.53635C5.98567 8.91847 7.04405 8.4987 8.15578 8.3006C9.91677 7.98459 11.829 8.21099 13.5544 9.04111C14.1681 7.79593 15.0397 6.7347 16.1692 5.94231C17.4721 5.03202 19.1042 4.49433 21.0653 4.49433C23.1909 4.49433 25.2009 5.45179 26.6729 6.99411C27.7624 8.14024 28.5539 9.61181 28.8741 11.2532C30.1415 10.5551 31.3244 10.2344 32.3916 10.2391C33.2677 10.2391 34.0681 10.4608 34.7708 10.8617C35.4689 11.2673 36.0648 11.8475 36.5406 12.588C37.3411 13.8237 37.8036 15.5075 37.8569 17.4838C38.0837 17.8328 38.2171 18.2526 38.2527 18.7431C38.2661 18.9365 38.2616 19.1346 38.2483 19.3421C38.2394 19.4129 38.2305 19.4836 38.2127 19.5449L34.9976 34.4729C33.828 35.5247 32.5962 36.4397 31.3244 37.251L36.3316 19.1063C36.3405 19.0214 36.3405 18.9412 36.3316 18.8799C36.3227 18.7903 36.3138 18.7195 36.2916 18.6771C36.256 18.6488 36.2249 18.611 36.1938 18.5733C36.1226 18.5403 36.0159 18.5167 35.878 18.5026C35.7624 18.4931 35.6335 18.4931 35.4956 18.4978C35.4556 18.5026 35.42 18.5073 35.38 18.5073H3.28193C3.23746 18.5167 3.21078 18.5309 3.20188 18.545C3.12184 18.7337 3.11295 19.0591 3.14852 19.4647L8.07574 41.9204C9.01849 42.3732 8.53377 42.2317 9.57881 42.3071C11.66 42.4581 13.879 41.9156 15.9824 40.8025C20.6384 38.3311 24.694 33.0862 25.45 26.3038C24.5428 25.8368 23.9202 24.8558 23.9202 23.7144C23.9291 22.1343 25.1387 20.842 26.6373 20.842C28.1359 20.842 29.3499 22.1296 29.3499 23.7191C29.3499 25.0397 28.5095 26.1528 27.3666 26.4877C26.5439 34.0248 22.0303 39.8687 16.8496 42.6184C14.4393 43.8966 11.8734 44.5145 9.45874 44.3353C8.65829 44.2739 9.37425 44.5286 8.61826 44.2928C9.78781 48.9575 10.775 48.9386 14.3815 48.8679C15.053 48.8585 15.7912 48.8396 16.3026 48.8396H16.5205C16.5516 48.9009 16.5783 48.9622 16.6094 49.0235C16.9474 49.6933 17.4766 50.3112 18.1258 50.8771H16.3026C15.4176 50.8771 14.8885 50.8866 14.4082 50.896C9.28531 50.9998 8.15134 51.0186 6.49707 43.6655V43.6608H6.49262L6.41258 43.2929C5.66549 42.8354 4.95843 42.2647 4.30473 41.5761C0.676019 37.7415 -1.14723 30.2091 1.2897 17.946C1.33861 17.6913 1.47647 17.4743 1.65879 17.3328C1.68992 17.281 1.72105 17.2385 1.75663 17.1961ZM5.73664 40.2224L2.26358 24.4124C1.53428 32.3363 3.05069 37.3877 5.65215 40.1422C5.68328 40.1705 5.70996 40.1988 5.73664 40.2224ZM35.8603 16.4556C35.718 15.3566 35.4111 14.4322 34.9531 13.7247C34.6462 13.253 34.2771 12.8851 33.8502 12.6399C33.4278 12.3946 32.9342 12.2672 32.3827 12.2672C31.3244 12.2672 30.0481 12.7389 28.6028 13.7907C28.4472 13.9039 28.256 13.9699 28.0514 13.9699C27.5267 13.9605 27.1042 13.5077 27.1042 12.9511C27.0998 12.9228 27.0998 12.8993 27.0998 12.871C27.0998 11.1447 26.406 9.57408 25.3165 8.43267C24.2004 7.25824 22.6706 6.52717 21.0653 6.52717C19.4955 6.52717 18.2148 6.93751 17.2187 7.63085C16.1425 8.38079 15.3776 9.48446 14.9151 10.7815C14.8929 10.8476 14.8662 10.9089 14.8306 10.9655C14.5549 11.4466 13.9635 11.5975 13.5144 11.3003C11.9668 10.2957 10.1436 9.98914 8.47596 10.2957C7.60881 10.4514 6.79057 10.7721 6.07906 11.2437C5.38534 11.7107 4.78944 12.3191 4.35809 13.0643C3.8289 13.9841 3.54875 15.1208 3.62434 16.4603H35.3755C35.5401 16.4556 35.7002 16.4508 35.8603 16.4556ZM40.0537 28.7517C40.3917 28.3744 40.8675 28.148 41.499 28.0914L46.9376 28.9168C48.1205 29.096 49.2722 29.478 49.3523 31.0251C49.379 31.5486 49.2634 32.1476 49.1878 32.9023L49.1477 33.3126C48.9921 34.8313 48.5919 34.6568 47.4179 35.2653C50.3529 40.3686 53.737 45.7644 54.782 51.8157C55.0133 53.0609 54.2617 53.8769 52.772 54.3768L50.1083 54.9051C50.3706 51.6176 49.5524 48.1604 47.8136 44.5616C48.2895 48.6651 48.7653 52.6647 48.1338 55.0277L45.3945 55.5749C44.9987 54.2495 44.6741 53.226 44.1138 52.8015L43.4779 55.339L38.8664 55.0985C40.5251 52.41 41.5435 49.5093 41.8147 46.3539C40.3695 49.7593 38.7641 52.2827 36.9631 53.792C36.1182 54.7117 35.38 54.9004 34.7485 54.3108C34.2994 53.891 34.3705 53.6316 34.4639 53.0185C34.584 52.2261 34.8819 51.4101 35.2955 50.5941C34.3661 51.7025 33.7791 51.9714 33.2543 52.561C31.7735 54.2448 29.2121 53.9854 28.803 51.6507C28.5406 50.1555 29.4789 49.6744 30.4305 48.6179L32.0848 46.7832C30.2304 48.0142 28.3716 49.1933 26.4994 49.9338C24.3471 50.7875 24.3382 50.6979 22.3638 49.6131C19.7045 48.1557 17.7256 46.4907 21.4255 45.4861C28.2382 43.1089 34.8819 40.312 40.116 34.0154C39.5646 33.6616 39.2622 33.2041 39.1688 32.6664C39.022 31.8646 39.5201 29.346 40.0537 28.7517ZM47.4357 2.79164L43.3978 24.4879C43.0243 28.1197 47.0088 28.4498 47.6402 24.8794L51.5891 3.1501C51.4957 0.122058 48.2628 -0.54298 47.4357 2.79164Z" fill="#696969"/>
</g>
<defs>
<clipPath id="clip0_43_1052">
<rect width="54.6441" height="55" fill="white" transform="translate(0.177979 0.570068)"/>
</clipPath>
</defs>
</svg>
