<svg width="63" height="54" viewBox="0 0 63 54" fill="none" xmlns="http://www.w3.org/2000/svg">
<g clip-path="url(#clip0_43_1092)">
<path fill-rule="evenodd" clip-rule="evenodd" d="M31.7413 0.874512H50.3595C50.575 0.874512 50.7506 1.04094 50.7506 1.24409V3.63372C50.7506 3.83802 50.575 4.00445 50.3595 4.00445H47.5622V7.6107H45.9178V4.00445H36.3611V7.6107H34.7154V4.00445H31.7413C31.527 4.00445 31.3514 3.83802 31.3514 3.63372V1.24409C31.3517 1.14616 31.3929 1.05234 31.466 0.983093C31.539 0.913849 31.638 0.874814 31.7413 0.874512ZM2.15934 11.3811C1.08402 11.3811 0.210938 10.5536 0.210938 9.53434C0.210938 8.51513 1.08402 7.6876 2.15934 7.6876H9.92023C13.725 7.6876 16.8686 9.13722 19.0991 11.4844C21.3902 13.8981 22.6787 17.2496 22.6787 20.9178V36.4653C21.475 35.9936 20.1587 35.7262 18.7831 35.7078V20.9178C18.7831 18.162 17.8555 15.6863 16.2074 13.9509C14.6986 12.3624 12.5468 11.3811 9.92023 11.3811H2.15934ZM57.6881 45.7622C58.195 46.5558 58.4622 47.4662 58.4607 48.394C58.4607 51.2048 56.057 53.4831 53.0902 53.4831C50.1258 53.4831 47.7209 51.2048 47.7209 48.394C47.7209 47.431 48.0042 46.53 48.4934 45.7622H29.2371V45.7495C29.2371 44.4503 28.9768 43.2096 28.5021 42.0698H60.2625C61.3379 42.0698 62.2109 42.8974 62.2109 43.9166C62.2109 44.9358 61.3379 45.7622 60.2625 45.7622H57.6881ZM18.6438 37.6234C23.3786 37.6234 27.2161 41.2618 27.2161 45.7495C27.2161 50.2361 23.3786 53.8745 18.6438 53.8745C13.9091 53.8745 10.0716 50.2361 10.0716 45.7495C10.0716 41.2618 13.9091 37.6234 18.6438 37.6234ZM18.6426 42.537C20.5147 42.537 22.032 43.9751 22.032 45.7495C22.032 47.5228 20.5147 48.9598 18.6426 48.9598C16.7717 48.9598 15.2544 47.5228 15.2544 45.7495C15.2544 43.9751 16.7717 42.537 18.6426 42.537ZM53.0902 46.0204C54.4246 46.0204 55.5072 47.0465 55.5072 48.3113C55.5072 49.5762 54.4246 50.6023 53.0902 50.6023C51.7557 50.6023 50.6731 49.5762 50.6731 48.3113C50.6731 47.0465 51.7557 46.0204 53.0902 46.0204ZM30.8719 8.77567H51.2289C53.2427 8.77567 54.8908 10.3389 54.8908 12.2465V35.1029C54.8908 37.0105 53.2415 38.5738 51.2289 38.5738H30.8719C28.8593 38.5738 27.21 37.0117 27.21 35.1029V12.2465C27.21 10.3378 28.8581 8.77567 30.8719 8.77567ZM32.0307 18.6877H50.0701V20.4461H32.0307V18.6877ZM38.3543 9.78914H43.7478V13.8293C43.7478 14.1219 43.4935 14.3618 43.1847 14.3618H38.9161C38.6073 14.3618 38.3543 14.1219 38.3543 13.8281V9.78914ZM32.0307 31.1053H50.0701V32.8637H32.0307V31.1053ZM32.0307 24.8971H50.0701V26.6543H32.0307V24.8971Z" fill="#696969"/>
</g>
<defs>
<clipPath id="clip0_43_1092">
<rect width="62" height="53" fill="white" transform="translate(0.210938 0.874512)"/>
</clipPath>
</defs>
</svg>
