<svg width="49" height="49" viewBox="0 0 49 49" fill="none" xmlns="http://www.w3.org/2000/svg">
<g clip-path="url(#clip0_43_1214)">
<path d="M39.6724 0.299316H10.1332C7.08037 0.299316 4.59877 2.77612 4.59877 5.83372V42.7553C4.59877 45.8225 7.07557 48.2993 10.1332 48.2993H39.6724C42.7348 48.2993 45.2164 45.8225 45.2164 42.7553V5.83372C45.2164 2.77612 42.7348 0.299316 39.6724 0.299316ZM29.5252 3.76972C31.1764 3.76972 32.5156 5.11372 32.5156 6.76012C32.5156 8.40652 31.1716 9.75052 29.5252 9.75052C27.8644 9.75052 26.5348 8.40652 26.5348 6.76012C26.5348 5.11372 27.874 3.76972 29.5252 3.76972ZM24.9076 39.1745C17.7124 39.1745 11.8708 33.3425 11.8708 26.1425C11.8708 18.9473 17.7124 13.1153 24.9076 13.1153C32.1028 13.1153 37.93 18.9473 37.93 26.1377C37.93 33.3425 32.098 39.1745 24.9076 39.1745ZM38.7556 9.75532C37.0948 9.75532 35.7652 8.41132 35.7652 6.76492C35.7652 5.11852 37.1092 3.77452 38.7556 3.77452C40.402 3.77452 41.746 5.11852 41.746 6.76492C41.746 8.41132 40.402 9.75532 38.7556 9.75532ZM24.9076 15.4145C18.9748 15.4145 14.17 20.2193 14.17 26.1425C14.17 32.0753 18.9748 36.8705 24.9076 36.8705C30.8308 36.8705 35.6308 32.0657 35.6308 26.1425C35.6356 20.2193 30.8308 15.4145 24.9076 15.4145ZM24.9076 17.2625C29.5348 17.2625 33.3028 20.8241 33.706 25.3457C30.418 23.5889 28.8292 26.0753 24.9076 26.0753C20.9476 26.0753 19.8052 23.3681 16.0996 25.3457C16.5076 20.8337 20.2852 17.2625 24.9076 17.2625Z" fill="#313131"/>
</g>
<defs>
<clipPath id="clip0_43_1214">
<rect width="48" height="48" fill="white" transform="translate(0.926773 0.299316)"/>
</clipPath>
</defs>
</svg>
