<svg width="404" height="136" viewBox="0 0 404 136" fill="none" xmlns="http://www.w3.org/2000/svg">
<path d="M62.8661 10.7346C63.1878 10.7346 63.5094 10.7346 63.8408 10.7346C63.7353 11.0343 63.6297 11.334 63.521 11.6427C63.3853 12.0367 63.2496 12.4306 63.1098 12.8364C62.9741 13.2265 62.8384 13.6167 62.6986 14.0186C62.3109 15.1637 62.3109 15.1637 62.3788 16.583C62.5786 16.2664 62.7783 15.9498 62.9842 15.6235C63.2467 15.2164 63.5093 14.8093 63.7799 14.3899C64.04 13.9828 64.3 13.5757 64.568 13.1562C64.8105 12.8396 65.053 12.523 65.3028 12.1967C65.6244 12.1967 65.9461 12.1967 66.2775 12.1967C65.4555 14.3889 64.4174 16.4509 63.3535 18.5325C63.5143 18.6933 63.6751 18.8541 63.8408 19.0198C64.1847 18.7475 64.1847 18.7475 64.5356 18.4697C64.8391 18.2391 65.1425 18.0085 65.4551 17.771C65.7547 17.5392 66.0544 17.3073 66.3631 17.0685C66.8032 16.8282 66.8032 16.8282 67.2521 16.583C67.7346 16.7439 68.2171 16.9047 68.7141 17.0704C67.7492 17.7137 66.7843 18.357 65.7901 19.0198C66.7551 18.859 67.72 18.6982 68.7141 18.5325C68.9554 19.015 68.9554 19.015 69.2015 19.5072C68.0757 19.9897 66.95 20.4722 65.7901 20.9693C66.7551 21.4518 67.72 21.9343 68.7141 22.4314C68.4729 23.1551 68.4729 23.1551 68.2268 23.8935C67.865 23.7226 67.5031 23.5517 67.1303 23.3757C65.7021 22.7535 65.7021 22.7535 63.8408 23.4061C63.5192 25.6578 63.1975 27.9094 62.8661 30.2292C62.062 30.5509 61.2579 30.8726 60.4295 31.204C59.5996 31.831 58.7825 32.4765 57.9928 33.1534C58.4752 34.1184 58.4752 34.1184 58.9675 35.1029C58.0025 34.942 57.0376 34.7812 56.0435 34.6155C57.0804 35.7562 58.0491 36.4222 59.4548 37.0523C59.4548 36.7307 59.4548 36.409 59.4548 36.0776C60.8606 36.7078 61.9541 37.2549 62.8661 38.5144C63.323 40.1593 63.323 40.1593 63.3535 41.926C62.3617 43.52 61.5057 44.2951 59.9421 45.3375C58.6421 45.4599 57.3763 45.5416 56.0739 45.5812C52.9939 45.6261 52.9939 45.6261 50.1954 46.7996C50.4988 48.8373 51.6413 50.3887 52.7539 52.0693C53.0545 52.5257 53.0545 52.5257 53.3611 52.9914C53.7555 53.5887 54.1511 54.1852 54.5479 54.7809C54.9656 55.4155 55.3674 56.0606 55.7636 56.7087C58.294 60.7002 63.2777 61.5856 67.5263 62.9131C77.6556 66.1978 87.8142 70.3546 95.2377 78.2461C97.0749 79.9694 98.9975 80.9322 101.518 80.8847C103.254 80.2792 103.965 79.6147 104.777 77.991C104.874 76.1757 104.945 74.3635 104.986 72.5462C105.096 69.7704 105.502 67.6054 107.474 65.4927C110.302 63.3301 111.989 63.149 115.498 63.37C117.438 63.8955 117.773 64.1019 118.91 65.8068C118.727 66.873 118.727 66.873 118.422 67.7563C116.443 68.2362 114.604 68.2437 112.574 68.2437C111.055 68.5587 111.055 68.5587 110.625 69.7058C110.574 70.4013 110.549 71.0988 110.539 71.7961C110.528 72.2151 110.516 72.6342 110.504 73.0659C110.483 73.9415 110.468 74.8173 110.458 75.6931C110.346 79.217 109.57 81.8061 107.196 84.4619C106.87 84.7289 106.544 84.9959 106.208 85.271C105.881 85.5468 105.554 85.8226 105.217 86.1067C102.923 87.7315 100.153 87.5611 97.4669 87.2509C94.1246 86.1139 91.4656 84.0134 88.6948 81.8899C90.8456 88.6133 92.8785 94.6255 98.1046 99.6063C102.237 103.634 104.391 108.86 104.533 114.635C104.508 117.182 104.508 117.182 103.623 118.338C101.718 119.755 99.9729 119.985 97.6801 119.691C97.1194 119.608 97.1194 119.608 96.5474 119.524C95.3164 119.396 94.2845 119.656 93.0809 119.904C92.5984 119.583 92.1159 119.261 91.6188 118.93C90.6481 118.848 90.6481 118.848 89.6391 118.93C89.0058 118.93 88.3726 118.93 87.7202 118.93C86.7455 117.955 86.7455 117.955 86.4714 116.676C86.8844 114.197 88.3587 112.815 90.1568 111.132C91.5884 110.157 91.5884 110.157 92.5935 109.67C92.6763 108.524 92.6763 108.524 92.1062 107.233C90.8137 106.258 89.3788 105.577 87.9334 104.857C83.3469 102.438 80.2163 100.118 77.2196 95.8616C76.1906 94.6804 75.0966 94.3615 73.5875 94.074C73.5875 94.3957 73.5875 94.7173 73.5875 95.0487C72.1851 95.9837 70.7189 96.7549 69.2015 97.4855C70.188 99.7183 71.3071 101.195 73.1001 102.847C73.5875 103.334 73.5875 103.334 73.7779 104.644C73.5273 106.768 72.4961 107.749 71.029 109.182C68.8868 111.341 66.8727 113.431 65.7901 116.34C65.1762 117.76 64.6899 118.149 63.3535 118.93C61.684 119.179 61.684 119.179 59.7898 119.265C59.1685 119.297 58.5472 119.329 57.9071 119.362C52.4765 119.523 52.4765 119.523 49.7081 118.442C49.4957 116.318 49.5918 115.237 50.6523 113.355C52.2628 112.008 52.3548 111.972 54.2769 112.106C56.0948 112.227 56.9613 112.042 58.3887 110.888C60.4257 108.879 61.6865 106.699 62.0971 103.863C61.812 101.778 60.9092 101.132 59.3634 99.7396C57.1718 97.693 55.4977 95.7615 54.0941 93.0993C54.0941 92.7776 54.0941 92.4559 54.0941 92.1245C52.7499 91.7771 52.7499 91.7771 51.1701 92.1245C50.0134 93.3578 49.2459 94.7945 48.4289 96.2671C48.2027 96.6529 47.9765 97.0386 47.7435 97.436C44.6647 102.742 42.5219 107.555 42.1849 113.782C42.0626 115.486 41.9398 116.434 41.1798 117.985C37.8094 120.598 34.5063 120.505 30.3766 120.158C28.7716 119.907 27.3502 119.491 25.8287 118.93C25.8287 118.608 25.8287 118.286 25.8287 117.955C25.3463 117.794 24.8638 117.633 24.3667 117.467C24.2167 115.817 24.144 114.868 25.0977 113.477C26.266 112.63 26.9149 112.411 28.2654 112.046C29.46 111.616 30.0638 111.347 30.7973 110.3C31.3504 108.973 31.7567 107.638 32.1641 106.258C32.4065 105.52 32.6503 104.782 32.8951 104.044C34.5461 98.9468 35.6298 94.0584 36.0628 88.713C35.7084 88.6533 35.3541 88.5936 34.9891 88.5321C30.6729 87.5615 27.4704 84.9113 24.3667 81.8899C23.3811 82.2505 23.3811 82.2505 22.4174 82.8646C22.0184 84.6006 22.0184 84.6006 21.9301 86.2762C22.3522 86.3164 22.7744 86.3566 23.2093 86.398C25.1689 86.8335 26.2578 87.3999 27.7781 88.713C28.4177 90.3883 28.4177 90.3883 28.7527 92.1245C28.8533 92.597 28.9538 93.0694 29.0573 93.5562C29.1176 93.8879 29.1779 94.2196 29.2401 94.5614C28.9285 94.6719 28.6169 94.7825 28.2959 94.8964C27.1623 95.4558 27.1623 95.4558 26.9862 96.7545C26.9258 97.1566 26.8655 97.5587 26.8034 97.9729C25.5095 99.2669 24.8299 99.108 23.0266 99.1304C20.4414 99.0749 18.9865 98.8361 17.0567 96.9982C13.5522 93.1411 10.8858 88.5934 11.0222 83.3016C11.3439 80.867 12.365 78.8686 13.4931 76.7116C13.7051 76.2844 13.9171 75.8572 14.1356 75.4171C14.9634 73.7639 15.7993 72.1277 16.749 70.5408C18.3757 67.8187 19.1123 65.3347 19.6152 62.2125C19.6956 61.748 19.776 61.2834 19.8588 60.8048C20.3575 57.7507 20.6283 54.7333 20.7422 51.6428C21.0441 43.5357 23.4452 36.4898 28.7527 30.2292C28.2038 29.0927 27.6524 28.1003 26.9252 27.0614C26.7242 26.6593 26.5232 26.2572 26.3161 25.843C26.6377 25.1996 26.9594 24.5563 27.2907 23.8935C29.3814 24.0543 31.4721 24.2152 33.6261 24.3809C33.3849 23.4159 33.3849 23.4159 33.1387 22.4314C33.4158 22.4484 33.6928 22.4653 33.9783 22.4828C36.694 22.578 38.4431 22.1453 40.9361 20.9693C42.9604 20.4834 44.2884 20.5489 46.2968 20.9693C49.1082 21.1709 51.6259 20.8206 54.3663 20.2116C56.0887 19.8974 57.7084 19.9299 59.4548 19.9946C59.2136 19.5573 59.2136 19.5573 58.9675 19.1112C58.4801 18.0451 58.4801 18.0451 58.4801 16.583C58.8018 16.583 59.1234 16.583 59.4548 16.583C59.696 17.0655 59.696 17.0655 59.9421 17.5578C60.0715 17.1877 60.2009 16.8177 60.3343 16.4364C60.5064 15.9521 60.6785 15.4677 60.8559 14.9686C61.0255 14.488 61.1951 14.0074 61.3699 13.5122C61.8915 12.1967 61.8915 12.1967 62.8661 10.7346ZM52.1448 21.944C53.4491 23.0089 53.4491 23.0089 54.5814 22.9188C54.5814 22.5971 54.5814 22.2754 54.5814 21.944C53.7773 21.944 52.9732 21.944 52.1448 21.944ZM40.1442 23.9849C39.2687 25.139 39.3595 25.8912 39.4741 27.305C39.7957 27.1442 40.1174 26.9834 40.4488 26.8177C40.6213 26.1705 40.7827 25.5202 40.9361 24.8682C41.2577 24.3857 41.5794 23.9032 41.9108 23.4061C40.9038 23.3103 40.9038 23.3103 40.1442 23.9849ZM43.8601 24.3809C43.6993 24.7025 43.5385 25.0242 43.3728 25.3556C44.8201 25.0339 46.2675 24.7123 47.7588 24.3809C47.598 24.0592 47.4371 23.7375 47.2714 23.4061C45.2996 23.2259 45.2996 23.2259 43.8601 24.3809ZM58.9675 23.8935C60.4295 24.5433 60.4295 24.5433 61.8915 23.8935C61.7306 24.2152 61.5698 24.5368 61.4041 24.8682C60.1553 25.1728 60.1553 25.1728 58.9675 25.3556C58.9675 25.5164 58.9675 25.6772 58.9675 25.843C59.9419 25.8637 60.917 25.8628 61.8915 25.843C62.5232 25.3232 62.5232 25.3232 62.4093 24.1067C62.3992 23.7147 62.3892 23.3227 62.3788 22.9188C61.0891 22.9188 60.1464 23.3971 58.9675 23.8935ZM48.7334 24.3809C49.0551 24.7025 49.3767 25.0242 49.7081 25.3556C49.8689 25.0339 50.0297 24.7123 50.1954 24.3809C49.713 24.3809 49.2305 24.3809 48.7334 24.3809ZM50.6828 24.8682C50.8436 25.3507 51.0044 25.8332 51.1701 26.3303C51.1701 25.8478 51.1701 25.3653 51.1701 24.8682C51.0093 24.8682 50.8485 24.8682 50.6828 24.8682ZM47.2714 25.3556C47.1106 25.8381 46.9498 26.3206 46.7841 26.8177C47.2666 26.6569 47.749 26.496 48.2461 26.3303C47.9245 26.0087 47.6028 25.687 47.2714 25.3556ZM56.0435 25.843C56.2043 26.1646 56.3651 26.4863 56.5308 26.8177C56.6916 26.496 56.8524 26.1744 57.0181 25.843C56.6965 25.843 56.3748 25.843 56.0435 25.843ZM56.5308 26.8177C56.6514 27.2499 56.772 27.6821 56.8963 28.1275C57.0181 29.7419 57.0181 29.7419 56.0739 31.143C55.5764 31.6557 55.5764 31.6557 55.0688 32.1787C55.7925 32.6612 55.7925 32.6612 56.5308 33.1534C56.5308 32.6709 56.5308 32.1884 56.5308 31.6913C56.9529 31.631 56.9529 31.631 57.3836 31.5695C58.7803 31.1039 59.4543 30.3342 60.4295 29.2545C60.2686 28.9328 60.1078 28.6112 59.9421 28.2798C58.9555 27.9619 58.9555 27.9619 57.9928 27.7924C57.9928 27.4707 57.9928 27.1491 57.9928 26.8177C57.5103 26.8177 57.0279 26.8177 56.5308 26.8177ZM61.4041 26.8177C60.9217 27.5414 60.9217 27.5414 60.4295 28.2798C60.9119 28.4406 61.3944 28.6014 61.8915 28.7671C61.7306 28.1238 61.5698 27.4805 61.4041 26.8177ZM40.4488 27.305C40.7704 27.6267 41.092 27.9484 41.4234 28.2798C41.4234 27.9581 41.4234 27.6365 41.4234 27.305C41.1018 27.305 40.7801 27.305 40.4488 27.305ZM31.1894 27.7924C31.6096 28.873 31.6096 28.873 32.8037 29.3459C34.1766 29.761 34.7703 29.8546 36.0628 29.2545C36.2236 28.772 36.3844 28.2895 36.5501 27.7924C34.7811 27.7924 33.012 27.7924 31.1894 27.7924ZM43.8601 28.2798C43.6993 28.9231 43.5385 29.5664 43.3728 30.2292C44.4985 31.1942 45.6242 32.1592 46.7841 33.1534C47.1057 32.8318 47.4274 32.5101 47.7588 32.1787C46.9547 31.3745 46.1506 30.5704 45.3221 29.7419C45.8548 29.762 46.3875 29.7821 46.9364 29.8028C48.7768 29.8982 48.7768 29.8982 50.1954 28.7671C48.1048 28.6063 46.0141 28.4455 43.8601 28.2798ZM40.9361 28.7671C40.6231 31.7082 40.6231 31.7082 42.1544 34.1281C42.7575 34.6106 42.7575 34.6106 43.3728 35.1029C43.5336 34.6204 43.6944 34.1379 43.8601 33.6408C43.5485 33.4699 43.2369 33.299 42.9159 33.123C41.5103 31.8025 41.5647 30.6393 41.4234 28.7671C41.2626 28.7671 41.1018 28.7671 40.9361 28.7671ZM29.7274 32.6661C28.1864 34.6567 27.5623 36.9844 27.7781 39.4892C28.4609 40.3555 28.4609 40.3555 29.2401 40.9513C30.0442 40.6296 30.8483 40.3079 31.6767 39.9765C31.727 40.4289 31.7773 40.8812 31.829 41.3472C32.0646 42.8553 32.0646 42.8553 32.7428 43.845C34.0847 44.6317 35.0907 44.2322 36.5501 43.8754C36.2485 43.7347 35.947 43.594 35.6363 43.449C34.6008 42.9007 34.6008 42.9007 33.6261 41.926C33.3177 40.8713 33.3177 40.8713 33.0778 39.6719C32.9962 39.2736 32.9145 38.8753 32.8304 38.4649C32.7713 38.1596 32.7123 37.8543 32.6514 37.5397C31.8473 37.5397 31.0432 37.5397 30.2147 37.5397C30.2147 35.9314 30.2147 34.3231 30.2147 32.6661C30.0539 32.6661 29.8931 32.6661 29.7274 32.6661ZM51.6574 32.6661C51.6072 32.9576 51.5569 33.2491 51.5052 33.5494C51.1701 34.6155 51.1701 34.6155 50.4087 35.3161C49.572 36.0666 49.572 36.0666 49.6167 37.3874C49.6469 37.7593 49.677 38.1312 49.7081 38.5144C50.9243 38.1337 50.9243 38.1337 52.1448 37.5397C52.709 35.847 52.6656 34.4397 52.6321 32.6661C52.3105 32.6661 51.9888 32.6661 51.6574 32.6661ZM45.8094 33.6408C45.0079 34.8413 45.0079 34.8413 44.3474 36.0776C44.6691 36.3993 44.9907 36.7209 45.3221 37.0523C46.9707 36.9656 47.6431 36.6681 48.8857 35.5598C49.1571 35.2482 49.4285 34.9366 49.7081 34.6155C49.5473 34.2939 49.3865 33.9722 49.2208 33.6408C48.8991 33.9624 48.5775 34.2841 48.2461 34.6155C47.2105 34.9201 47.2105 34.9201 46.2968 35.1029C46.4576 34.6204 46.6184 34.1379 46.7841 33.6408C46.4625 33.6408 46.1408 33.6408 45.8094 33.6408ZM42.3981 35.1029C41.9014 36.9993 41.829 37.835 42.6113 39.6719C42.8626 40.0941 43.1139 40.5163 43.3728 40.9513C43.6944 40.7904 44.016 40.6296 44.3474 40.4639C44.0258 39.9814 43.7042 39.4989 43.3728 39.0018C43.11 37.7053 43.0152 36.4224 42.8854 35.1029C42.7246 35.1029 42.5638 35.1029 42.3981 35.1029ZM52.6321 37.5397C52.6321 38.6655 52.6321 39.7913 52.6321 40.9513C55.1791 42.4487 55.1791 42.4487 57.9928 42.4133C59.236 41.3678 60.3284 40.2171 61.4041 39.0018C61.0825 38.6801 60.7608 38.3585 60.4295 38.0271C60.1128 38.4945 60.1128 38.4945 59.7898 38.9713C58.9675 39.9765 58.9675 39.9765 57.5055 40.4639C57.5055 40.7856 57.5055 41.1072 57.5055 41.4386C55.3344 40.9561 55.3344 40.9561 53.1194 40.4639C53.1194 39.4989 53.1194 38.5339 53.1194 37.5397C52.9586 37.5397 52.7978 37.5397 52.6321 37.5397ZM38.0121 39.4892C38.1729 40.2933 38.3337 41.0975 38.4994 41.926C39.4643 42.1672 39.4643 42.1672 40.4488 42.4133C40.4488 41.9309 40.4488 41.4484 40.4488 40.9513C39.9663 40.7904 39.4838 40.6296 38.9868 40.4639C38.6651 40.1422 38.3435 39.8206 38.0121 39.4892ZM24.8541 41.926C24.2224 44.9908 24.2224 44.9908 25.3414 47.7744C26.1455 47.6135 26.9496 47.4527 27.7781 47.287C27.758 47.8901 27.7379 48.4932 27.7172 49.1146C27.7115 50.7065 27.8478 51.7779 28.7527 53.1354C30.4804 52.4542 30.4804 52.4542 32.1641 51.6733C32.2847 52.1357 32.4053 52.598 32.5296 53.0744C33.0039 54.5994 33.0039 54.5994 34.022 55.359C35.1311 55.6784 35.1311 55.6784 36.3064 55.1153C37.9273 53.778 38.5877 52.6078 39.4741 50.6985C39.3133 50.2161 39.1525 49.7336 38.9868 49.2365C38.7154 49.6285 38.444 50.0205 38.1644 50.4244C36.9309 51.7914 36.3913 52.0114 34.6008 52.1606C34.2791 50.7132 33.9575 49.2657 33.6261 47.7744C33.1637 48.1764 32.7014 48.5785 32.225 48.9928C30.8239 50.2112 30.8239 50.2112 29.7274 50.2112C29.1679 49.092 29.0901 48.2242 28.9659 46.9824C28.9047 46.3849 28.9047 46.3849 28.8422 45.7754C28.8127 45.4701 28.7832 45.1647 28.7527 44.8502C28.1095 45.011 27.4662 45.1718 26.8034 45.3375C26.3209 44.2117 25.8385 43.0859 25.3414 41.926C25.1806 41.926 25.0198 41.926 24.8541 41.926ZM48.2461 41.926C47.4133 42.7172 46.6016 43.531 45.8094 44.3628C45.8094 44.6845 45.8094 45.0061 45.8094 45.3375C45.0053 45.3375 44.2012 45.3375 43.3728 45.3375C43.2119 45.0159 43.0511 44.6942 42.8854 44.3628C42.6868 46.4377 42.6868 46.4377 43.6164 48.2008C43.8577 48.3817 44.0989 48.5627 44.3474 48.7491C46.6038 47.2447 47.8814 45.457 48.7334 42.9007C48.5726 42.5791 48.4118 42.2574 48.2461 41.926ZM40.4488 42.4133C40.4488 43.2175 40.4488 44.0217 40.4488 44.8502C41.2529 44.5285 42.057 44.2068 42.8854 43.8754C42.7246 43.5538 42.5638 43.2321 42.3981 42.9007C41.4114 42.5829 41.4114 42.5829 40.4488 42.4133ZM23.8794 51.6733C24.0402 52.1558 24.201 52.6383 24.3667 53.1354C24.6884 53.1354 25.01 53.1354 25.3414 53.1354C25.663 54.1004 25.9847 55.0653 26.3161 56.0596C26.6377 56.0596 26.9594 56.0596 27.2907 56.0596C27.2907 56.3812 27.2907 56.7029 27.2907 57.0343C27.6124 56.8735 27.934 56.7126 28.2654 56.5469C27.9062 55.9138 27.5391 55.2851 27.1689 54.6584C26.9654 54.3078 26.7618 53.9573 26.5521 53.5961C25.7511 52.5463 25.0901 52.1648 23.8794 51.6733ZM40.4488 56.0596C38.9423 57.3643 37.6901 59.0404 37.0374 60.9332C37.1982 61.4157 37.3591 61.8982 37.5248 62.3953C37.5248 62.0736 37.5248 61.752 37.5248 61.4206C38.0072 61.5814 38.4897 61.7422 38.9868 61.9079C38.9868 61.2646 38.9868 60.6213 38.9868 59.9585C39.3084 59.9585 39.63 59.9585 39.9614 59.9585C39.9614 59.6368 39.9614 59.3152 39.9614 58.9837C40.4439 59.1446 40.9263 59.3054 41.4234 59.4711C41.4234 59.1494 41.4234 58.8278 41.4234 58.4964C41.7451 58.3355 42.0667 58.1747 42.3981 58.009C42.3981 57.6874 42.3981 57.3657 42.3981 57.0343C42.8806 57.0343 43.363 57.0343 43.8601 57.0343C43.8601 56.7126 43.8601 56.391 43.8601 56.0596C44.3426 56.0596 44.825 56.0596 45.3221 56.0596C45.3221 55.7379 45.3221 55.4162 45.3221 55.0848C45.9654 54.924 46.6087 54.7632 47.2714 54.5975C44.7493 53.7062 42.6906 54.8423 40.4488 56.0596ZM23.8794 57.0343C23.8794 57.5168 23.8794 57.9993 23.8794 58.4964C24.201 58.4964 24.5227 58.4964 24.8541 58.4964C24.9445 59.1749 24.9445 59.1749 25.0368 59.8671C25.2514 61.4884 25.2514 61.4884 26.3161 62.8827C26.1985 60.0858 26.1985 60.0858 24.8236 57.7653C24.512 57.5241 24.2004 57.2828 23.8794 57.0343ZM54.0941 58.009C54.5814 58.9837 54.5814 58.9837 54.5814 58.9837L54.0941 58.009ZM54.5814 58.9837C55.0639 62.522 55.5464 66.0603 56.0435 69.7058C56.2043 69.7058 56.3651 69.7058 56.5308 69.7058C56.5547 69.2892 56.5785 68.8727 56.6031 68.4436C56.6578 67.636 56.6578 67.636 56.7135 66.812C56.7475 66.2749 56.7814 65.7377 56.8163 65.1843C56.8829 64.7464 56.9495 64.3085 57.0181 63.8574C57.3398 63.6966 57.6614 63.5357 57.9928 63.37C58.4752 65.6216 58.9577 67.8733 59.4548 70.1931C59.6156 70.1931 59.7764 70.1931 59.9421 70.1931C59.9421 68.424 59.9421 66.6549 59.9421 64.8321C60.2638 64.8321 60.5854 64.8321 60.9168 64.8321C61.9459 69.4182 61.9459 69.4182 62.3788 71.6552C62.5396 71.6552 62.7004 71.6552 62.8661 71.6552C62.8661 69.7253 62.8661 67.7953 62.8661 65.8068C63.1878 65.8068 63.5094 65.8068 63.8408 65.8068C63.9379 66.3977 63.9379 66.3977 64.0369 67.0005C64.1229 67.5213 64.209 68.0421 64.2977 68.5787C64.3825 69.0933 64.4673 69.6078 64.5547 70.1379C64.7822 71.4615 65.032 72.7768 65.3028 74.092C65.4636 74.092 65.6244 74.092 65.7901 74.092C65.8852 73.0669 65.9757 72.0413 66.0643 71.0156C66.1151 70.4445 66.166 69.8734 66.2185 69.285C66.368 67.7415 66.368 67.7415 65.7901 66.2942C66.1118 66.455 66.4334 66.6159 66.7648 66.7816C67.1798 68.1085 67.1798 68.1085 67.5567 69.7362C67.7471 70.5438 67.7471 70.5438 67.9413 71.3678C68.0355 71.7843 68.1297 72.2008 68.2268 72.63C68.3876 72.63 68.5484 72.63 68.7141 72.63C68.875 70.8608 69.0358 69.0917 69.2015 67.2689C69.5231 67.2689 69.8448 67.2689 70.1761 67.2689C70.4978 68.3948 70.8194 69.5206 71.1508 70.6805C71.3116 70.6805 71.4725 70.6805 71.6381 70.6805C71.6381 69.8763 71.6381 69.0722 71.6381 68.2437C73.1001 69.2184 73.1002 69.2184 74.0748 70.6805C74.0748 70.0372 74.0748 69.3939 74.0748 68.731C74.5573 68.731 75.0397 68.731 75.5368 68.731C75.2152 68.0877 74.8935 67.4444 74.5622 66.7816C74.4013 67.1032 74.2405 67.4249 74.0748 67.7563C73.7532 67.7563 73.4315 67.7563 73.1001 67.7563C72.8589 67.0326 72.8589 67.0326 72.6128 66.2942C71.9695 66.2942 71.3263 66.2942 70.6635 66.2942C70.181 65.9726 69.6986 65.6509 69.2015 65.3195C69.2015 65.6411 69.2015 65.9628 69.2015 66.2942C68.3974 65.6509 67.5933 65.0076 66.7648 64.3448C66.2823 64.8272 65.7999 65.3097 65.3028 65.8068C64.9812 65.0027 64.6595 64.1985 64.3281 63.37C63.8457 63.8525 63.3632 64.335 62.8661 64.8321C62.062 64.028 61.2579 63.2238 60.4295 62.3953C60.4295 62.8778 60.4295 63.3603 60.4295 63.8574C60.1078 63.8574 59.7862 63.8574 59.4548 63.8574C59.3141 63.4654 59.1734 63.0733 59.0284 62.6694C58.6104 61.3559 58.6104 61.3559 57.5055 60.9332C57.5055 61.4157 57.5055 61.8982 57.5055 62.3953C57.1838 62.3953 56.8622 62.3953 56.5308 62.3953C56.3197 61.6866 56.3197 61.6866 56.1044 60.9637C55.7305 59.4191 55.7305 59.4191 54.5814 58.9837ZM21.9301 61.9079C21.9301 64.3204 21.9301 66.7328 21.9301 69.2184C21.4476 69.2184 20.9651 69.2184 20.4681 69.2184C20.5237 69.9296 20.5858 70.6402 20.6508 71.3506C20.6847 71.7464 20.7187 72.1422 20.7536 72.55C20.872 73.7038 20.872 73.7038 21.9301 74.5794C21.9301 74.2578 21.9301 73.9361 21.9301 73.6047C23.4607 74.6252 23.911 75.458 24.7646 77.0391C25.7407 78.6498 27 80.0146 28.2654 81.4025C28.7479 81.1613 28.7479 81.1613 29.2401 80.9152C28.9659 80.5335 28.9659 80.5335 28.6861 80.1441C24.6663 74.3621 22.9684 68.854 22.4174 61.9079C22.2566 61.9079 22.0958 61.9079 21.9301 61.9079ZM36.5501 62.3953C37.0374 63.37 37.0374 63.37 37.0374 63.37L36.5501 62.3953ZM38.2558 67.1471C37.8939 67.6899 37.8939 67.6899 37.5248 68.2437C37.6856 68.5653 37.8464 68.887 38.0121 69.2184C38.3337 69.0576 38.6554 68.8967 38.9868 68.731C39.1476 69.0527 39.3084 69.3744 39.4741 69.7058C39.4741 69.0624 39.4741 68.4191 39.4741 67.7563C39.7957 67.7563 40.1174 67.7563 40.4488 67.7563C40.6096 68.078 40.7704 68.3996 40.9361 68.731C40.9361 68.2485 40.9361 67.7661 40.9361 67.2689C41.2577 67.2689 41.5794 67.2689 41.9108 67.2689C41.9108 66.9473 41.9108 66.6256 41.9108 66.2942C42.3932 66.455 42.8757 66.6159 43.3728 66.7816C43.3728 66.4599 43.3728 66.1383 43.3728 65.8068C43.9055 65.7566 44.4382 65.7063 44.9871 65.6545C46.8132 65.3141 47.1056 65.1665 48.2461 63.8574C44.1238 63.5533 41.1196 63.9967 38.2558 67.1471ZM108.676 65.8068C108.676 66.4502 108.676 67.0935 108.676 67.7563C109.158 67.5955 109.64 67.4346 110.138 67.2689C109.977 66.7865 109.816 66.304 109.65 65.8068C109.329 65.8068 109.007 65.8068 108.676 65.8068ZM76.5115 68.2437C76.029 68.4849 76.029 68.4849 75.5368 68.731C75.6976 69.2135 75.8585 69.696 76.0242 70.1931C76.0242 69.8715 76.0242 69.5498 76.0242 69.2184C77.2303 70.1834 77.2303 70.1834 78.4608 71.1679C78.6216 70.5245 78.7825 69.8812 78.9482 69.2184C77.7831 68.6792 77.7831 68.6792 76.5115 68.2437ZM81.3848 70.6805C81.5457 71.163 81.7065 71.6455 81.8722 72.1426C81.8722 71.6601 81.8722 71.1776 81.8722 70.6805C81.7113 70.6805 81.5505 70.6805 81.3848 70.6805ZM106.726 70.6805C106.726 71.163 106.726 71.6455 106.726 72.1426C107.209 72.1426 107.691 72.1426 108.188 72.1426C108.027 71.6601 107.867 71.1776 107.701 70.6805C107.379 70.6805 107.058 70.6805 106.726 70.6805ZM79.9228 71.1679C80.4102 72.1426 80.4102 72.1426 80.4102 72.1426L79.9228 71.1679ZM38.469 74.4271C38.1574 74.799 37.8458 75.1709 37.5248 75.5541C37.6856 75.8758 37.8464 76.1975 38.0121 76.5289C38.4946 76.5289 38.977 76.5289 39.4741 76.5289C39.4741 76.2072 39.4741 75.8855 39.4741 75.5541C39.9566 75.715 40.439 75.8758 40.9361 76.0415C40.9361 75.559 40.9361 75.0765 40.9361 74.5794C41.4186 74.7402 41.901 74.9011 42.3981 75.0668C42.3981 74.5843 42.3981 74.1018 42.3981 73.6047C42.8806 73.7655 43.363 73.9263 43.8601 74.092C43.8601 73.7704 43.8601 73.4487 43.8601 73.1173C44.6642 73.2781 45.4683 73.439 46.2968 73.6047C46.2968 73.1222 46.2968 72.6397 46.2968 72.1426C46.6184 71.9818 46.9401 71.8209 47.2714 71.6552C44.0684 71.4088 40.7918 72.1041 38.469 74.4271ZM85.7708 73.1173C85.8822 73.8298 86.0066 74.5402 86.1363 75.2495C86.2042 75.6453 86.272 76.0411 86.3419 76.4489C86.6566 77.5899 86.6566 77.5899 87.7582 78.1318C88.0673 78.2462 88.3764 78.3605 88.6948 78.4783C89.0845 76.8764 89.2293 76.1827 88.6948 74.5794C87.4105 73.4049 87.4105 73.4049 85.7708 73.1173ZM56.5308 73.6047C56.2091 74.8913 55.8875 76.178 55.5561 77.5036C56.8049 76.3767 56.8049 76.3767 57.9928 75.0668C57.9928 74.5843 57.9928 74.1018 57.9928 73.6047C57.5103 73.6047 57.0279 73.6047 56.5308 73.6047ZM21.9301 74.5794C22.4174 76.0415 22.4174 76.0415 22.4174 76.0415L21.9301 74.5794ZM79.9228 74.5794C80.6465 75.0619 80.6465 75.0619 81.3848 75.5541C81.3848 75.2325 81.3848 74.9108 81.3848 74.5794C80.9024 74.5794 80.4199 74.5794 79.9228 74.5794ZM16.5694 75.0668C17.0518 75.308 17.0518 75.308 17.5441 75.5541C17.7049 75.8758 17.8657 76.1975 18.0314 76.5289C18.5125 77.1833 18.9992 77.8337 19.4934 78.4783C19.8698 77.583 19.8698 77.583 19.9807 76.5289C19.443 75.6255 19.443 75.6255 18.5187 75.0668C17.8754 75.0668 17.2322 75.0668 16.5694 75.0668ZM81.8722 75.0668C82.3595 76.0415 82.3595 76.0415 82.3595 76.0415L81.8722 75.0668ZM58.4801 75.5541C57.4073 76.7429 57.4073 76.7429 56.5308 77.991C57.0132 78.2322 57.0132 78.2322 57.5055 78.4783C58.4704 77.835 59.4353 77.1917 60.4295 76.5289C60.2686 76.2072 60.1078 75.8855 59.9421 75.5541C59.4597 75.5541 58.9772 75.5541 58.4801 75.5541ZM82.8468 75.5541C83.0077 76.0366 83.1685 76.5191 83.3342 77.0162C83.6558 76.8554 83.9775 76.6946 84.3088 76.5289C83.8264 76.2072 83.3439 75.8855 82.8468 75.5541ZM22.4174 76.0415C22.9047 77.0162 22.9047 77.0162 22.9047 77.0162L22.4174 76.0415ZM106.726 76.5289C106.726 76.8505 106.726 77.1722 106.726 77.5036C107.369 77.6644 108.013 77.8253 108.676 77.991C108.676 77.5085 108.676 77.026 108.676 76.5289C108.032 76.5289 107.389 76.5289 106.726 76.5289ZM22.9047 77.0162C23.3921 77.991 23.3921 77.991 23.3921 77.991L22.9047 77.0162ZM83.8215 77.5036C84.1431 77.8253 84.4648 78.1469 84.7962 78.4783C84.7962 78.1567 84.7962 77.835 84.7962 77.5036C84.4745 77.5036 84.1529 77.5036 83.8215 77.5036ZM19.9807 77.991C19.8199 78.4735 19.6591 78.9559 19.4934 79.4531C19.815 79.4531 20.1367 79.4531 20.4681 79.4531C20.3072 78.9706 20.1464 78.4881 19.9807 77.991ZM67.2521 77.991C67.7395 78.9657 67.7395 78.9657 67.7395 78.9657L67.2521 77.991ZM56.0435 79.9404C56.0435 80.1013 56.0435 80.2621 56.0435 80.4278C56.8353 80.4409 57.6273 80.4504 58.4192 80.4582C59.0807 80.4667 59.0807 80.4667 59.7556 80.4754C60.925 80.507 60.925 80.507 61.8915 79.9404C61.8915 79.4579 61.8915 78.9754 61.8915 78.4783C59.5756 78.2678 58.099 78.9731 56.0435 79.9404ZM93.0809 78.4783C93.0205 78.7899 92.9602 79.1015 92.8981 79.4226C92.7976 79.7543 92.6971 80.086 92.5935 80.4278C92.1111 80.669 92.1111 80.669 91.6188 80.9152C92.2621 81.3976 92.9054 81.8801 93.5682 82.3772C94.6735 81.0614 94.6735 81.0614 94.421 79.8795C94.1348 78.8704 94.1348 78.8704 93.0809 78.4783ZM15.1074 79.9404C16.6148 81.3912 16.6148 81.3912 18.5187 81.8899C18.3579 81.4074 18.1971 80.9249 18.0314 80.4278C16.584 80.1865 16.584 80.1865 15.1074 79.9404ZM38.0121 81.4025C39.8663 82.6387 40.2632 82.2853 42.3981 81.8899C43.5453 81.8879 44.6861 81.9192 45.8323 81.9679C46.9005 81.9837 46.9005 81.9837 47.7588 80.9152C44.63 80.0808 40.9282 79.8472 38.0121 81.4025ZM82.8468 80.4278C83.3342 81.4025 83.3342 81.4025 83.3342 81.4025L82.8468 80.4278ZM66.7648 80.9152C67.2521 82.3772 67.2521 82.3772 67.2521 82.3772L66.7648 80.9152ZM83.8215 80.9152C84.3088 81.8899 84.3088 81.8899 84.3088 81.8899L83.8215 80.9152ZM104.777 80.9152C104.294 81.6389 104.294 81.6389 103.802 82.3772C104.445 82.8597 105.089 83.3422 105.752 83.8393C106.073 83.196 106.395 82.5527 106.726 81.8899C106.083 81.5682 105.44 81.2466 104.777 80.9152ZM56.0435 81.4025C57.6172 83.0627 58.9867 83.7969 61.3128 83.9003C61.8404 83.8701 61.8404 83.8701 62.3788 83.8393C62.2488 82.872 62.2488 82.872 61.8915 81.8899C60.4869 81.4217 59.6017 81.3509 58.1451 81.3721C57.7512 81.3765 57.3573 81.3809 56.9515 81.3854C56.6518 81.391 56.3522 81.3967 56.0435 81.4025ZM19.0061 82.3772C19.4934 83.352 19.4934 83.352 19.4934 83.352L19.0061 82.3772ZM84.7962 82.3772C85.2835 83.352 85.2835 83.352 85.2835 83.352L84.7962 82.3772ZM98.4415 82.3772C98.2807 83.1814 98.1199 83.9855 97.9542 84.8141C99.1603 85.0553 99.1603 85.0553 100.391 85.3014C100.391 84.4973 100.391 83.6931 100.391 82.8646C99.7476 82.7038 99.1043 82.5429 98.4415 82.3772ZM55.5561 82.8646C56.326 84.4863 57.0777 85.6085 58.4801 86.7635C59.1234 86.7635 59.7667 86.7635 60.4295 86.7635C59.7489 85.0584 59.1075 84.4686 57.4445 83.7175C57.0915 83.5542 56.7384 83.3908 56.3747 83.2225C56.1046 83.1044 55.8344 82.9863 55.5561 82.8646ZM55.0688 84.8141C55.2296 85.9399 55.3904 87.0657 55.5561 88.2256C56.521 88.4669 56.521 88.4669 57.5055 88.713C57.2412 86.863 56.4327 86.0461 55.0688 84.8141ZM79.4355 84.8141C79.7571 85.1357 80.0788 85.4574 80.4102 85.7888C80.4102 85.4671 80.4102 85.1455 80.4102 84.8141C80.0885 84.8141 79.7669 84.8141 79.4355 84.8141ZM53.6068 85.3014C53.446 86.5881 53.2851 87.8747 53.1194 89.2003C53.6019 89.3612 54.0844 89.522 54.5814 89.6877C54.4206 88.2402 54.2598 86.7928 54.0941 85.3014C53.9333 85.3014 53.7725 85.3014 53.6068 85.3014ZM38.9868 86.2762C38.8259 86.5978 38.6651 86.9195 38.4994 87.2509C40.5901 87.5726 42.6807 87.8942 44.8348 88.2256C43.6139 87.0047 42.5878 86.7387 40.9361 86.2762C40.2928 86.2762 39.6495 86.2762 38.9868 86.2762ZM20.4681 87.7383C20.4078 88.0398 20.3474 88.3414 20.2853 88.6521C19.9807 89.6877 19.9807 89.6877 19.0061 90.6624C19.4885 90.8233 19.971 90.9841 20.4681 91.1498C20.4681 91.6323 20.4681 92.1148 20.4681 92.6119C19.8248 92.6119 19.1815 92.6119 18.5187 92.6119C18.5187 93.0944 18.5187 93.5769 18.5187 94.074C18.0363 94.2348 17.5538 94.3957 17.0567 94.5614C18.2629 95.0439 18.2629 95.0439 19.4934 95.5361C19.6542 95.0536 19.815 94.5711 19.9807 94.074C19.8199 93.7523 19.6591 93.4307 19.4934 93.0993C20.4583 93.0993 21.4232 93.0993 22.4174 93.0993C22.5793 91.6359 22.5793 91.6359 21.6864 90.8147C21.4452 90.6037 21.2039 90.3926 20.9554 90.1751C21.4379 90.0142 21.9203 89.8534 22.4174 89.6877C22.0958 89.0444 21.7741 88.4011 21.4427 87.7383C21.1211 87.7383 20.7994 87.7383 20.4681 87.7383ZM87.2328 90.6624C84.8846 91.6038 84.8846 91.6038 83.3818 93.5029C83.0767 94.5379 83.0767 94.5379 82.8468 96.0235C83.1685 96.0235 83.4901 96.0235 83.8215 96.0235C84.0225 95.6716 84.2236 95.3198 84.4307 94.9573C85.4843 93.2639 86.6389 92.3699 88.2075 91.1498C87.8859 90.989 87.5642 90.8281 87.2328 90.6624ZM24.8541 92.6119C24.8541 92.9336 24.8541 93.2552 24.8541 93.5866C25.4973 93.7475 26.1406 93.9083 26.8034 94.074C26.4818 93.5915 26.1601 93.109 25.8287 92.6119C25.5071 92.6119 25.1855 92.6119 24.8541 92.6119ZM38.4994 92.6119C38.3386 92.9336 38.1778 93.2552 38.0121 93.5866C40.6656 94.3104 40.6656 94.3104 43.3728 95.0487C41.4055 93.0813 41.0665 92.8453 38.4994 92.6119ZM67.7395 92.6119C67.7395 92.7727 67.7395 92.9336 67.7395 93.0993C68.7044 93.0993 69.6693 93.0993 70.6635 93.0993C70.6635 92.9384 70.6635 92.7776 70.6635 92.6119C69.6986 92.6119 68.7336 92.6119 67.7395 92.6119ZM71.1508 93.0993C73.1001 93.5866 73.1001 93.5866 73.1001 93.5866L71.1508 93.0993ZM89.6695 95.5361C88.4207 96.663 88.4207 96.663 87.2328 97.9729C87.2328 98.4554 87.2328 98.9379 87.2328 99.435C87.5545 98.7917 87.8761 98.1484 88.2075 97.4855C88.69 97.4855 89.1724 97.4855 89.6695 97.4855C89.6695 97.1639 89.6695 96.8422 89.6695 96.5108C90.152 96.35 90.6344 96.1892 91.1315 96.0235C90.6491 95.8626 90.1666 95.7018 89.6695 95.5361ZM22.9047 96.0235C23.0656 96.3451 23.2264 96.6668 23.3921 96.9982C23.8745 96.8374 24.357 96.6765 24.8541 96.5108C24.2108 96.35 23.5675 96.1892 22.9047 96.0235ZM37.5248 97.9729C37.2031 98.2946 36.8815 98.6162 36.5501 98.9476C37.1587 99.1825 37.768 99.4157 38.3776 99.6482C38.7168 99.7783 39.0561 99.9083 39.4056 100.042C40.3954 100.391 41.3764 100.66 42.3981 100.897C40.7805 99.0843 40.7805 99.0843 38.6517 98.0034C38.0939 97.9883 38.0939 97.9883 37.5248 97.9729ZM99.9035 110.644C99.9035 110.966 99.9035 111.288 99.9035 111.619C99.2602 111.458 98.617 111.297 97.9542 111.132C97.7934 111.453 97.6326 111.775 97.4669 112.106C96.3043 111.826 95.1926 111.511 94.0555 111.132C94.0555 111.936 94.0555 112.74 94.0555 113.569C94.538 113.408 95.0204 113.247 95.5175 113.081C95.6783 113.725 95.8392 114.368 96.0049 115.031C96.4873 114.87 96.9698 114.709 97.4669 114.543C97.4669 114.222 97.4669 113.9 97.4669 113.569C97.7684 113.669 98.0699 113.77 98.3806 113.873C98.7224 113.933 99.0641 113.994 99.4162 114.056C100.531 113.16 100.531 113.16 100.452 111.802C100.432 111.42 100.412 111.038 100.391 110.644C100.23 110.644 100.069 110.644 99.9035 110.644ZM30.7021 112.106C30.3804 112.428 30.0588 112.75 29.7274 113.081C30.3707 113.081 31.014 113.081 31.6767 113.081C31.6767 112.76 31.6767 112.438 31.6767 112.106C31.3551 112.106 31.0335 112.106 30.7021 112.106ZM32.1641 113.081C32.1641 113.725 32.1641 114.368 32.1641 115.031C32.9682 114.87 33.7723 114.709 34.6008 114.543C34.2892 114.483 33.9776 114.423 33.6565 114.361C33.3248 114.26 32.9932 114.16 32.6514 114.056C32.4906 113.734 32.3298 113.413 32.1641 113.081ZM37.5248 113.081C37.5248 113.403 37.5248 113.725 37.5248 114.056C36.8815 113.895 36.2382 113.734 35.5754 113.569C35.5754 113.89 35.5754 114.212 35.5754 114.543C37.0228 114.785 37.0228 114.785 38.4994 115.031C38.1778 114.387 37.8561 113.744 37.5248 113.081ZM58.4801 113.569C58.9675 114.543 58.9675 114.543 58.9675 114.543L58.4801 113.569ZM63.3535 113.569C62.871 113.89 62.3885 114.212 61.8915 114.543C62.6956 114.543 63.4997 114.543 64.3281 114.543C64.0065 114.222 63.6849 113.9 63.3535 113.569ZM25.8287 115.031C26.3161 116.005 26.3161 116.005 26.3161 116.005L25.8287 115.031ZM27.7781 115.518C28.2654 117.467 28.2654 117.467 28.2654 117.467L27.7781 115.518ZM51.1701 115.518C51.6574 116.98 51.6574 116.98 51.6574 116.98L51.1701 115.518ZM88.2075 115.518C88.6948 116.493 88.6948 116.493 88.6948 116.493L88.2075 115.518ZM101.853 115.518C102.34 116.98 102.34 116.98 102.34 116.98L101.853 115.518ZM53.6068 116.005C54.0941 117.467 54.0941 117.467 54.0941 117.467L53.6068 116.005ZM56.5308 116.005C56.6916 116.488 56.8524 116.97 57.0181 117.467C57.1789 116.985 57.3398 116.503 57.5055 116.005C57.1838 116.005 56.8622 116.005 56.5308 116.005ZM60.9168 116.005C61.4041 117.467 61.4041 117.467 61.4041 117.467L60.9168 116.005ZM92.5935 116.005C93.0809 117.467 93.0809 117.467 93.0809 117.467L92.5935 116.005ZM97.4669 116.005C97.9542 117.955 97.9542 117.955 97.9542 117.955L97.4669 116.005ZM30.2147 116.493C30.3756 117.136 30.5364 117.779 30.7021 118.442C30.8629 117.799 31.0237 117.156 31.1894 116.493C30.8678 116.493 30.5461 116.493 30.2147 116.493ZM33.6261 116.493C33.7869 117.136 33.9477 117.779 34.1134 118.442C34.2742 117.799 34.4351 117.156 34.6008 116.493C34.2791 116.493 33.9575 116.493 33.6261 116.493Z" fill="white"/>
<path d="M332.362 70.1931C351.339 70.1931 370.315 70.1931 389.867 70.1931C389.867 73.5706 389.867 76.948 389.867 80.4278C387.133 80.4278 384.399 80.4278 381.583 80.4278C381.583 90.3993 381.583 100.371 381.583 110.644C377.562 110.644 373.542 110.644 369.399 110.644C369.399 100.673 369.399 90.7014 369.399 80.4278C363.931 80.4278 358.463 80.4278 352.83 80.4278C352.83 90.3993 352.83 100.371 352.83 110.644C348.809 110.644 344.789 110.644 340.646 110.644C340.646 100.673 340.646 90.7014 340.646 80.4278C337.913 80.4278 335.179 80.4278 332.362 80.4278C332.362 77.0504 332.362 73.6729 332.362 70.1931Z" fill="#D30001"/>
<path d="M219.3 70.1932C223.552 70.163 227.804 70.1329 232.184 70.1018C234.185 70.0818 234.185 70.0818 236.227 70.0614C237.295 70.0572 238.363 70.0534 239.432 70.0504C239.977 70.0429 240.523 70.0354 241.085 70.0277C245.926 70.0261 249.538 70.7867 253.092 74.1854C255.549 76.8624 255.836 79.8411 255.85 83.352C255.634 86.9981 254.09 89.1797 251.464 91.6372C250.655 92.2901 249.843 92.9403 249.028 93.5867C249.338 94.332 249.338 94.332 249.654 95.0923C250.419 96.9317 251.181 98.7721 251.943 100.613C252.273 101.41 252.604 102.207 252.936 103.004C253.411 104.148 253.885 105.292 254.358 106.437C254.507 106.795 254.656 107.152 254.81 107.52C255.85 110.046 255.85 110.046 255.85 111.132C251.187 111.132 246.523 111.132 241.718 111.132C240.283 107.904 238.947 104.71 237.697 101.415C237.52 100.955 237.343 100.495 237.16 100.02C236.993 99.5816 236.826 99.1428 236.654 98.6907C236.503 98.2949 236.352 97.8992 236.197 97.4914C235.87 96.5109 235.87 96.5109 235.87 95.5361C234.583 95.5361 233.297 95.5361 231.971 95.5361C231.971 100.683 231.971 105.829 231.971 111.132C227.79 111.132 223.608 111.132 219.3 111.132C219.3 97.622 219.3 84.1123 219.3 70.1932ZM231.971 79.4531C231.971 81.7047 231.971 83.9563 231.971 86.2762C237.041 86.4327 237.041 86.4327 241.748 84.7227C242.526 83.2194 242.121 82.0122 241.718 80.4278C240.233 79.4379 239.963 79.3329 238.301 79.3579C237.932 79.361 237.563 79.3642 237.182 79.3674C236.799 79.3756 236.417 79.3838 236.022 79.3922C235.634 79.3966 235.245 79.401 234.845 79.4055C233.887 79.417 232.929 79.4345 231.971 79.4531Z" fill="white"/>
<path d="M261.211 70.1931C265.302 70.1529 269.393 70.1127 273.608 70.0713C274.891 70.0535 276.174 70.0358 277.496 70.0175C278.524 70.0118 279.552 70.0068 280.581 70.0028C281.106 69.9928 281.63 69.9828 282.171 69.9725C285.914 69.9708 289.182 70.4846 291.989 73.1345C292.205 73.4605 292.422 73.7866 292.644 74.1225C292.983 74.6135 292.983 74.6135 293.33 75.1144C294.798 77.6694 294.551 80.4969 294.35 83.352C293.493 86.0741 291.67 87.5057 289.477 89.2004C289.999 89.4718 290.522 89.7432 291.06 90.0228C293.152 91.2482 294.447 92.3556 295.205 94.746C296.102 98.7122 295.869 102.318 293.984 105.954C289.992 110.611 286.845 110.62 280.705 111.132C274.272 111.132 267.839 111.132 261.211 111.132C261.211 97.622 261.211 84.1123 261.211 70.1931ZM272.907 79.9404C272.907 81.5487 272.907 83.157 272.907 84.8141C276.029 84.9157 278.721 84.8912 281.679 83.8393C281.84 82.8744 282.001 81.9094 282.167 80.9152C280.319 79.6832 278.848 79.8311 276.714 79.8795C276.167 79.8861 276.167 79.8861 275.608 79.8928C274.707 79.9043 273.807 79.9218 272.907 79.9404ZM272.907 94.5614C272.907 96.813 272.907 99.0646 272.907 101.384C278.138 101.749 278.138 101.749 282.623 99.5264C283.242 98.4701 283.242 98.4701 283.08 97.2114C282.617 95.9197 282.25 95.4136 281.192 94.5614C280.253 94.3616 280.253 94.3616 279.237 94.4186C278.868 94.4233 278.499 94.428 278.118 94.4329C277.736 94.4451 277.353 94.4574 276.958 94.47C276.57 94.4766 276.181 94.4832 275.781 94.49C274.823 94.5072 273.865 94.5334 272.907 94.5614Z" fill="white"/>
<path d="M206.142 72.1426C210.752 75.4635 213.169 79.3208 214.427 84.8141C214.626 86.4959 214.66 88.1477 214.64 89.84C214.637 90.2852 214.633 90.7305 214.629 91.1892C214.499 96.5657 213.353 101.289 209.554 105.283C209.232 105.625 208.91 105.966 208.579 106.317C204.143 110.635 199.645 111.435 193.642 111.359C188.261 111.161 184.78 109.725 180.879 105.948C176.299 100.937 175.273 95.2921 175.338 88.6578C175.662 82.6826 177.882 77.5077 182.265 73.3781C188.673 68.4492 199.309 67.7532 206.142 72.1426ZM191.035 81.4025C189.634 84.4531 189.345 87.3748 189.39 90.6929C189.385 91.1053 189.379 91.5178 189.373 91.9427C189.388 95.2272 189.987 97.8825 191.857 100.653C193.495 101.716 195.018 101.748 196.883 101.384C198.531 100.453 199.161 99.7914 199.929 98.0643C201.143 92.902 201.847 86.359 199.337 81.4596C198.554 80.3259 197.782 79.5607 196.43 79.2075C194.069 79.0694 192.607 79.5614 191.035 81.4025Z" fill="white"/>
<path d="M300.198 70.1931C310.33 70.1931 320.461 70.1931 330.9 70.1931C330.9 73.4098 330.9 76.6264 330.9 79.9404C324.95 79.9404 318.999 79.9404 312.869 79.9404C312.869 81.7096 312.869 83.4787 312.869 85.3014C317.693 85.3014 322.518 85.3014 327.489 85.3014C327.489 88.5181 327.489 91.7347 327.489 95.0487C322.664 95.0487 317.839 95.0487 312.869 95.0487C312.869 97.1395 312.869 99.2303 312.869 101.384C318.819 101.384 324.769 101.384 330.9 101.384C330.9 104.601 330.9 107.818 330.9 111.132C320.768 111.132 310.637 111.132 300.198 111.132C300.198 97.622 300.198 84.1123 300.198 70.1931Z" fill="white"/>
<path d="M166.685 72.2816C170.319 75.051 172.113 79.4634 173.004 83.8394C173.025 84.6513 173.031 85.4644 173.004 86.2762C171.39 86.6291 169.846 86.8432 168.197 86.9177C167.765 86.9382 167.333 86.9586 166.888 86.9796C166.444 86.9988 165.999 87.0179 165.541 87.0377C165.087 87.0587 164.634 87.0798 164.166 87.1015C163.051 87.1529 161.936 87.2027 160.82 87.2509C160.766 86.9016 160.711 86.5524 160.655 86.1925C160.11 82.6398 160.11 82.6398 157.896 79.9404C156.53 79.6283 155.366 79.6393 153.998 79.9404C151.695 81.5158 151.283 83.7462 150.769 86.3676C150.323 90.9059 149.933 96.0658 152.597 99.9833C154.579 101.276 155.554 101.232 157.896 100.897C159.57 99.8398 159.95 98.7732 160.382 96.922C160.599 95.9948 160.599 95.9948 160.82 95.0487C162.211 95.0355 163.602 95.0259 164.993 95.0183C165.383 95.0142 165.773 95.0101 166.174 95.0059C168.506 94.9964 170.704 95.1441 173.004 95.5361C172.792 99.9192 171.344 104.106 168.13 107.233C162.469 111.135 157.328 111.778 150.586 111.132C145.753 110.069 142.249 107.228 139.576 103.113C136.119 96.7217 136.064 88.7936 137.897 81.8747C139.498 77.299 142.428 73.2453 146.779 70.9851C152.674 68.2236 161.267 68.8597 166.685 72.2816Z" fill="white"/>
<path d="M358.191 25.3556C359.799 25.3556 361.407 25.3556 363.064 25.3556C363.1 28.6158 363.127 31.8759 363.144 35.1362C363.152 36.2442 363.162 37.3522 363.174 38.4602C363.192 40.0572 363.2 41.6539 363.207 43.251C363.214 43.7426 363.222 44.2342 363.23 44.7406C363.231 48.896 362.422 52.2055 359.512 55.3076C356.621 57.9146 353.81 58.3265 349.967 58.1975C346.594 57.7801 344.28 56.2162 342.109 53.6227C340.221 51.0209 339.462 48.4476 339.779 45.2271C340.337 42.1 341.513 39.2627 344.058 37.2599C346.561 35.6537 348.519 35.0226 351.52 34.981C352.061 34.9685 352.602 34.9559 353.159 34.943C354.779 35.1029 354.779 35.1029 357.703 36.565C357.864 32.8659 358.025 29.1668 358.191 25.3556ZM346.495 41.4386C345.041 43.2424 344.372 45.0272 344.545 47.3479C344.935 49.2939 345.656 50.66 346.982 52.1606C349.16 53.4594 350.891 53.8847 353.353 53.4495C355.296 52.7992 356.711 51.5369 357.772 49.7752C358.501 47.9888 358.46 46.2559 358.191 44.3628C357.213 42.4781 356.187 40.9768 354.292 39.9765C351.218 39.208 349.018 39.405 346.495 41.4386Z" fill="#D30001"/>
<path d="M280.705 25.3556C282.313 25.3556 283.921 25.3556 285.578 25.3556C285.614 28.6158 285.641 31.8759 285.658 35.1362C285.665 36.2442 285.675 37.3522 285.688 38.4602C285.706 40.0572 285.714 41.6539 285.721 43.251C285.728 43.7426 285.736 44.2342 285.743 44.7406C285.744 48.896 284.936 52.2055 282.026 55.3076C279.135 57.9146 276.324 58.3265 272.481 58.1975C269.108 57.7801 266.794 56.2162 264.622 53.6227C262.735 51.0209 261.976 48.4476 262.292 45.2271C262.851 42.1 264.027 39.2627 266.572 37.2599C269.075 35.6537 271.033 35.0226 274.034 34.981C274.575 34.9685 275.116 34.9559 275.673 34.943C277.293 35.1029 277.293 35.1029 280.217 36.565C280.378 32.8659 280.539 29.1668 280.705 25.3556ZM269.008 41.4386C267.555 43.2424 266.886 45.0272 267.059 47.3479C267.449 49.2939 268.17 50.66 269.496 52.1606C271.674 53.4594 273.405 53.8847 275.867 53.4495C277.81 52.7992 279.225 51.5369 280.286 49.7752C281.015 47.9888 280.974 46.2559 280.705 44.3628C279.727 42.4781 278.701 40.9768 276.806 39.9765C273.732 39.208 271.532 39.405 269.008 41.4386Z" fill="#D30001"/>
<path d="M163.744 25.3556C165.352 25.3556 166.961 25.3556 168.618 25.3556C168.778 29.0547 168.939 32.7538 169.105 36.565C170.231 36.0825 171.356 35.6 172.516 35.1029C175.778 34.6672 179.039 34.6765 181.916 36.407C184.626 38.5044 186.363 40.9875 187.136 44.3628C187.307 46.7221 187.275 49.0658 187.228 51.4296C187.218 52.3795 187.218 52.3795 187.208 53.3486C187.191 54.9023 187.167 56.4555 187.136 58.009C185.528 58.009 183.92 58.009 182.263 58.009C182.258 57.611 182.254 57.2129 182.249 56.8027C182.223 54.9911 182.182 53.1801 182.141 51.3687C182.134 50.7423 182.127 50.116 182.12 49.4706C182.079 45.041 182.079 45.041 179.826 41.4386C178.071 40.2016 177.112 39.9765 174.953 39.9765C172.732 40.3722 171.612 41.2583 170.08 42.9007C169.27 44.8907 168.969 46.6367 168.903 48.7757C168.875 49.5862 168.875 49.5862 168.846 50.413C168.823 51.2479 168.823 51.2479 168.8 52.0997C168.772 52.9516 168.772 52.9516 168.743 53.8207C168.697 55.2168 168.656 56.6128 168.618 58.009C167.009 58.009 165.401 58.009 163.744 58.009C163.744 47.2334 163.744 36.4578 163.744 25.3556Z" fill="#D30001"/>
<path d="M329.651 35.8644C332.966 37.8576 334.772 40.6921 335.773 44.3628C335.773 45.8103 335.773 47.2578 335.773 48.7491C329.984 48.9099 324.194 49.0708 318.229 49.2365C318.901 51.6374 318.901 51.6374 320.24 52.2825C323.554 53.1472 325.749 53.2947 328.951 52.1607C329.916 53.2865 330.88 54.4123 331.875 55.5722C328.06 57.7621 325.666 58.3895 321.153 58.009C317.865 57.0487 315.541 54.8682 313.721 52.0084C312.153 49.0565 312.146 46.1796 312.975 43.015C314.247 39.3785 316.242 37.2716 319.691 35.5903C322.761 34.567 326.671 34.5129 329.651 35.8644ZM319.204 41.4386C318.721 42.4036 318.239 43.3686 317.742 44.3628C321.923 44.3628 326.105 44.3628 330.413 44.3628C329.437 41.923 329.15 41.2846 327.001 39.9765C324.024 39.1957 321.627 39.3805 319.204 41.4386Z" fill="#D30001"/>
<path d="M206.843 35.8644C210.158 37.8576 211.964 40.6921 212.965 44.3628C212.965 45.8103 212.965 47.2578 212.965 48.7491C207.176 48.9099 201.386 49.0708 195.421 49.2365C196.093 51.6374 196.093 51.6374 197.431 52.2825C200.746 53.1472 202.94 53.2947 206.142 52.1607C207.107 53.2865 208.072 54.4123 209.066 55.5722C205.252 57.7621 202.858 58.3895 198.345 58.009C195.057 57.0487 192.733 54.8682 190.913 52.0084C189.345 49.0565 189.338 46.1796 190.167 43.015C191.438 39.3785 193.434 37.2716 196.883 35.5903C199.953 34.567 203.863 34.5129 206.843 35.8644ZM196.396 41.4386C195.913 42.4036 195.431 43.3686 194.934 44.3628C199.115 44.3628 203.296 44.3628 207.604 44.3628C206.628 41.923 206.342 41.2846 204.193 39.9765C201.216 39.1957 198.819 39.3805 196.396 41.4386Z" fill="#D30001"/>
<path d="M382.283 35.8644C385.14 37.582 386.996 39.98 388.119 43.1154C388.743 45.8376 388.552 48.6537 388.497 51.4296C388.487 52.3795 388.487 52.3795 388.477 53.3486C388.46 54.9023 388.436 56.4556 388.405 58.009C386.797 58.009 385.189 58.009 383.532 58.009C383.371 57.5265 383.21 57.0441 383.045 56.5469C382.693 56.7882 382.341 57.0294 381.979 57.278C379.193 58.6609 375.52 58.5244 372.594 57.6549C369.301 56.1148 366.904 53.5538 365.501 50.2112C364.657 46.474 365.154 43.2159 367.024 39.8547C370.239 35.0592 377.069 33.4997 382.283 35.8644ZM371.349 41.4386C369.895 43.2425 369.226 45.0272 369.399 47.3479C369.789 49.2939 370.51 50.66 371.836 52.1607C374.014 53.4589 375.746 53.8874 378.207 53.4476C380.286 52.7562 381.642 51.4379 382.74 49.5411C383.281 47.2694 383.285 45.4955 382.466 43.2967C381.028 41.0648 379.873 40.1672 377.288 39.4892C374.953 39.317 373.165 39.9751 371.349 41.4386Z" fill="#D30001"/>
<path d="M236.357 35.1029C237.965 35.1029 239.573 35.1029 241.23 35.1029C241.237 35.648 241.237 35.648 241.244 36.2042C241.27 37.8681 241.311 39.5314 241.352 41.1949C241.359 41.7666 241.366 42.3384 241.373 42.9274C241.47 46.3633 241.764 48.7745 243.667 51.6733C245.504 52.8391 246.946 53.2585 249.089 53.1049C251.342 52.5598 252.69 51.829 253.953 49.8557C254.526 48.3988 254.548 47.1376 254.59 45.5736C254.609 44.9642 254.628 44.3548 254.647 43.727C254.662 43.0924 254.677 42.4579 254.693 41.8042C254.712 41.1621 254.731 40.52 254.75 39.8585C254.796 38.2734 254.838 36.6882 254.876 35.1029C256.484 35.1029 258.092 35.1029 259.749 35.1029C259.749 42.6619 259.749 50.2209 259.749 58.009C258.141 58.009 256.533 58.009 254.876 58.009C254.715 57.5265 254.554 57.044 254.388 56.5469C254.037 56.7882 253.685 57.0294 253.322 57.278C250.531 58.664 246.925 58.4787 243.972 57.7063C240.83 56.3255 238.109 53.4003 236.844 50.2112C236.19 47.078 236.302 43.9266 236.327 40.738C236.329 40.1956 236.331 39.6531 236.333 39.0941C236.339 37.7637 236.347 36.4333 236.357 35.1029Z" fill="#D30001"/>
<path d="M158.384 24.8682C159.642 25.7721 160.682 26.7042 161.795 27.7924C160.83 28.9182 159.865 30.044 158.871 31.204C158.507 30.9985 158.142 30.7931 157.767 30.5814C157.287 30.3144 156.807 30.0474 156.312 29.7723C155.838 29.5066 155.363 29.2408 154.873 28.967C153.458 28.1907 153.458 28.1907 151.561 27.7924C151.4 37.7639 151.239 47.7354 151.074 58.009C149.626 58.009 148.179 58.009 146.688 58.009C145.99 47.9495 146.154 37.8696 146.2 27.7924C145.871 27.957 145.542 28.1216 145.203 28.2912C143.261 29.2621 141.319 30.2331 139.378 31.204C138.413 30.0782 137.448 28.9523 136.454 27.7924C142.744 22.5696 150.882 20.8165 158.384 24.8682Z" fill="#D30001"/>
<path d="M126.22 18.5325C127.024 18.5325 127.828 18.5325 128.656 18.5325C128.656 52.146 128.656 85.7596 128.656 120.392C127.852 120.392 127.048 120.392 126.22 120.392C126.22 86.7782 126.22 53.1646 126.22 18.5325Z" fill="white"/>
<path d="M287.04 35.1029C288.809 35.1029 290.578 35.1029 292.4 35.1029C294.491 40.2495 296.582 45.396 298.736 50.6986C300.326 47.2 301.847 43.7313 303.244 40.1593C303.58 39.2996 303.918 38.4404 304.256 37.5816C304.474 37.0241 304.474 37.0241 304.697 36.4553C305.071 35.5903 305.071 35.5903 305.558 35.1029C306.461 35.0677 307.366 35.062 308.269 35.0724C308.762 35.0768 309.256 35.0812 309.764 35.0858C310.145 35.0914 310.526 35.0971 310.919 35.1029C307.871 42.7543 304.791 50.3915 301.66 58.009C299.891 58.009 298.122 58.009 296.299 58.009C294.153 53.5252 292.253 48.9795 290.448 44.3507C290.017 43.2465 289.583 42.1436 289.149 41.0407C288.873 40.3383 288.598 39.6358 288.323 38.9333C288.193 38.6039 288.064 38.2745 287.931 37.9351C287.04 35.647 287.04 35.647 287.04 35.1029Z" fill="#D30001"/>
<path d="M214.914 35.1029C216.523 35.1029 218.131 35.1029 219.788 35.1029C219.948 35.5854 220.109 36.0679 220.275 36.565C220.707 36.3237 221.139 36.0825 221.585 35.8339C224.567 34.5668 228.243 34.4895 231.297 35.5427C232.367 36.0776 232.367 36.0776 233.92 37.0523C233.92 39.1917 232.883 39.864 231.484 41.4386C231.152 41.2878 230.82 41.1371 230.479 40.9817C228.18 40.1503 226.434 39.6948 224.082 40.5248C222.409 41.6406 221.116 42.7926 220.477 44.7498C220.23 46.0671 220.169 47.3409 220.121 48.6806C220.1 49.224 220.08 49.7674 220.059 50.3273C220.03 51.1745 220.03 51.1745 220.001 52.0388C219.98 52.6111 219.959 53.1835 219.937 53.7731C219.885 55.185 219.836 56.597 219.788 58.009C218.179 58.009 216.571 58.009 214.914 58.009C214.914 50.45 214.914 42.891 214.914 35.1029Z" fill="#D30001"/>
</svg>
