<svg width="47" height="54" viewBox="0 0 47 54" fill="none" xmlns="http://www.w3.org/2000/svg">
<g clip-path="url(#clip0_43_1067)">
<path d="M23.713 0.874512C27.4069 0.885865 30.9462 2.34808 33.5581 4.94188C36.1701 7.53569 37.6425 11.0504 37.6539 14.7186V26.1778H35.2308V17.1637H24.9225V26.1778H22.4993V17.1637H12.1953V26.1778H9.78949V14.7186C9.79976 11.053 11.2695 7.54025 13.8779 4.94669C16.4864 2.35312 20.0219 0.889273 23.713 0.874512ZM24.9225 3.34543V14.753H35.2308V14.7186C35.2199 11.8963 34.163 9.17673 32.2616 7.079C30.3603 4.98126 27.7477 3.65219 24.9225 3.34543ZM22.4993 14.753V3.34543C19.6741 3.65135 17.0615 4.98031 15.1607 7.07835C13.2599 9.17638 12.2042 11.8964 12.1953 14.7186V14.753H22.4993Z" fill="#696969"/>
<path fill-rule="evenodd" clip-rule="evenodd" d="M1.74831 24.7529H45.6778C45.9307 24.7552 46.1726 24.8563 46.3511 25.0343C46.5296 25.2124 46.6303 25.4531 46.6314 25.7043V26.5652C46.6303 26.8165 46.5296 27.0571 46.3511 27.2352C46.1726 27.4132 45.9307 27.5143 45.6778 27.5166H1.74831C1.6212 27.516 1.49546 27.4905 1.37835 27.4414C1.26124 27.3923 1.15508 27.3207 1.06601 27.2306C0.976936 27.1405 0.906711 27.0339 0.859391 26.9167C0.81207 26.7995 0.788591 26.6742 0.79031 26.548V25.6871C0.791451 25.4351 0.892749 25.1938 1.07216 25.0156C1.25158 24.8374 1.49459 24.7369 1.74831 24.7357V24.7529Z" fill="#696969" stroke="#696969" stroke-width="0.48" stroke-miterlimit="22.93"/>
<path fill-rule="evenodd" clip-rule="evenodd" d="M4.24517 45.3296H43.2329C43.3308 45.3302 43.4276 45.3499 43.5179 45.3876C43.6081 45.4253 43.69 45.4803 43.7588 45.5495C43.8277 45.6186 43.8821 45.7006 43.9191 45.7906C43.956 45.8807 43.9747 45.9771 43.9741 46.0743V49.5568C43.9707 50.6747 43.522 51.7457 42.7261 52.5361C41.9302 53.3265 40.8516 53.7721 39.726 53.7755H7.74773C6.62211 53.7721 5.54356 53.3265 4.74762 52.5361C3.95168 51.7457 3.503 50.6747 3.49957 49.5568V46.0743C3.50071 45.8783 3.57963 45.6906 3.71921 45.552C3.85879 45.4134 4.04778 45.335 4.24517 45.3339V45.3296Z" fill="#696969" stroke="#696969" stroke-width="0.48" stroke-miterlimit="22.93"/>
<path fill-rule="evenodd" clip-rule="evenodd" d="M6.69873 27.4994H8.87483V45.5793H6.69873V27.4994Z" fill="#696969" stroke="#696969" stroke-width="0.48" stroke-miterlimit="22.93"/>
<path fill-rule="evenodd" clip-rule="evenodd" d="M14.6619 27.4994H16.838V45.5793H14.6619V27.4994Z" fill="#696969" stroke="#696969" stroke-width="0.48" stroke-miterlimit="22.93"/>
<path fill-rule="evenodd" clip-rule="evenodd" d="M22.6293 27.4994H24.8011V45.5793H22.6293V27.4994Z" fill="#696969" stroke="#696969" stroke-width="0.48" stroke-miterlimit="22.93"/>
<path fill-rule="evenodd" clip-rule="evenodd" d="M30.5925 27.4994H32.7686V45.5793H30.5925V27.4994Z" fill="#696969" stroke="#696969" stroke-width="0.48" stroke-miterlimit="22.93"/>
<path fill-rule="evenodd" clip-rule="evenodd" d="M38.5556 27.4994H40.7317V45.5793H38.5556V27.4994Z" fill="#696969" stroke="#696969" stroke-width="0.48" stroke-miterlimit="22.93"/>
</g>
<defs>
<clipPath id="clip0_43_1067">
<rect width="46.0492" height="53" fill="white" transform="translate(0.686279 0.874512)"/>
</clipPath>
</defs>
</svg>
