<svg width="53" height="53" viewBox="0 0 53 53" fill="none" xmlns="http://www.w3.org/2000/svg">
<path d="M48.993 21.4264H46.6855L41.1219 11.6886C40.8377 11.1912 40.427 10.7779 39.9315 10.4904C39.4361 10.2029 38.8734 10.0514 38.3005 10.0514H33.844L31.4065 3.96981C31.1672 3.36602 30.7517 2.84823 30.214 2.48378C29.6764 2.11934 29.0416 1.92512 28.3921 1.92638H24.094C23.4438 1.9243 22.8081 2.11814 22.2697 2.48264C21.7312 2.84713 21.3151 3.36538 21.0755 3.96981L18.6421 10.0514H14.1855C13.6127 10.0514 13.05 10.2029 12.5546 10.4904C12.0591 10.7779 11.6484 11.1912 11.3641 11.6886L5.80054 21.4264H3.49304C3.06207 21.4264 2.64874 21.5976 2.34399 21.9023C2.03925 22.2071 1.86804 22.6204 1.86804 23.0514C1.86804 23.4824 2.03925 23.8957 2.34399 24.2004C2.64874 24.5052 3.06207 24.6764 3.49304 24.6764H5.11804V40.9264C5.11804 41.7883 5.46045 42.615 6.06994 43.2245C6.67944 43.834 7.50609 44.1764 8.36804 44.1764H13.243C14.105 44.1764 14.9316 43.834 15.5411 43.2245C16.1506 42.615 16.493 41.7883 16.493 40.9264V39.3014H35.993V40.9264C35.993 41.7883 36.3355 42.615 36.9449 43.2245C37.5544 43.834 38.3811 44.1764 39.243 44.1764H44.118C44.98 44.1764 45.8066 43.834 46.4161 43.2245C47.0256 42.615 47.368 41.7883 47.368 40.9264V24.6764H48.993C49.424 24.6764 49.8373 24.5052 50.1421 24.2004C50.4468 23.8957 50.618 23.4824 50.618 23.0514C50.618 22.6204 50.4468 22.2071 50.1421 21.9023C49.8373 21.5976 49.424 21.4264 48.993 21.4264ZM16.493 31.1764H11.618C11.1871 31.1764 10.7737 31.0052 10.469 30.7004C10.1642 30.3957 9.99304 29.9824 9.99304 29.5514C9.99304 29.1204 10.1642 28.7071 10.469 28.4023C10.7737 28.0976 11.1871 27.9264 11.618 27.9264H16.493C16.924 27.9264 17.3373 28.0976 17.6421 28.4023C17.9468 28.7071 18.118 29.1204 18.118 29.5514C18.118 29.9824 17.9468 30.3957 17.6421 30.7004C17.3373 31.0052 16.924 31.1764 16.493 31.1764ZM40.868 31.1764H35.993C35.5621 31.1764 35.1487 31.0052 34.844 30.7004C34.5392 30.3957 34.368 29.9824 34.368 29.5514C34.368 29.1204 34.5392 28.7071 34.844 28.4023C35.1487 28.0976 35.5621 27.9264 35.993 27.9264H40.868C41.299 27.9264 41.7123 28.0976 42.0171 28.4023C42.3218 28.7071 42.493 29.1204 42.493 29.5514C42.493 29.9824 42.3218 30.3957 42.0171 30.7004C41.7123 31.0052 41.299 31.1764 40.868 31.1764ZM9.54414 21.4264L14.1855 13.3014H38.3005L42.9419 21.4264H9.54414Z" fill="#313131"/>
</svg>
