<svg width="70" height="56" viewBox="0 0 70 56" fill="none" xmlns="http://www.w3.org/2000/svg">
<g clip-path="url(#clip0_43_1123)">
<path d="M20.4584 37.6695V9.52546C20.4584 7.06159 21.4017 4.82238 22.9234 3.20023C24.4437 1.57808 26.5424 0.570068 28.8515 0.570068C29.9289 0.570068 30.9693 0.796178 31.9332 1.20609C32.9312 1.62914 33.8322 2.24619 34.5937 3.01059C35.1666 3.5868 35.1939 4.54959 34.6552 5.16228C34.1152 5.7735 33.2129 5.80268 32.6386 5.22792C32.1287 4.71589 31.534 4.30598 30.8845 4.03027C30.2652 3.76623 29.5789 3.62181 28.8529 3.62181C27.3312 3.62181 25.9476 4.28701 24.9441 5.35629C23.942 6.42703 23.3185 7.9033 23.3185 9.52546V15.8507H41.5226V9.52546C41.5226 7.06597 42.4674 4.82822 43.9877 3.20607C45.508 1.57808 47.608 0.570068 49.9158 0.570068C51.0232 0.570068 52.0841 0.803472 53.0576 1.22651C54.0638 1.66269 54.9771 2.306 55.7496 3.10541C56.3142 3.69038 56.3265 4.65462 55.7783 5.2571C55.23 5.85957 54.3263 5.8727 53.7617 5.28627C53.2558 4.76403 52.6529 4.33953 51.9857 4.05069C51.3286 3.7665 50.6262 3.62086 49.9172 3.62181C48.3955 3.62181 47.0119 4.28701 46.0084 5.35629C45.0049 6.42411 44.3828 7.90185 44.3828 9.52546V38.1159C45.2113 39.2216 46.0412 40.0065 46.8465 40.4791C47.4931 40.8598 48.1138 41.0291 48.6894 40.9955C49.2527 40.9619 49.8105 40.7285 50.3437 40.3055C51.0013 39.7833 51.6275 38.9707 52.1949 37.881C52.344 37.5717 52.5882 37.3266 52.8867 37.1867C53.6086 36.8482 54.4521 37.1983 54.7693 37.9671C55.2697 39.1764 55.9902 39.9831 56.7982 40.4266L56.8611 40.4587C57.3888 40.7344 57.959 40.8686 58.5291 40.8686C59.1115 40.8686 59.7103 40.7285 60.2804 40.4616C61.3045 39.9787 62.2177 39.0831 62.792 37.8373C63.1365 37.0831 63.9896 36.7724 64.6964 37.14C65.4019 37.5076 65.6945 38.4179 65.3486 39.172C64.4599 41.102 63.0367 42.4937 61.4302 43.2493C60.5115 43.6826 59.5216 43.9072 58.5291 43.9072C57.5242 43.9072 56.5248 43.6723 55.6006 43.1866L55.5199 43.1413C54.7474 42.7227 54.031 42.1304 53.4117 41.3558C52.9797 41.9029 52.5203 42.3667 52.0404 42.7489C51.0519 43.5338 49.9759 43.967 48.8453 44.0341C47.731 44.0998 46.5949 43.808 45.4724 43.1486C44.6754 42.6804 43.8797 42.0196 43.1017 41.1618C42.4291 42.0531 41.6279 42.7387 40.7556 43.207C39.8861 43.6738 38.9427 43.9262 37.9816 43.9466C37.0259 43.9685 36.0607 43.7642 35.142 43.3222C34.0687 42.8044 33.0543 41.9627 32.1916 40.7825C31.3959 41.6709 30.581 42.3536 29.7635 42.835C28.641 43.4958 27.5049 43.7876 26.3892 43.7219C25.2586 43.6548 24.1826 43.2216 23.1928 42.4368C22.7129 42.0546 22.2535 41.5907 21.8215 41.0451C21.1803 41.846 20.4338 42.4528 19.6285 42.8744C18.7029 43.3602 17.7049 43.5936 16.7041 43.595C15.7115 43.595 14.7217 43.3689 13.8015 42.9371C12.85 42.4893 11.9627 41.8182 11.2121 40.943C10.8238 41.4463 10.3931 41.8897 9.91736 42.2719C8.83045 43.1413 7.53982 43.6548 6.00857 43.7438C5.22244 43.789 4.54979 43.1472 4.5074 42.3084C4.46502 41.4696 5.06658 40.7519 5.85272 40.7067C6.79744 40.6512 7.574 40.3493 8.20838 39.8416C8.87283 39.3092 9.42381 38.5214 9.87771 37.5251C10.2236 36.768 11.0795 36.4529 11.789 36.822C12.1199 36.9941 12.3605 37.2858 12.4877 37.6228C13.0646 38.8176 13.956 39.6797 14.9527 40.148C15.5228 40.4164 16.1203 40.5564 16.7041 40.5564C17.2783 40.5564 17.8498 40.4222 18.3762 40.1465C19.206 39.7118 19.947 38.9007 20.4584 37.6695ZM41.5226 38.1728V32.2866H23.3185V38.0765C23.8094 38.9153 24.3385 39.5557 24.8908 39.9933C25.424 40.4178 25.9818 40.6498 26.5451 40.6833C27.122 40.7183 27.7427 40.5477 28.3894 40.1669C29.2972 39.6315 30.2351 38.7023 31.1676 37.3646C31.456 36.9503 31.9031 36.7374 32.3529 36.7505C32.8861 36.7359 33.407 37.0437 33.6627 37.5864C34.375 39.0933 35.317 40.0648 36.315 40.5462C36.8468 40.8015 37.3951 40.9211 37.9256 40.9094C38.4533 40.8978 38.9797 40.7548 39.4705 40.4908C40.2867 40.0517 41.0127 39.2712 41.5226 38.1728ZM1.49822 55.2696C0.712091 55.3119 0.0421697 54.6671 0.00115408 53.8283C-0.0384943 52.9895 0.56717 52.2747 1.3533 52.2309C2.29256 52.1784 3.06776 51.8765 3.7035 51.3688C4.37205 50.8334 4.92166 50.0472 5.37283 49.0581C5.71463 48.301 6.56775 47.9845 7.27732 48.3492C7.58781 48.5082 7.83329 48.7825 7.96775 49.1208C8.54334 50.3316 9.44158 51.2025 10.4465 51.6752C11.0166 51.9436 11.6154 52.0836 12.1992 52.0836C12.7734 52.0836 13.3449 51.9494 13.8726 51.6737C14.7039 51.2375 15.4476 50.4221 15.959 49.1836C16.2775 48.4148 17.1197 48.0647 17.8416 48.4031C18.1506 48.549 18.3885 48.7985 18.5334 49.096C19.1008 50.1857 19.7256 50.9968 20.3845 51.5191C20.9178 51.9436 21.4756 52.177 22.0388 52.2105C22.6158 52.2441 23.2365 52.0734 23.8832 51.6927C24.791 51.1588 25.7289 50.2295 26.6627 48.8918C27.1303 48.2179 28.0244 48.0764 28.656 48.5767C28.8584 48.7357 29.0101 48.9443 29.1058 49.1734C29.4927 50.0793 30.0177 50.7868 30.6207 51.2798C31.1785 51.735 31.8088 52.0107 32.4554 52.0938C33.1021 52.1755 33.7734 52.069 34.4146 51.7598C35.0955 51.4315 35.7517 50.8743 36.3246 50.0763C36.758 49.471 37.5345 49.309 38.1416 49.6635C38.3877 49.7685 38.6091 49.948 38.7746 50.1945C39.3775 51.0975 40.083 51.7175 40.8185 52.0719C41.431 52.3666 42.0695 52.4789 42.6847 52.4191L42.7121 52.4162C43.3383 52.3476 43.9521 52.0982 44.5004 51.681C45.1498 51.1865 45.7158 50.4483 46.1246 49.4841C46.223 49.2565 46.3748 49.0479 46.5771 48.8889C47.2088 48.3885 48.1029 48.53 48.5705 49.204C49.5043 50.5417 50.4435 51.4709 51.3513 52.0063C51.998 52.3856 52.6174 52.5563 53.1957 52.5227C53.7576 52.4877 54.3154 52.2557 54.8486 51.8312C55.5076 51.309 56.1324 50.4979 56.6998 49.4082C56.8447 49.1106 57.0812 48.8612 57.3916 48.7153C58.1134 48.3769 58.9556 48.727 59.2742 49.4958C59.7841 50.7313 60.5293 51.5453 61.3646 51.9844C61.891 52.2616 62.4611 52.3958 63.0353 52.3958C63.6177 52.3958 64.2166 52.2557 64.7881 51.9859C65.8121 51.5045 66.724 50.6088 67.2968 49.3645C67.6427 48.6117 68.4959 48.2996 69.2013 48.6672C69.9082 49.0362 70.1994 49.9465 69.8548 50.6992C68.9662 52.6277 67.5429 54.0194 65.9392 54.775C65.0191 55.2083 64.0279 55.4344 63.0353 55.4344C62.0318 55.4329 61.0338 55.1981 60.1082 54.7138C59.3002 54.2922 58.5564 53.6853 57.9166 52.8859C57.4845 53.4301 57.0265 53.8939 56.5466 54.2747C55.5582 55.0595 54.4822 55.4928 53.3515 55.5599C52.2359 55.627 51.0998 55.3352 49.9773 54.6744C49.1802 54.2061 48.3859 53.5453 47.608 52.689C47.1718 53.2652 46.681 53.7568 46.1533 54.1594C45.1963 54.8859 44.1162 55.3206 43.0019 55.4432L42.9595 55.4461C41.8549 55.5599 40.7215 55.3658 39.6468 54.848C38.8758 54.4774 38.1361 53.9392 37.4607 53.2273C36.8715 53.786 36.2398 54.2222 35.5863 54.5373C34.4584 55.0799 33.2717 55.2681 32.1205 55.1208C30.9707 54.972 29.8605 54.4906 28.8898 53.6985C28.4206 53.3136 27.9961 52.8704 27.6252 52.3783C26.8472 53.2331 26.0543 53.8925 25.2572 54.3622C24.1347 55.023 22.9986 55.3148 21.883 55.2477C20.7523 55.1806 19.6763 54.7488 18.6865 53.9625C18.2066 53.5818 17.7486 53.1164 17.3166 52.5723C16.6754 53.3732 15.9289 53.98 15.1236 54.4016C14.198 54.8874 13.2 55.1222 12.1992 55.1222C11.2053 55.1222 10.2154 54.8961 9.29529 54.4643C8.34373 54.0165 7.45643 53.344 6.70584 52.4687C6.31756 52.9735 5.8869 53.4184 5.41248 53.7991C4.3242 54.6686 3.03221 55.182 1.49822 55.2696ZM41.5226 29.2349V18.9024H23.3185V29.2349H41.5226Z" fill="#696969"/>
</g>
<defs>
<clipPath id="clip0_43_1123">
<rect width="70" height="55" fill="white" transform="translate(0 0.570068)"/>
</clipPath>
</defs>
</svg>
