<svg width="53" height="51" viewBox="0 0 53 51" fill="none" xmlns="http://www.w3.org/2000/svg">
<g clip-path="url(#clip0_43_1161)">
<path fill-rule="evenodd" clip-rule="evenodd" d="M52.7109 50.8746C51.9704 49.3919 51.7038 48.4622 49.2493 48.5241H49.2028C49.5752 46.2023 49.7614 43.9853 49.6175 41.9542C49.4652 39.8278 48.9489 37.8968 47.9079 36.2663C47.8529 36.1757 47.764 36.1089 47.6582 36.0899C47.4551 36.0517 47.2689 36.2091 47.235 36.4331C46.9261 38.6263 46.888 40.8576 46.8499 43.046L46.8415 43.4656C46.833 44.0425 46.8415 44.5145 46.8499 44.934C46.8753 46.064 46.8923 46.7744 46.4141 47.9759C46.0163 45.1295 45.7539 42.2689 45.6439 39.3748C45.5254 36.2806 45.5804 33.1482 45.8132 29.9538C45.8301 29.7249 45.6777 29.5247 45.4746 29.5056C45.2884 29.4913 45.1234 29.6296 45.0853 29.8298C44.0654 33.9253 43.473 38.1257 43.2868 42.3738C43.2868 42.3881 43.2868 42.4071 43.2868 42.4214L43.3418 44.0758C42.5801 41.2104 41.9369 38.3116 41.6576 35.4414C41.2894 31.6082 41.5772 27.7987 43.1387 24.1371C43.2275 23.9321 43.1471 23.6842 42.9652 23.5841C42.8086 23.4982 42.6266 23.5507 42.5208 23.6937C40.9255 25.8916 39.8844 28.8667 39.4105 32.6189C38.9408 36.333 39.0212 40.8195 39.6559 46.0831C39.6559 46.0926 39.6602 46.1021 39.6602 46.1069L40.0876 48.5241H39.0423L37.375 48.5194L37.8955 45.5872C37.8955 45.5777 37.8997 45.5681 37.8997 45.5634C38.6615 39.2699 38.7546 33.9158 38.1917 29.4818C37.6247 25.0048 36.3848 21.4624 34.4847 18.8449C34.3789 18.7019 34.1969 18.6494 34.0404 18.7352C33.8584 18.8354 33.778 19.0833 33.8669 19.2883C35.7415 23.6842 36.0885 28.2517 35.6442 32.8526C35.293 36.4999 34.4466 40.1711 33.4648 43.8041L33.5495 41.1914C33.5495 41.177 33.5495 41.158 33.5495 41.1437C33.4352 38.4833 33.1898 35.9039 32.8258 33.4056C32.4619 30.9121 31.9837 28.4948 31.3997 26.1539C31.3617 25.9536 31.1966 25.8154 31.0104 25.8297C30.8073 25.8487 30.6549 26.049 30.6719 26.2778C30.9512 30.1063 31.0146 33.8585 30.8708 37.5583C30.7311 41.2247 30.1725 44.8482 29.9779 48.5003L26.5374 48.4955V25.5198L28.0482 22.1251H30.6507V17.1667H19.043V22.1299H21.6455L23.1563 25.5245V48.4908L20.1051 48.4955C19.9105 44.8434 19.3519 41.2247 19.2122 37.5536C19.0726 33.849 19.1318 30.0968 19.4111 26.2731C19.4281 26.0442 19.2757 25.844 19.0726 25.8249C18.8864 25.8106 18.7214 25.9489 18.6833 26.1491C18.0993 28.4948 17.6211 30.9073 17.2572 33.4008C16.8932 35.8991 16.6478 38.4737 16.5335 41.1389C16.5335 41.1532 16.5335 41.1723 16.5335 41.1866L16.6182 43.7993C15.6364 40.1663 14.79 36.4951 14.4388 32.8478C13.9945 28.2469 14.3457 23.6794 16.2161 19.2835C16.305 19.0785 16.2246 18.8306 16.0426 18.7305C15.8861 18.6447 15.7041 18.6971 15.5983 18.8401C13.6982 21.4624 12.4583 25.0048 11.8913 29.477C11.3285 33.911 11.4258 39.2699 12.1833 45.5586C12.1833 45.5681 12.1875 45.5777 12.1875 45.5824L12.708 48.5146L11.0449 48.5289H9.99968L10.4271 46.1117C10.4271 46.1021 10.4313 46.0926 10.4313 46.0878C11.0661 40.8242 11.1465 36.3378 10.6768 32.6237C10.1986 28.8715 9.16178 25.8964 7.56641 23.6985C7.46061 23.5554 7.27865 23.503 7.12207 23.5888C6.9401 23.6889 6.8597 23.9369 6.94857 24.1419C8.51009 27.8035 8.79785 31.6082 8.42969 35.4462C8.15462 38.3212 7.50716 41.2152 6.74544 44.0806L6.80046 42.4262C6.80046 42.4119 6.80046 42.3928 6.80046 42.3785C6.61426 38.1305 6.02181 33.9301 5.00195 29.8346C4.96387 29.6343 4.79883 29.4961 4.61263 29.5104C4.40951 29.5294 4.25716 29.7297 4.27409 29.9585C4.50684 33.1577 4.55762 36.2901 4.44336 39.3796C4.33333 42.1306 4.09212 44.8625 3.72396 47.5754V48.5098C1.61654 48.5098 1.93392 48.4288 0.710938 50.8746H23.1563H23.2493H23.6556H24.0618H24.4681H24.8786H25.3314H25.7461H26.1608H26.5332H52.7109ZM20.9261 15.2262C21.1631 15.7316 21.8275 15.436 21.709 14.8877C21.7005 14.8543 21.6921 14.8257 21.6794 14.7971C21.4001 14.182 21.0277 13.6385 20.5791 13.1665C20.2617 12.8089 19.7116 13.2285 19.9063 13.71C19.9316 13.772 19.957 13.8054 19.9994 13.8578C20.376 14.2488 20.6934 14.7065 20.9261 15.2262ZM12.3483 10.6301C11.887 10.6587 11.7982 11.4597 12.3229 11.5741C12.3568 11.5789 12.3822 11.5789 12.4202 11.5789C12.9577 11.5264 13.512 11.5073 14.0495 11.5312C14.2314 11.5455 14.3965 11.4072 14.46 11.2165C14.5531 10.9066 14.3711 10.6015 14.0791 10.5824C13.5247 10.5443 12.9069 10.5729 12.3483 10.6301ZM16.6605 10.9591C16.14 10.8208 15.9157 11.6981 16.4574 11.8792C16.9398 12.0127 17.5492 12.2034 17.9977 12.4371C18.4336 12.6516 18.8271 11.9793 18.404 11.6122C18.3786 11.5932 18.3574 11.5789 18.3278 11.5646C17.8792 11.35 17.1344 11.0496 16.6605 10.9591ZM25.2383 6.77773C25.3102 6.916 25.4245 6.98751 25.543 6.99705H25.5472C25.6488 7.01135 25.7588 6.98275 25.8519 6.90169C25.9154 6.84925 25.9704 6.77297 25.9958 6.68238C26.2201 6.16269 26.5078 5.71453 26.8548 5.2902C27.2272 4.79435 26.6009 4.20315 26.2327 4.65132C25.9958 4.94215 25.7842 5.23775 25.5938 5.56196C25.3949 5.22821 25.1663 4.90878 24.9548 4.65132C24.5908 4.20315 23.9645 4.79435 24.3327 5.2902C24.6839 5.71929 24.9759 6.17223 25.2002 6.69668C25.2129 6.73006 25.2214 6.75389 25.2383 6.77773ZM8.8444 1.88602C8.38314 2.19593 8.75553 2.97784 9.23796 2.72515C9.71615 2.43908 10.097 2.22453 10.6133 2.01475C11.1253 1.8002 10.8799 0.965846 10.3721 1.10888C9.87695 1.27575 9.29297 1.59519 8.8444 1.88602ZM12.89 0.479536C12.6318 0.51291 12.4626 0.784672 12.526 1.07074C12.5768 1.29482 12.7757 1.45216 12.9788 1.42355C13.4443 1.36634 14.1553 1.29005 14.6081 1.3282C15.1328 1.3282 15.1921 0.455697 14.6462 0.379413C14.1045 0.355574 13.4359 0.412787 12.89 0.479536ZM17.1937 0.613033C17.0075 0.574891 16.8086 0.698852 16.7409 0.899098C16.6393 1.18993 16.7917 1.49507 17.0625 1.55228C17.6042 1.64763 18.1416 1.7716 18.6706 1.92416C19.1107 2.03859 19.39 1.42355 19.0345 1.08981C18.988 1.05167 18.9329 1.01829 18.8779 1.00399C18.3236 0.841885 17.7607 0.713155 17.1937 0.613033ZM21.3324 1.9337C21.2393 1.88602 21.1292 1.88125 21.0361 1.9194C20.668 2.05766 20.6468 2.62979 20.998 2.8062C21.4974 3.04935 21.984 3.32111 22.4495 3.63579C22.8939 3.93615 23.3424 3.21622 22.9193 2.84911C22.4749 2.5106 21.8275 2.17209 21.3324 1.9337ZM24.6458 15.517C24.6882 15.6982 24.8151 15.8079 24.9548 15.846L24.9674 15.8508C25.0732 15.8746 25.1875 15.8555 25.2848 15.7888L25.2891 15.784C25.361 15.7316 25.4202 15.6505 25.4541 15.5361L25.4583 15.5218C25.4668 15.4884 25.471 15.4598 25.4753 15.4264C25.5176 14.8257 25.6107 14.244 25.7673 13.6671C25.9111 13.157 25.2637 12.7803 24.9886 13.3191V13.3239C24.7559 12.8471 24.0661 13.1427 24.2269 13.71C24.4089 14.2583 24.5485 14.8972 24.6458 15.4693V15.4741L24.6501 15.4932V15.4979L24.6458 15.517ZM10.7529 5.67638C10.2197 5.86233 10.4313 6.73482 10.973 6.59179C11.502 6.42969 12.0225 6.30096 12.5684 6.21514C12.6742 6.20084 12.7884 6.12455 12.8519 6.01966C13.0635 5.67638 12.8223 5.22345 12.4499 5.27589C11.8701 5.36648 11.3158 5.49998 10.7529 5.67638ZM15.0524 5.1567C14.5615 5.12332 14.4176 5.91477 14.9128 6.08641C14.9424 6.09594 14.9678 6.10071 14.9974 6.10071C15.5348 6.13885 16.0765 6.21991 16.6055 6.34387C17.1598 6.45353 17.3164 5.55719 16.779 5.41416C16.2119 5.28543 15.6322 5.19484 15.0524 5.1567ZM19.263 6.32956C18.7425 6.07211 18.4167 6.9303 18.9076 7.18776C19.3984 7.44045 19.8724 7.73128 20.321 8.06979C20.7653 8.394 21.2266 7.69314 20.8203 7.30695C20.3887 6.94937 19.7581 6.58226 19.263 6.32956ZM22.7881 9.19498C22.4199 8.74681 21.7979 9.33802 22.166 9.83386C22.5299 10.2773 22.8643 10.7636 23.1563 11.269C23.4313 11.7505 24.1169 11.3595 23.8841 10.7969C23.6133 10.2773 23.152 9.63838 22.7881 9.19498ZM29.5124 14.7971C29.4658 14.8924 29.4531 15.0164 29.4785 15.1213C29.5801 15.5504 30.0752 15.6171 30.2614 15.2262C30.4984 14.7017 30.8115 14.2583 31.1882 13.8531C31.5817 13.4097 31.0316 12.7613 30.6253 13.1522C30.181 13.6052 29.7874 14.1916 29.5124 14.7971ZM38.7715 11.5741C39.3132 11.6122 39.3978 10.7397 38.873 10.6348C38.3441 10.5633 37.6416 10.549 37.1126 10.5824C36.6048 10.6158 36.5667 11.4215 37.0576 11.5216C37.0872 11.5264 37.1126 11.5312 37.1465 11.5264C37.6755 11.4978 38.2341 11.5216 38.7715 11.5741ZM34.7217 11.8792C34.9417 11.822 35.0772 11.5836 35.0391 11.3309C34.9967 11.0639 34.764 10.8923 34.527 10.9543C34.0531 11.0449 33.3083 11.3452 32.8597 11.5598C32.373 11.7982 32.6439 12.6278 33.1559 12.4466C33.6257 12.2511 34.2308 11.9746 34.7217 11.8792ZM41.9242 2.70607C42.0892 2.81573 42.3135 2.78236 42.4447 2.62026C42.6266 2.39617 42.5801 2.04813 42.3473 1.88602C41.8649 1.57612 41.3783 1.3282 40.8535 1.11841C40.3965 0.927704 40.0326 1.69054 40.5361 1.99568C41.0439 2.22453 41.4417 2.39617 41.9242 2.70607ZM38.2087 1.42355C38.7122 1.4903 38.8815 0.632104 38.3314 0.484303C37.8066 0.398484 37.1042 0.36511 36.571 0.379413C36.0589 0.379413 35.9954 1.25191 36.5329 1.32343C37.1126 1.35203 37.6289 1.35203 38.2087 1.42355ZM34.1292 1.54751C34.6582 1.44262 34.5651 0.570123 34.0319 0.608265C33.486 0.679781 32.847 0.846652 32.3096 0.99922C31.8483 1.12318 31.9076 1.9337 32.4196 1.9337C32.4577 1.92893 32.4831 1.92893 32.5169 1.9194C33.0501 1.76683 33.5876 1.64287 34.1292 1.54751ZM30.1937 2.80143C30.6719 2.56304 30.4137 1.73345 29.889 1.9194C29.3727 2.14825 28.7887 2.49629 28.3105 2.81573C27.8577 3.12087 28.2175 3.90755 28.7083 3.65009C29.2161 3.34019 29.6562 3.06366 30.1937 2.80143ZM39.2158 6.34387C39.7236 6.44399 39.9225 5.60487 39.4063 5.42369C38.8688 5.28543 38.196 5.21868 37.6458 5.18054C37.1126 5.14716 37.028 6.04827 37.5739 6.12455C38.141 6.177 38.653 6.23421 39.2158 6.34387ZM35.1491 6.21037C35.6484 6.14362 35.6442 5.3045 35.1152 5.26636C35.0898 5.26636 35.0729 5.26636 35.0475 5.27112C34.472 5.34741 33.9049 5.45707 33.3421 5.60487C32.8639 5.7336 32.9401 6.53935 33.4437 6.53935C33.4775 6.53458 33.5029 6.53458 33.5368 6.52504C34.0361 6.37724 34.6413 6.27712 35.1491 6.21037ZM31.2178 7.38324C31.387 7.30219 31.4886 7.09717 31.4674 6.89216C31.4336 6.57749 31.1374 6.38678 30.8792 6.51551C30.3418 6.77773 29.8382 7.06857 29.3346 7.40708C29.2415 7.46906 29.1908 7.55011 29.1569 7.655C29.0299 8.07933 29.4362 8.44645 29.7705 8.21759C30.236 7.90292 30.7184 7.62639 31.2178 7.38324ZM27.8493 9.87677C28.2217 9.45721 27.7096 8.8088 27.2949 9.16638C26.9056 9.55256 26.4105 10.2296 26.1185 10.7159C25.8392 11.1545 26.3639 11.7314 26.7617 11.3214C26.7829 11.2976 26.7956 11.2785 26.8125 11.2499C27.1257 10.7493 27.4642 10.3059 27.8493 9.87677Z" fill="#696969"/>
</g>
<defs>
<clipPath id="clip0_43_1161">
<rect width="52" height="50.5" fill="white" transform="translate(0.710938 0.374512)"/>
</clipPath>
</defs>
</svg>
