<svg width="59" height="47" viewBox="0 0 59 47" fill="none" xmlns="http://www.w3.org/2000/svg">
<g clip-path="url(#clip0_43_1111)">
<path fill-rule="evenodd" clip-rule="evenodd" d="M0.298828 0.629883H58.2988V12.07C58.2988 14.0707 56.9583 15.757 55.1742 16.1711C55.1742 16.201 55.1789 16.231 55.1789 16.2609V19.2744C55.1789 26.798 52.2666 33.6381 47.5796 38.5973C42.8926 43.5566 36.4167 46.6299 29.2988 46.6299C22.181 46.6299 15.7098 43.5516 11.0181 38.5973C6.32633 33.6381 3.41878 26.798 3.41878 19.2744V16.2609C3.41878 16.231 3.41878 16.201 3.4235 16.1711C1.63932 15.762 0.298828 14.0757 0.298828 12.075V0.629883ZM29.2988 29.3524C30.8234 29.3524 32.0648 30.6596 32.0648 32.2761C32.0648 33.8876 30.8281 35.1997 29.2988 35.1997C27.7743 35.1997 26.5329 33.8926 26.5329 32.2761C26.5329 30.6646 27.7695 29.3524 29.2988 29.3524ZM25.4992 28.2598C25.7777 27.9605 26.2355 27.9605 26.5187 28.2598C26.8019 28.5592 26.8019 29.0381 26.5187 29.3375C26.2402 29.6368 25.7824 29.6368 25.4992 29.3375C25.2207 29.0381 25.2207 28.5542 25.4992 28.2598ZM23.9274 32.2761C23.9274 31.857 24.2484 31.5177 24.6449 31.5177C25.0413 31.5177 25.3623 31.857 25.3623 32.2761C25.3623 32.6952 25.0413 33.0344 24.6449 33.0344C24.2531 33.0344 23.9274 32.6952 23.9274 32.2761ZM25.5086 36.2924C25.2254 35.993 25.2254 35.514 25.5086 35.2147C25.7918 34.9153 26.245 34.9153 26.5282 35.2147C26.8114 35.514 26.8114 35.993 26.5282 36.2924C26.245 36.5867 25.7871 36.5867 25.5086 36.2924ZM29.3083 37.9537C28.9118 37.9537 28.5908 37.6145 28.5908 37.1954C28.5908 36.7763 28.9118 36.437 29.3083 36.437C29.7048 36.437 30.0257 36.7763 30.0257 37.1954C30.0304 37.6095 29.7048 37.9537 29.3083 37.9537ZM33.1079 36.2824C32.8247 36.5817 32.3716 36.5817 32.0884 36.2824C31.8052 35.983 31.8052 35.5041 32.0884 35.2047C32.3716 34.9054 32.8247 34.9054 33.1079 35.2047C33.3911 35.5041 33.3911 35.988 33.1079 36.2824ZM34.6797 32.2661C34.6797 32.6852 34.3587 33.0245 33.9622 33.0245C33.5658 33.0245 33.2448 32.6852 33.2448 32.2661C33.2448 31.847 33.5658 31.5078 33.9622 31.5078C34.354 31.5028 34.6797 31.847 34.6797 32.2661ZM33.0985 28.2498C33.3817 28.5492 33.3817 29.0281 33.0985 29.3275C32.8153 29.6268 32.3621 29.6268 32.0789 29.3275C31.7957 29.0281 31.7957 28.5492 32.0789 28.2498C32.3621 27.9505 32.82 27.9505 33.0985 28.2498ZM29.2988 26.5885C29.6953 26.5885 30.0163 26.9277 30.0163 27.3468C30.0163 27.7659 29.6953 28.1052 29.2988 28.1052C28.9023 28.1052 28.5814 27.7659 28.5814 27.3468C28.5814 26.9327 28.9023 26.5885 29.2988 26.5885ZM53.0029 19.2744V17.4084H5.59473V19.2744C5.59473 26.1644 8.26156 32.4258 12.5568 36.9709C16.8521 41.511 22.7804 44.3299 29.2988 44.3299C35.8172 44.3299 41.7409 41.511 46.0409 36.9709C50.3361 32.4307 53.0029 26.1644 53.0029 19.2744ZM29.2988 22.647C31.8146 22.647 34.0944 23.7247 35.7417 25.4659C37.389 27.2071 38.4085 29.6169 38.4085 32.2761C38.4085 34.9353 37.389 37.3451 35.7417 39.0863C34.0944 40.8275 31.8146 41.9052 29.2988 41.9052C26.783 41.9052 24.5033 40.8275 22.856 39.0863C21.2087 37.3451 20.1891 34.9353 20.1891 32.2761C20.1891 29.6169 21.2087 27.2071 22.856 25.4659C24.5033 23.7247 26.783 22.647 29.2988 22.647ZM34.203 27.0924C32.9474 25.7652 31.2152 24.947 29.2988 24.947C27.3825 24.947 25.6502 25.7652 24.3947 27.0924C23.1392 28.4195 22.3651 30.2505 22.3651 32.2761C22.3651 34.3017 23.1392 36.1327 24.3947 37.4598C25.6502 38.7869 27.3825 39.6052 29.2988 39.6052C31.2152 39.6052 32.9474 38.7869 34.203 37.4598C35.4585 36.1327 36.2326 34.3017 36.2326 32.2761C36.2326 30.2505 35.4585 28.4195 34.203 27.0924Z" fill="#696969"/>
</g>
<defs>
<clipPath id="clip0_43_1111">
<rect width="58" height="46" fill="white" transform="translate(0.298828 0.629883)"/>
</clipPath>
</defs>
</svg>
